<?xml version="1.0" encoding="UTF-8"?>
<svg version="1.1" xmlns="http://www.w3.org/2000/svg" width="448" height="600">
<path d="M0 0 C2.64269141 2.09592767 3.5578568 3.65739742 4 7 C2.12034083 12.58527296 -0.67348543 18.13187677 -6 21 C-8.3125 20.75 -8.3125 20.75 -10 20 C-10.7109375 18.28125 -10.7109375 18.28125 -11 16 C-9.6015625 13.78125 -9.6015625 13.78125 -7.625 11.5 C-5.20302898 8.68240822 -3.59063055 6.71253486 -3 3 C-4.44096586 3.42594588 -5.87768712 3.86626633 -7.3125 4.3125 C-8.51326172 4.67794922 -8.51326172 4.67794922 -9.73828125 5.05078125 C-12.11406211 6.04787062 -13.24597301 7.16367262 -15 9 C-15.66 9 -16.32 9 -17 9 C-17 9.99 -17 10.98 -17 12 C-17.70125 12.639375 -18.4025 13.27875 -19.125 13.9375 C-24.0629035 18.52269611 -26.90099395 25.70298186 -29 32 C-29.068991 34.06145107 -29.08467727 36.12501401 -29.0625 38.1875 C-29.05347656 39.27417969 -29.04445312 40.36085938 -29.03515625 41.48046875 C-29.02355469 42.31191406 -29.01195312 43.14335937 -29 44 C-21.17235178 44.85083133 -14.84028189 41.34965947 -8.6875 36.6875 C-5.93463924 33.93463924 -4.23905443 31.26524205 -2.29296875 27.93359375 C0.05416628 24.42352777 3.21918464 21.89040768 7 20 C13.0836227 19.4035664 16.05576103 20.77110925 21 24 C19.56176509 29.63308675 17.45855991 34.73677223 15 40 C15.66 40 16.32 40 17 40 C17 39.34 17 38.68 17 38 C17.66 38 18.32 38 19 38 C19.99 34.7 20.98 31.4 22 28 C22.66 28 23.32 28 24 28 C24.25523437 27.17371094 24.51046875 26.34742188 24.7734375 25.49609375 C28.05510574 16.14229415 32.59433806 3.65589653 42 -1 C44.61328125 -1.28125 44.61328125 -1.28125 47 -1 C49 1 49 1 49.375 4.125 C48.30146248 15.21822103 39.53614678 22.53236364 32 30 C34.475 31.485 34.475 31.485 37 33 C37.165 32.154375 37.33 31.30875 37.5 30.4375 C39.58826755 25.65188686 42.71492194 22.91001569 47 20 C50.48010823 18.86227231 51.99134295 18.6018459 55.375 19.9375 C56.179375 20.4634375 56.179375 20.4634375 57 21 C57 21.99 57 22.98 57 24 C57.66 24.33 58.32 24.66 59 25 C55.77738097 30.32971609 52.40382253 35.03805015 46.125 36.8125 C45.42375 36.874375 44.7225 36.93625 44 37 C44 38.32 44 39.64 44 41 C47.43230448 40.73606499 47.43230448 40.73606499 51 40 C51.66 39.01 52.32 38.02 53 37 C53.99 37 54.98 37 56 37 C56.268125 36.401875 56.53625 35.80375 56.8125 35.1875 C57.99917406 33.00152146 59.09599113 31.58667406 61 30 C61.66 30 62.32 30 63 30 C63.33 30.99 63.66 31.98 64 33 C52.7635341 46.35481603 52.7635341 46.35481603 46 48 C41.62463508 48.07292275 39.82591835 47.74120878 36.5625 44.8125 C34.77124015 41.58823227 34.66214372 39.63195497 35 36 C34.01 36 33.02 36 32 36 C32.19722656 36.72832031 32.39445313 37.45664062 32.59765625 38.20703125 C33.70666558 45.90549406 27.29450528 54.94563302 23 61 C20.23024761 63.6409267 18.60302313 64.79899229 15 66 C12.8125 64.5625 12.8125 64.5625 11 63 C11.54981916 56.95198929 12.90429574 51.69398894 15 46 C13.35 46.66 11.7 47.32 10 48 C8.29159719 46.36587557 7.06546953 45.13093906 6 43 C5.443125 43.639375 4.88625 44.27875 4.3125 44.9375 C1.72436215 47.24583917 0.44877113 47.91378072 -3 48 C-6.12056696 46.26635169 -6.85331791 45.44004627 -8 42 C-8.60328125 42.48210937 -9.2065625 42.96421875 -9.828125 43.4609375 C-10.62734375 44.09257812 -11.4265625 44.72421875 -12.25 45.375 C-13.43335938 46.31472656 -13.43335938 46.31472656 -14.640625 47.2734375 C-17 49 -17 49 -21 51 C-4.665 51.495 -4.665 51.495 12 52 C11.01 54.64 10.02 57.28 9 60 C7.7310791 60.08040527 6.4621582 60.16081055 5.15478516 60.24365234 C0.35714242 60.54879689 -4.44012318 60.85957023 -9.23730469 61.171875 C-11.29677919 61.30519921 -13.35634758 61.43708268 -15.41601562 61.56738281 C-31.2568327 62.57094335 -47.08752733 63.64590093 -62.73046875 66.44921875 C-65.2541974 66.874363 -67.76486631 67.24599915 -70.30078125 67.58203125 C-114.11239864 73.07070151 -114.11239864 73.07070151 -152 93 C-153.8125 93.8125 -153.8125 93.8125 -156 94 C-159.44560634 92.35923508 -160.85674962 91.21487558 -163 88 C-163.4375 85.5625 -163.4375 85.5625 -163 83 C-159.21389539 79.48072562 -154.96504975 77.21180476 -150.375 74.9375 C-149.31321533 74.40926636 -149.31321533 74.40926636 -148.22998047 73.87036133 C-143.52903065 71.59348877 -138.93315351 69.82052444 -133.8203125 68.66796875 C-131.40717707 68.09643667 -129.11444419 67.40711445 -126.75390625 66.65625 C-119.96944379 64.59888379 -113.04283192 63.20267034 -106.10375977 61.78295898 C-103.80497399 61.3109547 -101.50897713 60.82674091 -99.21289062 60.34179688 C-97.73192378 60.03571738 -96.25080877 59.73035371 -94.76953125 59.42578125 C-93.75521782 59.21022331 -93.75521782 59.21022331 -92.72041321 58.99031067 C-88.42161077 58.12469679 -84.37920188 57.87054275 -80 58 C-79.505 57.01 -79.505 57.01 -79 56 C-76.63839949 55.71729213 -74.37105816 55.55845841 -72 55.47265625 C-70.53244254 55.40080381 -69.06499515 55.3266738 -67.59765625 55.25048828 C-66.83727051 55.21191711 -66.07688477 55.17334595 -65.29345703 55.13360596 C-61.66670075 54.92232829 -58.05367684 54.59072737 -54.4375 54.24609375 C-53.74084229 54.18024078 -53.04418457 54.11438782 -52.32641602 54.04653931 C-50.2174085 53.8455753 -48.10870385 53.64162292 -46 53.4375 C-44.53127265 53.29728853 -43.0625227 53.15731372 -41.59375 53.01757812 C-38.06223688 52.68109459 -34.53103444 52.34147467 -31 52 C-31.95261719 51.54625 -32.90523437 51.0925 -33.88671875 50.625 C-38.0976694 48.4270634 -39.51749831 46.44750506 -41 42 C-42.19279347 31.34307477 -38.36625704 23.41470286 -32.26953125 14.91015625 C-30.82915016 12.92370044 -30.82915016 12.92370044 -30 10 C-22.74110607 3.2094218 -9.47645991 -6.76889994 0 0 Z M44 5 C43.01441551 6.57934639 42.03677459 8.16365173 41.0625 9.75 C40.51722656 10.63171875 39.97195312 11.5134375 39.41015625 12.421875 C38.17284288 14.68399917 37.46409487 16.48566325 37 19 C39.48982535 16.72254211 41.10368997 14.37664762 42.75 11.4375 C43.19859375 10.65246094 43.6471875 9.86742187 44.109375 9.05859375 C44.40328125 8.37925781 44.6971875 7.69992187 45 7 C44.67 6.34 44.34 5.68 44 5 Z M48.4375 26.375 C46.77914204 27.88807063 46.77914204 27.88807063 47 30 C47.99 29.67 48.98 29.34 50 29 C50.73323796 26.98491642 50.73323796 26.98491642 51 25 C49.77822672 24.88989535 49.77822672 24.88989535 48.4375 26.375 Z M8 27 C6.33250315 28.81775051 6.33250315 28.81775051 4.875 31.1875 C4.35679687 31.96480469 3.83859375 32.74210937 3.3046875 33.54296875 C1.96545513 36.06505606 1.40953855 38.18816826 1 41 C4.91597644 39.69467452 5.53830346 38.02734726 7.6875 34.5625 C8.31011719 33.57378906 8.93273437 32.58507812 9.57421875 31.56640625 C11.16188098 29.19792479 11.16188098 29.19792479 11 27 C10.01 27 9.02 27 8 27 Z M46 30 C47 32 47 32 47 32 Z M26 41 C25.13644222 42.95421035 24.28440066 44.91351347 23.4375 46.875 C22.96183594 47.96554687 22.48617187 49.05609375 21.99609375 50.1796875 C21.66738281 51.11039062 21.33867187 52.04109375 21 53 C21.33 53.66 21.66 54.32 22 55 C22.81752303 53.41925436 23.62881997 51.83528777 24.4375 50.25 C24.88996094 49.36828125 25.34242188 48.4865625 25.80859375 47.578125 C26.83455398 45.35801434 27.51508603 43.38555381 28 41 C27.34 41 26.68 41 26 41 Z M-25 51 C-25.33 51.66 -25.66 52.32 -26 53 C-25.34 53 -24.68 53 -24 53 C-24.33 52.34 -24.66 51.68 -25 51 Z M20 55 C21 57 21 57 21 57 Z " fill="#020202" transform="translate(196,249)"/>
<path d="M0 0 C2.20559625 3.44073015 2.18356661 6.52175075 1.5625 10.4375 C-0.16411104 15.07208752 -2.49917464 18.41506426 -6.4375 21.4375 C-9.75 21.25 -9.75 21.25 -12.4375 20.4375 C-12.0550575 14.95582411 -10.2768626 13.18321961 -6.4375 9.4375 C-5.10186389 6.27048577 -5.10186389 6.27048577 -4.4375 3.4375 C-12.36322535 4.46490884 -17.12016354 8.59714684 -22.4375 14.4375 C-22.4375 15.0975 -22.4375 15.7575 -22.4375 16.4375 C-23.08525391 17.06591797 -23.08525391 17.06591797 -23.74609375 17.70703125 C-29.67445371 23.77230484 -33.04252475 33.77618807 -33.625 42.125 C-33.42248475 44.6226881 -32.99558866 46.99586213 -32.4375 49.4375 C-25.38932487 50.24729033 -20.87682389 49.15916194 -14.859375 45.43359375 C-7.61631775 39.46391269 -4.14914036 32.27077108 -0.3125 23.8125 C0.70478069 21.58831955 1.72802255 19.3668539 2.7578125 17.1484375 C3.20141113 16.17181152 3.64500977 15.19518555 4.10205078 14.18896484 C7.89726646 7.03883433 7.89726646 7.03883433 11.8125 5.625 C12.39 5.563125 12.9675 5.50125 13.5625 5.4375 C13.5625 6.0975 13.5625 6.7575 13.5625 7.4375 C14.2225 7.4375 14.8825 7.4375 15.5625 7.4375 C16.5625 10.4375 16.5625 10.4375 14.9375 13.703125 C14.15387629 15.03601135 13.36162363 16.3638484 12.5625 17.6875 C9.28988171 23.29199574 6.23425125 28.92489979 3.5 34.8125 C3.20158203 35.44833008 2.90316406 36.08416016 2.59570312 36.73925781 C1.05260498 39.95610147 1.05260498 39.95610147 0.5625 43.4375 C1.2225 43.4375 1.8825 43.4375 2.5625 43.4375 C3.2225 41.4575 3.8825 39.4775 4.5625 37.4375 C5.2225 37.4375 5.8825 37.4375 6.5625 37.4375 C6.81 36.426875 7.0575 35.41625 7.3125 34.375 C8.45910638 30.30371646 10.35991473 27.03505594 12.5625 23.4375 C14.8725 23.7675 17.1825 24.0975 19.5625 24.4375 C20.5625 27.4375 20.5625 27.4375 19.12890625 30.57421875 C18.47114027 31.7635128 17.80272185 32.94696371 17.125 34.125 C16.78662109 34.73150391 16.44824219 35.33800781 16.09960938 35.96289062 C15.26292085 37.4595025 14.41387169 38.94919189 13.5625 40.4375 C13.8925 40.7675 14.2225 41.0975 14.5625 41.4375 C14.830625 40.798125 15.09875 40.15875 15.375 39.5 C16.5625 37.4375 16.5625 37.4375 19.5625 36.4375 C20.25687747 34.44695124 20.91860218 32.44494615 21.5625 30.4375 C22.84322371 28.4034094 24.16537726 26.39347184 25.5625 24.4375 C27.2125 24.7675 28.8625 25.0975 30.5625 25.4375 C32.14118538 30.22768251 30.80699945 32.8414705 28.625 37.25 C28.05910156 38.41144531 27.49320312 39.57289063 26.91015625 40.76953125 C26.46542969 41.64996094 26.02070313 42.53039062 25.5625 43.4375 C29.67922105 39.77508602 31.7583281 36.33656138 33.75 31.1875 C36.33940834 24.92254182 39.29022596 18.99227128 42.6875 13.125 C43.09508545 12.4021582 43.5026709 11.67931641 43.92260742 10.93457031 C46.2920399 6.92512919 48.19875233 4.46408032 52.5625 2.4375 C53.8825 3.4275 55.2025 4.4175 56.5625 5.4375 C56.16477999 9.81242009 54.40359061 12.26764546 51.83984375 15.65625 C50.08826512 18.09881837 48.82347262 20.71645382 47.5625 23.4375 C48.655625 23.210625 49.74875 22.98375 50.875 22.75 C54.5625 22.4375 54.5625 22.4375 56.26171875 23.6328125 C58.82352089 27.18702448 58.18110078 31.27225472 57.5625 35.4375 C55.34148971 42.17950013 51.73614831 47.75784207 45.5625 51.4375 C41.82448645 52.51577314 40.25027015 52.66675672 36.5625 51.4375 C35.9025 51.64375 35.2425 51.85 34.5625 52.0625 C33.9025 52.18625 33.2425 52.31 32.5625 52.4375 C30.6043364 50.91448387 29.67136989 49.65523977 28.5625 47.4375 C27.5725 48.7575 26.5825 50.0775 25.5625 51.4375 C21.78704612 50.34681332 19.09206528 49.5291909 16.5625 46.4375 C15.675625 47.283125 14.78875 48.12875 13.875 49 C10.95414306 51.4375 10.95414306 51.4375 7.8125 51.4375 C5.5625 50.4375 5.5625 50.4375 3.5625 47.4375 C2.82 48.076875 2.0775 48.71625 1.3125 49.375 C-2.51067073 52.24237805 -2.51067073 52.24237805 -5.4375 52.4375 C-8.4375 50.4375 -8.4375 50.4375 -9.125 48.3125 C-9.2796875 47.384375 -9.2796875 47.384375 -9.4375 46.4375 C-10.00597656 46.98019531 -10.57445312 47.52289063 -11.16015625 48.08203125 C-17.26543125 53.73883864 -22.77864872 58.0840775 -31.4375 58.4375 C-35.83823011 57.48044801 -38.75057356 56.15965344 -41.875 52.875 C-45.93084191 46.54788661 -45.30401103 38.49801097 -43.765625 31.2890625 C-43.06110111 28.96945082 -42.31246493 26.69782607 -41.4375 24.4375 C-40.7775 24.4375 -40.1175 24.4375 -39.4375 24.4375 C-39.19902344 23.56996094 -38.96054687 22.70242188 -38.71484375 21.80859375 C-34.89003721 11.71437954 -25.84922788 4.16511678 -16.4375 -0.5625 C-10.83800522 -3.07299474 -5.31091961 -3.40443565 0 0 Z M48.5625 27.4375 C44.17604725 32.10485859 37.5625 39.71555968 37.5625 46.4375 C40.55892915 46.11191177 42.13911885 45.86565972 44.29296875 43.6875 C47.78969091 38.28773602 49.55242229 33.80098959 50.5625 27.4375 C49.9025 27.4375 49.2425 27.4375 48.5625 27.4375 Z " fill="#030303" transform="translate(355.4375,246.5625)"/>
<path d="M0 0 C2.73084879 2.11640781 3.71376988 3.6793242 4.4453125 7.0546875 C4.90108124 12.78152084 3.18144926 16.0004509 -0.39453125 20.37109375 C-2.73921919 22.75001071 -4.30383082 23.96762004 -7.6875 24.125 C-8.450625 24.08375 -9.21375 24.0425 -10 24 C-10.70703125 22.2421875 -10.70703125 22.2421875 -11 20 C-9.63671875 18.0703125 -9.63671875 18.0703125 -7.6875 16.125 C-4.6630625 12.90776967 -2.98944867 10.39754966 -2 6 C-3.299375 6.12375 -4.59875 6.2475 -5.9375 6.375 C-7.03384766 6.47941406 -7.03384766 6.47941406 -8.15234375 6.5859375 C-8.76207031 6.72257813 -9.37179688 6.85921875 -10 7 C-10.33 7.66 -10.66 8.32 -11 9 C-12.04374969 9.87697977 -13.10986395 10.72751048 -14.1875 11.5625 C-22.81982199 18.85319321 -30.04651179 31.83970258 -31.21875 43.1015625 C-31.34990162 46.10712051 -31.41102757 48.36290727 -29.75 50.9375 C-26.96692597 52.62722352 -24.95510291 53.22434196 -21.73828125 52.46875 C-13.07007791 49.00705205 -6.35877603 43.76901964 0 37 C-0.33 36.34 -0.66 35.68 -1 35 C-0.01 34.34 0.98 33.68 2 33 C1.773125 31.9275 1.54625 30.855 1.3125 29.75 C1 26 1 26 2.4375 23.5625 C2.953125 23.046875 3.46875 22.53125 4 22 C5.65 22.33 7.3 22.66 9 23 C9.66 24.98 10.32 26.96 11 29 C13.31 29.33 15.62 29.66 18 30 C19.11651815 33.34955444 18.99822121 34.67259596 18 38 C17 39 16 40 15 41 C13.86177174 43.29190759 12.94415749 45.61712632 12 48 C16.7487365 44.83417567 18.97834914 41.21789216 21 36 C21 35.34 21 34.68 21 34 C21.66 34 22.32 34 23 34 C23.99 31.03 23.99 31.03 25 28 C26.99954746 27.95745644 29.00041636 27.95919217 31 28 C31.33 28.33 31.66 28.66 32 29 C31.60598115 35.17296201 29.43950205 40.36077898 27 46 C28.14626322 45.02133662 29.29199788 44.04205413 30.4375 43.0625 C31.07558594 42.51722656 31.71367188 41.97195313 32.37109375 41.41015625 C35.15202604 39.0026825 35.20964551 37.8781212 35.75 34.1875 C36.43827131 30.7012562 36.84598482 29.19025405 39.125 26.375 C43.01953099 24.51239822 45.71247331 24.70932022 50 25 C50.495 26.98 50.495 26.98 51 29 C49.02 29.33 47.04 29.66 45 30 C45.47730838 31.4589426 45.95691042 32.91713496 46.4375 34.375 C46.70433594 35.18710937 46.97117187 35.99921875 47.24609375 36.8359375 C47.95179729 39.01031799 47.95179729 39.01031799 49 41 C51.2344029 39.27013969 52.82616369 37.9531699 53.34765625 35.09375 C53.39792969 34.4028125 53.44820313 33.711875 53.5 33 C53.7501874 30.07933401 53.94086323 29.08870515 55.625 26.5625 C58.74522819 24.5097183 61.30146016 24.20547444 65 24 C65.66 24.33 66.32 24.66 67 25 C67 26.32 67 27.64 67 29 C65.35 29.33 63.7 29.66 62 30 C63.32 33.3 64.64 36.6 66 40 C66.66 40 67.32 40 68 40 C69.63676257 38.0399719 69.63676257 38.0399719 71 36 C72.98 36.495 72.98 36.495 75 37 C73.04343039 40.5218253 71.04899025 43.34442785 68 46 C67.34 46 66.68 46 66 46 C65.95875 46.7425 65.9175 47.485 65.875 48.25 C65 51 65 51 62.375 53.3125 C58.52928199 55.23535901 56.24458169 55.48051868 52 55 C50.515 54.01 50.515 54.01 49 53 C48.5625 50.5625 48.5625 50.5625 49 48 C50.75 46.1875 50.75 46.1875 53 45 C54.32 45 55.64 45 57 45 C57 43.68 57 42.36 57 41 C56.2575 41.45375 55.515 41.9075 54.75 42.375 C52 44 52 44 49.75 44.875 C49.1725 45.24625 48.595 45.6175 48 46 C47.7834375 47.175625 47.7834375 47.175625 47.5625 48.375 C47 51 47 51 45 53.3125 C40.9821083 55.57256408 37.52019427 55.90578074 33 55 C30.9375 53 30.9375 53 30 51 C29.13375 51.70125 28.2675 52.4025 27.375 53.125 C24 55 24 55 20.6875 54.4375 C18 53 18 53 17 50 C16.13375 50.825 15.2675 51.65 14.375 52.5 C11.90174785 54.56885784 11.09215467 54.98759456 7.75 55.4375 C5 55 5 55 3 53 C2.59952556 50.67724823 2.2602896 48.34260643 2 46 C2.66 46 3.32 46 4 46 C4.0825 45.319375 4.165 44.63875 4.25 43.9375 C5.22332528 40.1253093 6.95807455 37.35929671 9 34 C6.06051741 36.85040736 3.29866633 39.77282281 0.625 42.875 C-6.39920031 50.95974696 -6.39920031 50.95974696 -10 54 C-10.66 54 -11.32 54 -12 54 C-12 54.66 -12 55.32 -12 56 C-19.49650438 60.13193155 -26.37674013 62.73202228 -35 61 C-39.06624541 58.92437299 -41.29896507 56.25602092 -43.5 52.3125 C-45.1967529 41.07151206 -41.11131478 30.86602619 -36 21 C-35.34 21 -34.68 21 -34 21 C-33.73832031 20.4225 -33.47664063 19.845 -33.20703125 19.25 C-30.20036413 13.64533897 -25.21701275 8.57738017 -20 5 C-19.34 5 -18.68 5 -18 5 C-17.67 4.34 -17.34 3.68 -17 3 C-11.51387693 0.38298724 -6.01344479 -0.81538234 0 0 Z M37 41 C35.63823419 42.98075027 34.30406884 44.98079663 33 47 C35.31 46.34 37.62 45.68 40 45 C39.34 43.68 38.68 42.36 38 41 C37.67 41 37.34 41 37 41 Z M37 49 C36.34 49.66 35.68 50.32 35 51 C36.32 50.67 37.64 50.34 39 50 C38.34 49.67 37.68 49.34 37 49 Z " fill="#020202" transform="translate(77,244)"/>
<path d="M0 0 C1.80078125 0.72265625 1.80078125 0.72265625 2.80078125 1.72265625 C3.38114123 5.88190275 2.9933496 7.4365547 0.61328125 10.97265625 C-2.03001113 13.5572088 -3.69690645 14.72199559 -7.19921875 15.72265625 C-7.19921875 16.38265625 -7.19921875 17.04265625 -7.19921875 17.72265625 C-7.85921875 17.72265625 -8.51921875 17.72265625 -9.19921875 17.72265625 C-9.32296875 18.48578125 -9.44671875 19.24890625 -9.57421875 20.03515625 C-10.19921875 22.72265625 -10.19921875 22.72265625 -12.19921875 25.72265625 C-10.21921875 26.05265625 -8.23921875 26.38265625 -6.19921875 26.72265625 C-6.32296875 25.42328125 -6.32296875 25.42328125 -6.44921875 24.09765625 C-6.13840512 19.9016722 -4.79296971 17.98337174 -2.19921875 14.72265625 C0.80078125 12.72265625 0.80078125 12.72265625 3.36328125 12.91015625 C5.80078125 13.72265625 5.80078125 13.72265625 7.80078125 16.72265625 C8.46078125 15.73265625 9.12078125 14.74265625 9.80078125 13.72265625 C11.12078125 14.05265625 12.44078125 14.38265625 13.80078125 14.72265625 C13.80078125 16.04265625 13.80078125 17.36265625 13.80078125 18.72265625 C14.79078125 17.07265625 15.78078125 15.42265625 16.80078125 13.72265625 C18.12078125 14.05265625 19.44078125 14.38265625 20.80078125 14.72265625 C20.47078125 16.70265625 20.14078125 18.68265625 19.80078125 20.72265625 C20.19265625 19.75328125 20.58453125 18.78390625 20.98828125 17.78515625 C22.80078125 14.72265625 22.80078125 14.72265625 25.17578125 13.91015625 C26.04203125 13.84828125 26.90828125 13.78640625 27.80078125 13.72265625 C29.46744792 13.38932292 31.13411458 13.05598958 32.80078125 12.72265625 C33.46078125 14.04265625 34.12078125 15.36265625 34.80078125 16.72265625 C35.79078125 16.06265625 36.78078125 15.40265625 37.80078125 14.72265625 C41.82763504 12.65481241 44.42393003 12.52896955 48.80078125 13.72265625 C49.29578125 14.71265625 49.29578125 14.71265625 49.80078125 15.72265625 C50.38859375 14.98015625 50.38859375 14.98015625 50.98828125 14.22265625 C52.80078125 12.72265625 52.80078125 12.72265625 55.36328125 12.41015625 C57.80078125 12.72265625 57.80078125 12.72265625 59.80078125 14.72265625 C59.68757822 18.00554401 58.51793262 19.02620112 56.23828125 21.47265625 C55.43390625 22.21515625 54.62953125 22.95765625 53.80078125 23.72265625 C55.75077254 23.52794514 55.75077254 23.52794514 57.80078125 22.72265625 C59.08514859 20.73887955 59.08514859 20.73887955 59.80078125 18.72265625 C60.46078125 18.72265625 61.12078125 18.72265625 61.80078125 18.72265625 C61.55310551 22.0662788 60.52153673 23.00839482 58.11328125 25.47265625 C55.67290422 27.38379489 54.76868775 27.72697653 51.55078125 28.16015625 C48.80078125 27.72265625 48.80078125 27.72265625 46.80078125 25.72265625 C43.53637113 28.75389422 41.24684412 32.01410931 38.80078125 35.72265625 C37.16838722 37.69513238 36.14150285 38.57359055 33.80078125 39.59765625 C31.80078125 39.72265625 31.80078125 39.72265625 30.05078125 38.28515625 C29.63828125 37.76953125 29.22578125 37.25390625 28.80078125 36.72265625 C30.11302673 32.78591981 31.71988452 30.49546331 34.80078125 27.72265625 C33.81078125 27.72265625 32.82078125 27.72265625 31.80078125 27.72265625 C29.80078125 27.72265625 27.80078125 27.72265625 25.80078125 27.72265625 C25.80078125 26.07265625 25.80078125 24.42265625 25.80078125 22.72265625 C23.82078125 25.69265625 23.82078125 25.69265625 21.80078125 28.72265625 C20.54265625 28.55765625 19.28453125 28.39265625 17.98828125 28.22265625 C14.00396288 27.70012269 10.69833378 27.64746934 6.80078125 28.72265625 C6.47078125 27.40265625 6.14078125 26.08265625 5.80078125 24.72265625 C2.07650964 26.40265543 2.07650964 26.40265543 -1.19921875 28.72265625 C-2.25572965 32.3541311 -2.25572965 32.3541311 -2.19921875 35.72265625 C-2.94171875 35.24828125 -3.68421875 34.77390625 -4.44921875 34.28515625 C-9.02394187 31.68588175 -12.70644206 31.60772848 -17.94921875 31.66015625 C-19.70492187 31.67369141 -19.70492187 31.67369141 -21.49609375 31.6875 C-22.388125 31.69910156 -23.28015625 31.71070313 -24.19921875 31.72265625 C-23.84765625 29.80859375 -23.84765625 29.80859375 -23.19921875 27.72265625 C-22.02359375 27.04203125 -22.02359375 27.04203125 -20.82421875 26.34765625 C-17.53455289 24.31119643 -16.68002935 22.22983925 -15.19921875 18.72265625 C-16.37484375 18.28953125 -16.37484375 18.28953125 -17.57421875 17.84765625 C-20.19921875 16.72265625 -20.19921875 16.72265625 -22.19921875 14.72265625 C-21.82421875 12.09765625 -21.82421875 12.09765625 -21.19921875 9.72265625 C-20.53921875 9.72265625 -19.87921875 9.72265625 -19.19921875 9.72265625 C-18.20921875 11.20765625 -18.20921875 11.20765625 -17.19921875 12.72265625 C-15.21921875 12.39265625 -13.23921875 12.06265625 -11.19921875 11.72265625 C-11.19921875 10.85640625 -11.19921875 9.99015625 -11.19921875 9.09765625 C-9.90615897 4.7335795 -7.85487997 3.38421127 -4.3046875 0.7265625 C-2.19921875 -0.27734375 -2.19921875 -0.27734375 0 0 Z M-2.19921875 3.72265625 C-3.95287515 6.06207969 -3.95287515 6.06207969 -5.19921875 8.72265625 C-4.86921875 9.38265625 -4.53921875 10.04265625 -4.19921875 10.72265625 C-1.22246416 7.6293773 -1.22246416 7.6293773 -0.19921875 3.72265625 C-0.85921875 3.72265625 -1.51921875 3.72265625 -2.19921875 3.72265625 Z M2.80078125 15.72265625 C2.47078125 17.37265625 2.14078125 19.02265625 1.80078125 20.72265625 C2.46078125 20.06265625 3.12078125 19.40265625 3.80078125 18.72265625 C3.47078125 17.73265625 3.14078125 16.74265625 2.80078125 15.72265625 Z M47.80078125 16.72265625 C48.80078125 18.72265625 48.80078125 18.72265625 48.80078125 18.72265625 Z M40.80078125 17.72265625 C40.14078125 19.37265625 39.48078125 21.02265625 38.80078125 22.72265625 C39.79078125 21.73265625 40.78078125 20.74265625 41.80078125 19.72265625 C41.47078125 19.06265625 41.14078125 18.40265625 40.80078125 17.72265625 Z M46.80078125 18.72265625 C47.80078125 20.72265625 47.80078125 20.72265625 47.80078125 20.72265625 Z M32.80078125 19.72265625 C33.80078125 21.72265625 33.80078125 21.72265625 33.80078125 21.72265625 Z M33.80078125 32.72265625 C33.80078125 35.72265625 33.80078125 35.72265625 33.80078125 35.72265625 Z " fill="#050505" transform="translate(106.19921875,323.27734375)"/>
<path d="M0 0 C2.47897747 0.19590703 4.95806985 0.3902466 7.43725586 0.58349609 C8.24045258 0.64625732 9.04364929 0.70901855 9.8711853 0.77368164 C16.10202304 1.25086152 22.335924 1.6331491 28.57774353 1.93518066 C32.16537467 2.12355708 35.55905395 2.5320452 39.06616211 3.30224609 C40.46141576 3.34246962 41.85849674 3.34542336 43.25366211 3.30224609 C47.06616211 3.30224609 47.06616211 3.30224609 49.06616211 4.30224609 C51.81945073 4.72746441 54.56481908 5.10894468 57.32788086 5.45849609 C58.15189896 5.5656897 58.97591705 5.6728833 59.8249054 5.7833252 C62.46739695 6.12636847 65.11049741 6.4644323 67.75366211 6.80224609 C70.37882436 7.14114777 73.00385456 7.48105668 75.62886047 7.82116699 C77.2626804 8.03247814 78.89661644 8.24289404 80.53068542 8.45227051 C89.17694919 9.56258891 97.77830717 10.88172068 106.37866211 12.30224609 C107.47500977 12.48013672 108.57135742 12.65802734 109.70092773 12.84130859 C110.74571289 13.01404297 111.79049805 13.18677734 112.86694336 13.36474609 C113.81738525 13.52072266 114.76782715 13.67669922 115.74707031 13.83740234 C118.06616211 14.30224609 118.06616211 14.30224609 120.06616211 15.30224609 C120.06616211 15.96224609 120.06616211 16.62224609 120.06616211 17.30224609 C118.58709319 17.32913826 117.10788728 17.34859231 115.62866211 17.36474609 C114.3930957 17.38214844 114.3930957 17.38214844 113.13256836 17.39990234 C111.06616211 17.30224609 111.06616211 17.30224609 110.06616211 16.30224609 C107.21024653 15.89510724 104.37064825 15.54619354 101.50366211 15.23974609 C100.71668945 15.14886719 99.9297168 15.05798828 99.11889648 14.96435547 C95.25916689 14.54115346 91.48590182 14.25786939 87.60131836 14.30615234 C84.06616211 14.30224609 84.06616211 14.30224609 82.06616211 13.30224609 C80.64758253 13.10019076 79.22177193 12.94762701 77.79443359 12.8215332 C76.46550331 12.70152199 76.46550331 12.70152199 75.10972595 12.5790863 C74.14531082 12.49675247 73.18089569 12.41441864 72.18725586 12.32958984 C71.18719009 12.24222061 70.18712433 12.15485138 69.15675354 12.06483459 C67.02753901 11.88034835 64.89813157 11.69807763 62.76855469 11.51782227 C59.568148 11.24523846 56.36896042 10.96072622 53.16967773 10.67529297 C41.43640603 9.65672381 29.84340724 9.02171579 18.06616211 9.30224609 C18.06616211 8.64224609 18.06616211 7.98224609 18.06616211 7.30224609 C17.03136719 7.31384766 15.99657227 7.32544922 14.93041992 7.33740234 C-1.66591009 7.45818739 -18.243642 6.89125668 -34.8293457 6.37512207 C-38.799005 6.25225362 -42.76876957 6.13288533 -46.73852539 6.01318359 C-54.47040065 5.77954428 -62.20215437 5.54215566 -69.93383789 5.30224609 C-69.05883789 -0.57275391 -69.05883789 -0.57275391 -67.93383789 -1.69775391 C-65.34438661 -1.94164408 -62.77955274 -2.12511546 -60.18383789 -2.26025391 C-59.02573608 -2.322854 -59.02573608 -2.322854 -57.84423828 -2.38671875 C-38.49236381 -3.36782775 -19.2773359 -1.52710436 0 0 Z " fill="#030303" transform="translate(293.933837890625,302.69775390625)"/>
<path d="M0 0 C0.99 0.66 1.98 1.32 3 2 C2.25 8.75 2.25 8.75 0 11 C-2.625 10.625 -2.625 10.625 -5 10 C-4.67 8.68 -4.34 7.36 -4 6 C-3.34 6 -2.68 6 -2 6 C-2 5.01 -2 4.02 -2 3 C-3.65 3.66 -5.3 4.32 -7 5 C-6.53748512 9.97203501 -5.10619764 12.19240289 -2 16 C-2 17.32 -2 18.64 -2 20 C-1.34 20 -0.68 20 0 20 C0.2475 19.236875 0.495 18.47375 0.75 17.6875 C2.14716768 14.68358949 3.06443741 13.50971791 6 12 C8.75 12.3125 8.75 12.3125 11 13 C11 13.66 11 14.32 11 15 C13.97065509 14.65772428 13.97065509 14.65772428 17 14 C17.33 13.34 17.66 12.68 18 12 C22.75 12.75 22.75 12.75 25 15 C26.32 14.34 27.64 13.68 29 13 C30 16.875 30 16.875 30 18 C31.051875 16.7934375 31.051875 16.7934375 32.125 15.5625 C35.29580753 12.73634546 36.82350587 12.1815867 41 12 C41.99 12.33 42.98 12.66 44 13 C43.67 14.98 43.34 16.96 43 19 C45.46948428 15.29577358 47.37345059 11.37547292 49.3671875 7.3984375 C51 5 51 5 53.1953125 4.1640625 C53.79085937 4.10992187 54.38640625 4.05578125 55 4 C56.06528748 6.73019786 56.07998186 7.79298812 55.00390625 10.578125 C54.52824219 11.45984375 54.05257812 12.3415625 53.5625 13.25 C52.85287109 14.58804687 52.85287109 14.58804687 52.12890625 15.953125 C51.75636719 16.62859375 51.38382812 17.3040625 51 18 C51.99 18 52.98 18 54 18 C52.6062718 22.43458973 50.39417765 24.87378374 47 28 C45.35 27.34 43.7 26.68 42 26 C41.34 26.66 40.68 27.32 40 28 C38.32995171 27.68404492 36.66362417 27.34820041 35 27 C32.27497035 27.37722015 32.27497035 27.37722015 30 28 C30 27.34 30 26.68 30 26 C28.6078125 26.556875 28.6078125 26.556875 27.1875 27.125 C26.135625 27.41375 25.08375 27.7025 24 28 C23.01 27.34 22.02 26.68 21 26 C20.01 26.495 20.01 26.495 19 27 C16 27.1875 16 27.1875 13 27 C12.34 26.34 11.68 25.68 11 25 C8.06546739 25.36681658 7.13562754 25.86437246 5 28 C2.5625 27.625 2.5625 27.625 0 27 C-3.15722061 26.70149462 -3.15722061 26.70149462 -5.6875 29 C-10.05879769 31.63927408 -11.95937006 31.64007999 -17 31 C-20 29.375 -20 29.375 -22 27 C-22.625 24 -22.625 24 -22 21 C-19.44065969 18.22128766 -17.97719051 17.08686138 -14.1875 16.75 C-13.465625 16.8325 -12.74375 16.915 -12 17 C-11.67 18.32 -11.34 19.64 -11 21 C-12.98 21.33 -14.96 21.66 -17 22 C-17 23.65 -17 25.3 -17 27 C-14.03 26.67 -11.06 26.34 -8 26 C-8 23.36 -8 20.72 -8 18 C-8.66 18 -9.32 18 -10 18 C-14 11.08154506 -14 11.08154506 -14 7.25 C-11.06335164 0.6425412 -6.74520839 -0.35501097 0 0 Z M8 15 C7.67 16.65 7.34 18.3 7 20 C7.66 19.01 8.32 18.02 9 17 C8.67 16.34 8.34 15.68 8 15 Z M18 17 C16.5393715 19.64738916 16 20.89448334 16 24 C19.37503669 22.8141763 21.64722731 21.72426311 24 19 C23.67 18.34 23.34 17.68 23 17 C21.68 17 20.36 17 19 17 C18.67 17 18.34 17 18 17 Z M37 17 C36.67 17.66 36.34 18.32 36 19 C36.66 19 37.32 19 38 19 C37.67 18.34 37.34 17.68 37 17 Z M35 19 C34.67 20.32 34.34 21.64 34 23 C34.66 22.67 35.32 22.34 36 22 C35.67 21.01 35.34 20.02 35 19 Z M27 21 C28 23 28 23 28 23 Z M41 21 C42 23 42 23 42 23 Z " fill="#050505" transform="translate(280,324)"/>
<path d="M0 0 C2.63332411 1.35042262 3.63286066 2.21327285 4.875 4.875 C5.05696496 7.96840432 4.58289011 9.27742901 3 12 C0.45443625 14.48636459 -2.25972769 16.73356644 -5 19 C-5.66 19.66 -6.32 20.32 -7 21 C-7 21.99 -7 22.98 -7 24 C-6.01 24 -5.02 24 -4 24 C-4 23.34 -4 22.68 -4 22 C0.91046959 19.59487204 4.40391464 18.45136418 10 19 C12 21 12 21 12 25 C9.36 25 6.72 25 4 25 C3.95101563 25.61488281 3.90203125 26.22976563 3.8515625 26.86328125 C3.77679688 27.67152344 3.70203125 28.47976563 3.625 29.3125 C3.55539062 30.11300781 3.48578125 30.91351563 3.4140625 31.73828125 C3 34 3 34 1 37 C3.05233685 39.2477975 4.00667261 40.0022242 7 41 C7 41.99 7 42.98 7 44 C0.73951928 45.37730576 0.73951928 45.37730576 -3.0625 43.4375 C-5.91261652 41.62332149 -5.91261652 41.62332149 -8.75 42.875 C-9.8225 43.24625 -10.895 43.6175 -12 44 C-15.3680727 43.89885668 -18.66772427 43.48732886 -22 43 C-22 42.34 -22 41.68 -22 41 C-22.99 40.67 -23.98 40.34 -25 40 C-26.48882438 35.92532275 -27.26270217 32.33458585 -27 28 C-26.34 27.67 -25.68 27.34 -25 27 C-24.67 26.01 -24.34 25.02 -24 24 C-22.15234375 22.640625 -22.15234375 22.640625 -19.9375 21.25 C-17.73444116 19.74739581 -17.73444116 19.74739581 -16 18 C-15.58326793 14.54199641 -15.58326793 14.54199641 -16 11 C-13.14349834 2.12981064 -9.08076625 -1.00897403 0 0 Z M-6.625 5.0625 C-8.62066174 7.87456882 -8.68138504 10.62268141 -9 14 C-6.37098712 12.47793991 -4.15634036 11.15634036 -2 9 C-1.83312552 6.41645782 -1.83312552 6.41645782 -2 4 C-4.9051032 3.72637532 -4.9051032 3.72637532 -6.625 5.0625 Z M-16 26 C-18.08901197 29.39464446 -18.34361606 32.04841529 -18 36 C-16.04366025 38.41121859 -16.04366025 38.41121859 -12.375 38.125 C-11.26125 38.08375 -10.1475 38.0425 -9 38 C-9.20496094 37.38511719 -9.40992188 36.77023437 -9.62109375 36.13671875 C-10.74739583 32.7578125 -11.87369792 29.37890625 -13 26 C-13.99 26 -14.98 26 -16 26 Z M-5 27 C-4.65555119 29.47266765 -4.65555119 29.47266765 -4 32 C-3.34 32.33 -2.68 32.66 -2 33 C-1.34 31.02 -0.68 29.04 0 27 C-1.65 27 -3.3 27 -5 27 Z " fill="#020202" transform="translate(291,255)"/>
<path d="M0 0 C0.99 0.66 1.98 1.32 3 2 C2.63076923 8.4 2.63076923 8.4 -0.5625 11.4375 C-1.7690625 12.2109375 -1.7690625 12.2109375 -3 13 C-3.99 12.34 -4.98 11.68 -6 11 C-6 9 -6 9 -4 6.875 C-3.34 6.25625 -2.68 5.6375 -2 5 C-5.11188022 4.69017786 -5.11188022 4.69017786 -7.375 6.875 C-11.34894824 11.10260451 -14.85249001 16.96550868 -15.13671875 22.8125 C-15.06904297 23.8953125 -15.06904297 23.8953125 -15 25 C-12.03372171 25.43408951 -9.84291823 25.47312185 -7.18359375 23.98046875 C-2.93352224 20.64833925 -0.86187574 17.24272376 1.08984375 12.2578125 C2.41515035 8.97014205 4.18791692 6.04171088 6 3 C7.32 3.33 8.64 3.66 10 4 C9.51421457 7.12290635 9.0013988 9.99580359 8 13 C8.99 12.67 9.98 12.34 11 12 C11.495 13.98 11.495 13.98 12 16 C12.33 15.67 12.66 15.34 13 15 C14.32520503 14.31731862 15.65812182 13.6492959 17 13 C17.495 15.475 17.495 15.475 18 18 C18.48210937 17.08476562 18.96421875 16.16953125 19.4609375 15.2265625 C20.09876794 14.0259405 20.73679926 12.8254252 21.375 11.625 C21.85066406 10.72007812 21.85066406 10.72007812 22.3359375 9.796875 C23.7132062 7.21449618 24.91830581 5.08169419 27 3 C29.125 3.375 29.125 3.375 31 4 C29.125 8.75 29.125 8.75 28 11 C29.32 11.99 30.64 12.98 32 14 C31.63669439 21.1450104 31.63669439 21.1450104 28.8125 24.9375 C25.6732829 27.23959254 23.87407246 27.91757293 20 28 C17.625 27.0625 17.625 27.0625 16 26 C15.505 26.495 15.505 26.495 15 27 C12.66708189 27.04401732 10.33299825 27.03954234 8 27 C4.12257258 26.86925591 4.12257258 26.86925591 0.875 27.625 C-0.07375 27.74875 -1.0225 27.8725 -2 28 C-2.66 27.34 -3.32 26.68 -4 26 C-4.66 26.639375 -5.32 27.27875 -6 27.9375 C-9.62340735 30.42859255 -12.58390069 31.53528476 -17 31 C-19.75403111 28.94912577 -21.42214386 27.37203792 -22.76171875 24.19140625 C-23.39764587 18.34296177 -19.11709879 11.01561409 -15.5625 6.5 C-10.5629063 1.62234761 -7.16829266 -0.81150483 0 0 Z M5 15 C4.67 16.32 4.34 17.64 4 19 C4.66 18.67 5.32 18.34 6 18 C5.67 17.01 5.34 16.02 5 15 Z M26 16 C24.68 18.31 23.36 20.62 22 23 C24.03241727 22.36020151 24.03241727 22.36020151 26 21 C26.81171228 18.44480079 26.81171228 18.44480079 27 16 C26.67 16 26.34 16 26 16 Z M3 19 C4 21 4 21 4 21 Z M9 20 C10 22 10 22 10 22 Z M2 21 C3 23 3 23 3 23 Z " fill="#050505" transform="translate(359,324)"/>
<path d="M0 0 C3.25 1.5625 3.25 1.5625 5 4 C5.375 7.6875 5.375 7.6875 5 11 C4.67 11.33 4.34 11.66 4 12 C5.32 13.32 6.64 14.64 8 16 C8.66 15.01 9.32 14.02 10 13 C12.475 13.495 12.475 13.495 15 14 C15.45890625 13.28972656 15.9178125 12.57945312 16.390625 11.84765625 C17.00421875 10.92855469 17.6178125 10.00945312 18.25 9.0625 C18.85328125 8.14597656 19.4565625 7.22945313 20.078125 6.28515625 C22.09333887 3.88901781 22.94918504 3.31723076 26 3 C26 6.76687864 25.76462683 7.91190305 24 11 C24.99 11.33 25.98 11.66 27 12 C28.1799276 15.5397828 27.99327295 17.01950844 26.75 20.625 C25.25631907 23.50567036 24.43794285 25.02313381 22 27 C17.50108259 28.32216705 13.22448334 28.24503403 8.75 26.9375 C4.80154178 25.95038545 3.47081006 26.04766934 0 28 C-1 27 -1 27 -1.125 24.1875 C-1.02150165 21.54829203 -0.6871155 19.51397021 0 17 C-7.78317633 19.12649587 -7.78317633 19.12649587 -13.46484375 24.3359375 C-14.17227926 26.56735099 -14.69682281 28.68069452 -15 31 C-16.32 30.67 -17.64 30.34 -19 30 C-19.15789474 20.68421053 -19.15789474 20.68421053 -18 17 C-17.54625 16.5565625 -17.0925 16.113125 -16.625 15.65625 C-14.71442565 13.70893383 -13.59973629 11.71302173 -12.3125 9.3125 C-11.87550781 8.50425781 -11.43851563 7.69601562 -10.98828125 6.86328125 C-10.66214844 6.24839844 -10.33601562 5.63351562 -10 5 C-13.72450216 7.10515339 -15.6795921 8.24267224 -17.375 12.25 C-17.58125 13.1575 -17.7875 14.065 -18 15 C-19.32 14.67 -20.64 14.34 -22 14 C-22.8125 12.375 -22.8125 12.375 -23 10 C-17.00239414 1.27620965 -10.52875387 -1.4283764 0 0 Z M-8 3 C-7.34 3.66 -6.68 4.32 -6 5 C-6.03287583 7.72869407 -6.56397771 10.2966618 -7 13 C-7.66 13 -8.32 13 -9 13 C-9.33 14.32 -9.66 15.64 -10 17 C-5.57673622 15.64844718 -3.59587018 13.80109562 -1 10 C0.33333333 7 0.33333333 7 -1 4 C-3.31 3.67 -5.62 3.34 -8 3 Z M14 15 C13.34 16.98 12.68 18.96 12 21 C12.99 20.01 13.98 19.02 15 18 C14.67 17.01 14.34 16.02 14 15 Z M22 16 C21.34 16.66 20.68 17.32 20 18 C20 18.99 20 19.98 20 21 C19.34 21 18.68 21 18 21 C17.67 21.99 17.34 22.98 17 24 C18.99863756 23.42055068 18.99863756 23.42055068 21 22 C22.29231642 18.95800528 22.29231642 18.95800528 23 16 C22.67 16 22.34 16 22 16 Z M6 17 C5.67 18.32 5.34 19.64 5 21 C5.66 20.67 6.32 20.34 7 20 C6.67 19.01 6.34 18.02 6 17 Z " fill="#040404" transform="translate(201,324)"/>
<path d="M0 0 C2.31 0.66 4.62 1.32 7 2 C7.8125 3.6875 7.8125 3.6875 8 6 C5.5625 8.6875 5.5625 8.6875 3 11 C3 11.33 3 11.66 3 12 C3.66 11.67 4.32 11.34 5 11 C6.99960012 10.960008 9.00047242 10.95653201 11 11 C10.67 12.32 10.34 13.64 10 15 C9.01 14.67 8.02 14.34 7 14 C6.67 16.31 6.34 18.62 6 21 C6.66 21.33 7.32 21.66 8 22 C8 22.99 8 23.98 8 25 C6.515 24.7525 6.515 24.7525 5 24.5 C2.18043275 24.07018792 -0.40547919 24.0347387 -3.25 24.1875 C-7 24 -7 24 -9.0625 22.3125 C-10.27501877 19.32162038 -10.13059495 18.01491986 -9 15 C-8.360625 14.38125 -7.72125 13.7625 -7.0625 13.125 C-4.36423457 10.34496895 -3.99164239 7.70213161 -3 4 C-1.375 1.5625 -1.375 1.5625 0 0 Z M1 4 C1 4.99 1 5.98 1 7 C1.66 7 2.32 7 3 7 C3.33 6.01 3.66 5.02 4 4 C3.01 4 2.02 4 1 4 Z M-4 15 C-4.6814823 16.89179203 -4.6814823 16.89179203 -5 19 C-4.34 19.66 -3.68 20.32 -3 21 C-2.01 20.67 -1.02 20.34 0 20 C-0.96885372 18.31503702 -1.96986723 16.64821244 -3 15 C-3.33 15 -3.66 15 -4 15 Z M3 15 C4 17 4 17 4 17 Z " fill="#050505" transform="translate(243,328)"/>
<path d="M0 0 C2.9375 0.1875 2.9375 0.1875 3.9375 1.1875 C4.39441383 6.44200902 4.39441383 6.44200902 2.75 9.125 C0.9375 10.1875 0.9375 10.1875 -1.625 10 C-4.0625 9.1875 -4.0625 9.1875 -6.0625 7.1875 C-5.60768667 2.63936665 -4.93056733 0.30187147 0 0 Z " fill="#030303" transform="translate(110.0625,258.8125)"/>
<path d="M0 0 C2.125 0.375 2.125 0.375 4 1 C3.25 5.75 3.25 5.75 1 8 C0.01 8 -0.98 8 -2 8 C-2.125 5.125 -2.125 5.125 -2 2 C-1.34 1.34 -0.68 0.68 0 0 Z " fill="#040404" transform="translate(168,346)"/>
<path d="M0 0 C0.9796875 0.10699219 1.959375 0.21398437 2.96875 0.32421875 C4.43828125 0.47310547 4.43828125 0.47310547 5.9375 0.625 C8.46875 1.01171875 8.46875 1.01171875 10.46875 2.01171875 C10.46875 2.67171875 10.46875 3.33171875 10.46875 4.01171875 C5.0298335 4.22927541 0.59794186 4.11600259 -4.53125 2.01171875 C-2.53125 0.01171875 -2.53125 0.01171875 0 0 Z " fill="#181818" transform="translate(403.53125,315.98828125)"/>
<path d="M0 0 C2.0625 0.4375 2.0625 0.4375 4 1 C3.6875 2.9375 3.6875 2.9375 3 5 C2.01 5.33 1.02 5.66 0 6 C-0.66 5.67 -1.32 5.34 -2 5 C-1.125 1.125 -1.125 1.125 0 0 Z " fill="#060605" transform="translate(309,331)"/>
<path d="M0 0 C0.33 0.66 0.66 1.32 1 2 C0.34 1.67 -0.32 1.34 -1 1 C-0.67 0.67 -0.34 0.34 0 0 Z " fill="#0B0B0B" transform="translate(118,318)"/>
<path d="M0 0 C2 1 2 1 2 1 Z " fill="#161616" transform="translate(256,357)"/>
<path d="M0 0 C2 1 2 1 2 1 Z " fill="#090909" transform="translate(252,352)"/>
<path d="M0 0 C2 1 2 1 2 1 Z " fill="#060606" transform="translate(130,352)"/>
<path d="" fill="#0C0C0C" transform="translate(0,0)"/>
<path d="M0 0 C2 1 2 1 2 1 Z " fill="#060606" transform="translate(299,344)"/>
<path d="M0 0 C2 1 2 1 2 1 Z " fill="#131313" transform="translate(378,328)"/>
<path d="M0 0 C2 1 2 1 2 1 Z " fill="#0E0E0E" transform="translate(94,327)"/>
<path d="M0 0 C2 1 2 1 2 1 Z " fill="#1B1B1B" transform="translate(345,325)"/>
<path d="M0 0 C2 1 2 1 2 1 Z " fill="#131313" transform="translate(363,322)"/>
<path d="M0 0 C2 1 2 1 2 1 Z " fill="#080808" transform="translate(227,309)"/>
<path d="" fill="#0E0E0E" transform="translate(0,0)"/>
<path d="M0 0 C2 1 2 1 2 1 Z " fill="#131312" transform="translate(380,300)"/>
<path d="" fill="#060606" transform="translate(0,0)"/>
<path d="" fill="#121212" transform="translate(0,0)"/>
<path d="M0 0 C2 1 2 1 2 1 Z " fill="#121212" transform="translate(331,291)"/>
<path d="" fill="#040404" transform="translate(0,0)"/>
<path d="M0 0 C2 1 2 1 2 1 Z " fill="#0B0B0B" transform="translate(33,276)"/>
<path d="M0 0 C2 1 2 1 2 1 Z " fill="#111111" transform="translate(220,270)"/>
<path d="" fill="#0F0F0F" transform="translate(0,0)"/>
<path d="" fill="#040404" transform="translate(0,0)"/>
<path d="M0 0 C2 1 2 1 2 1 Z " fill="#0A0A0A" transform="translate(396,258)"/>
<path d="" fill="#0E0E0E" transform="translate(0,0)"/>
<path d="M0 0 C2 1 2 1 2 1 Z " fill="#090909" transform="translate(83,251)"/>
<path d="M0 0 C2 1 2 1 2 1 Z " fill="#0E0E0E" transform="translate(282,248)"/>
<path d="" fill="#090909" transform="translate(0,0)"/>
<path d="" fill="#151515" transform="translate(0,0)"/>
<path d="" fill="#161616" transform="translate(0,0)"/>
<path d="" fill="#0F0F0F" transform="translate(0,0)"/>
<path d="" fill="#0F0F0E" transform="translate(0,0)"/>
<path d="" fill="#161616" transform="translate(0,0)"/>
<path d="" fill="#161616" transform="translate(0,0)"/>
<path d="" fill="#131313" transform="translate(0,0)"/>
<path d="" fill="#131313" transform="translate(0,0)"/>
<path d="" fill="#0E0E0E" transform="translate(0,0)"/>
<path d="" fill="#121212" transform="translate(0,0)"/>
<path d="" fill="#121212" transform="translate(0,0)"/>
<path d="" fill="#050505" transform="translate(0,0)"/>
<path d="" fill="#050505" transform="translate(0,0)"/>
<path d="" fill="#212120" transform="translate(0,0)"/>
<path d="" fill="#131313" transform="translate(0,0)"/>
<path d="" fill="#101010" transform="translate(0,0)"/>
<path d="" fill="#171717" transform="translate(0,0)"/>
<path d="" fill="#1F1F1F" transform="translate(0,0)"/>
<path d="" fill="#151515" transform="translate(0,0)"/>
<path d="" fill="#121211" transform="translate(0,0)"/>
<path d="" fill="#101010" transform="translate(0,0)"/>
<path d="" fill="#0D0D0D" transform="translate(0,0)"/>
<path d="" fill="#131313" transform="translate(0,0)"/>
<path d="" fill="#0F0F0F" transform="translate(0,0)"/>
<path d="" fill="#212121" transform="translate(0,0)"/>
<path d="" fill="#1D1D1C" transform="translate(0,0)"/>
<path d="" fill="#040404" transform="translate(0,0)"/>
<path d="" fill="#010101" transform="translate(0,0)"/>
<path d="" fill="#1E1E1E" transform="translate(0,0)"/>
<path d="" fill="#121211" transform="translate(0,0)"/>
<path d="" fill="#0F0F0F" transform="translate(0,0)"/>
<path d="" fill="#161616" transform="translate(0,0)"/>
<path d="" fill="#050505" transform="translate(0,0)"/>
<path d="" fill="#242424" transform="translate(0,0)"/>
<path d="" fill="#050505" transform="translate(0,0)"/>
<path d="" fill="#151514" transform="translate(0,0)"/>
<path d="" fill="#131313" transform="translate(0,0)"/>
<path d="" fill="#131313" transform="translate(0,0)"/>
<path d="" fill="#060606" transform="translate(0,0)"/>
<path d="" fill="#0F0F0F" transform="translate(0,0)"/>
<path d="" fill="#060606" transform="translate(0,0)"/>
<path d="" fill="#111211" transform="translate(0,0)"/>
<path d="" fill="#141414" transform="translate(0,0)"/>
<path d="" fill="#080808" transform="translate(0,0)"/>
<path d="" fill="#020202" transform="translate(0,0)"/>
<path d="" fill="#121212" transform="translate(0,0)"/>
<path d="" fill="#111110" transform="translate(0,0)"/>
<path d="" fill="#020202" transform="translate(0,0)"/>
<path d="" fill="#0E0E0E" transform="translate(0,0)"/>
<path d="" fill="#0C0C0C" transform="translate(0,0)"/>
<path d="" fill="#0D0D0D" transform="translate(0,0)"/>
<path d="" fill="#060606" transform="translate(0,0)"/>
<path d="" fill="#040404" transform="translate(0,0)"/>
<path d="" fill="#272727" transform="translate(0,0)"/>
<path d="" fill="#0D0D0D" transform="translate(0,0)"/>
<path d="" fill="#0A0A0A" transform="translate(0,0)"/>
<path d="" fill="#141413" transform="translate(0,0)"/>
<path d="" fill="#0B0B0B" transform="translate(0,0)"/>
<path d="" fill="#050505" transform="translate(0,0)"/>
<path d="" fill="#131313" transform="translate(0,0)"/>
<path d="" fill="#131313" transform="translate(0,0)"/>
<path d="" fill="#020202" transform="translate(0,0)"/>
<path d="" fill="#060606" transform="translate(0,0)"/>
<path d="" fill="#222222" transform="translate(0,0)"/>
<path d="" fill="#1B1B1B" transform="translate(0,0)"/>
<path d="" fill="#040404" transform="translate(0,0)"/>
<path d="" fill="#0D0D0D" transform="translate(0,0)"/>
<path d="" fill="#181817" transform="translate(0,0)"/>
<path d="" fill="#121212" transform="translate(0,0)"/>
<path d="" fill="#131313" transform="translate(0,0)"/>
<path d="" fill="#111111" transform="translate(0,0)"/>
<path d="" fill="#070707" transform="translate(0,0)"/>
<path d="" fill="#131313" transform="translate(0,0)"/>
<path d="" fill="#262626" transform="translate(0,0)"/>
<path d="" fill="#131313" transform="translate(0,0)"/>
<path d="" fill="#131313" transform="translate(0,0)"/>
<path d="" fill="#090909" transform="translate(0,0)"/>
<path d="" fill="#111111" transform="translate(0,0)"/>
<path d="" fill="#090909" transform="translate(0,0)"/>
<path d="" fill="#050505" transform="translate(0,0)"/>
<path d="" fill="#131312" transform="translate(0,0)"/>
<path d="" fill="#131313" transform="translate(0,0)"/>
<path d="" fill="#030303" transform="translate(0,0)"/>
<path d="" fill="#121212" transform="translate(0,0)"/>
<path d="" fill="#090909" transform="translate(0,0)"/>
<path d="" fill="#0D0D0D" transform="translate(0,0)"/>
<path d="" fill="#111111" transform="translate(0,0)"/>
<path d="" fill="#111111" transform="translate(0,0)"/>
<path d="" fill="#161616" transform="translate(0,0)"/>
<path d="" fill="#292929" transform="translate(0,0)"/>
<path d="" fill="#262626" transform="translate(0,0)"/>
<path d="" fill="#070707" transform="translate(0,0)"/>
<path d="" fill="#191919" transform="translate(0,0)"/>
<path d="" fill="#1B1B1B" transform="translate(0,0)"/>
<path d="" fill="#070707" transform="translate(0,0)"/>
<path d="" fill="#050505" transform="translate(0,0)"/>
<path d="" fill="#111111" transform="translate(0,0)"/>
<path d="" fill="#222222" transform="translate(0,0)"/>
<path d="" fill="#131313" transform="translate(0,0)"/>
<path d="" fill="#0A0A0A" transform="translate(0,0)"/>
<path d="" fill="#131313" transform="translate(0,0)"/>
<path d="" fill="#1B1B1B" transform="translate(0,0)"/>
<path d="" fill="#080808" transform="translate(0,0)"/>
<path d="" fill="#0B0B0B" transform="translate(0,0)"/>
<path d="" fill="#111111" transform="translate(0,0)"/>
<path d="" fill="#111111" transform="translate(0,0)"/>
<path d="" fill="#101010" transform="translate(0,0)"/>
<path d="" fill="#0B0B0B" transform="translate(0,0)"/>
<path d="" fill="#131313" transform="translate(0,0)"/>
<path d="" fill="#131313" transform="translate(0,0)"/>
<path d="" fill="#111111" transform="translate(0,0)"/>
<path d="" fill="#080808" transform="translate(0,0)"/>
<path d="" fill="#121212" transform="translate(0,0)"/>
<path d="" fill="#101010" transform="translate(0,0)"/>
<path d="" fill="#060606" transform="translate(0,0)"/>
<path d="" fill="#030303" transform="translate(0,0)"/>
<path d="" fill="#212121" transform="translate(0,0)"/>
<path d="" fill="#151515" transform="translate(0,0)"/>
<path d="" fill="#121212" transform="translate(0,0)"/>
<path d="" fill="#121212" transform="translate(0,0)"/>
<path d="" fill="#111111" transform="translate(0,0)"/>
<path d="" fill="#101010" transform="translate(0,0)"/>
<path d="" fill="#10100F" transform="translate(0,0)"/>
<path d="" fill="#0E0E0E" transform="translate(0,0)"/>
<path d="" fill="#050505" transform="translate(0,0)"/>
<path d="" fill="#121212" transform="translate(0,0)"/>
<path d="" fill="#050505" transform="translate(0,0)"/>
<path d="" fill="#040404" transform="translate(0,0)"/>
<path d="" fill="#111111" transform="translate(0,0)"/>
<path d="" fill="#191919" transform="translate(0,0)"/>
<path d="" fill="#272726" transform="translate(0,0)"/>
<path d="" fill="#111111" transform="translate(0,0)"/>
<path d="" fill="#252525" transform="translate(0,0)"/>
<path d="" fill="#0B0B0B" transform="translate(0,0)"/>
<path d="" fill="#191919" transform="translate(0,0)"/>
<path d="" fill="#0B0B0B" transform="translate(0,0)"/>
<path d="" fill="#121212" transform="translate(0,0)"/>
<path d="" fill="#121212" transform="translate(0,0)"/>
<path d="" fill="#0E0E0E" transform="translate(0,0)"/>
<path d="" fill="#1E1E1E" transform="translate(0,0)"/>
<path d="" fill="#0E0E0E" transform="translate(0,0)"/>
<path d="" fill="#121212" transform="translate(0,0)"/>
<path d="" fill="#141414" transform="translate(0,0)"/>
<path d="" fill="#232323" transform="translate(0,0)"/>
<path d="" fill="#171717" transform="translate(0,0)"/>
<path d="" fill="#111111" transform="translate(0,0)"/>
<path d="" fill="#121212" transform="translate(0,0)"/>
<path d="" fill="#171717" transform="translate(0,0)"/>
<path d="" fill="#0E0E0E" transform="translate(0,0)"/>
<path d="" fill="#111111" transform="translate(0,0)"/>
<path d="" fill="#121212" transform="translate(0,0)"/>
<path d="" fill="#1C1C1C" transform="translate(0,0)"/>
<path d="" fill="#0F0F0F" transform="translate(0,0)"/>
<path d="" fill="#121212" transform="translate(0,0)"/>
<path d="" fill="#050505" transform="translate(0,0)"/>
<path d="" fill="#0F0F0F" transform="translate(0,0)"/>
<path d="" fill="#0D0D0D" transform="translate(0,0)"/>
<path d="" fill="#121212" transform="translate(0,0)"/>
<path d="" fill="#121212" transform="translate(0,0)"/>
<path d="" fill="#111111" transform="translate(0,0)"/>
<path d="" fill="#090909" transform="translate(0,0)"/>
<path d="" fill="#161616" transform="translate(0,0)"/>
<path d="" fill="#050505" transform="translate(0,0)"/>
<path d="" fill="#121212" transform="translate(0,0)"/>
<path d="" fill="#121212" transform="translate(0,0)"/>
<path d="" fill="#121212" transform="translate(0,0)"/>
<path d="" fill="#080808" transform="translate(0,0)"/>
<path d="" fill="#121212" transform="translate(0,0)"/>
<path d="" fill="#0E0E0E" transform="translate(0,0)"/>
<path d="" fill="#161616" transform="translate(0,0)"/>
<path d="" fill="#111111" transform="translate(0,0)"/>
<path d="" fill="#202020" transform="translate(0,0)"/>
<path d="" fill="#0F0F0F" transform="translate(0,0)"/>
<path d="" fill="#050504" transform="translate(0,0)"/>
<path d="" fill="#020202" transform="translate(0,0)"/>
<path d="" fill="#090909" transform="translate(0,0)"/>
<path d="" fill="#262625" transform="translate(0,0)"/>
<path d="" fill="#030304" transform="translate(0,0)"/>
<path d="" fill="#0A0A0A" transform="translate(0,0)"/>
<path d="" fill="#030303" transform="translate(0,0)"/>
<path d="" fill="#121212" transform="translate(0,0)"/>
<path d="" fill="#0F0F0F" transform="translate(0,0)"/>
<path d="" fill="#020202" transform="translate(0,0)"/>
<path d="" fill="#070706" transform="translate(0,0)"/>
<path d="" fill="#020202" transform="translate(0,0)"/>
<path d="" fill="#000000" transform="translate(0,0)"/>
<path d="" fill="#010101" transform="translate(0,0)"/>
<path d="" fill="#0D0D0D" transform="translate(0,0)"/>
<path d="" fill="#030303" transform="translate(0,0)"/>
<path d="" fill="#0B0B0B" transform="translate(0,0)"/>
<path d="" fill="#040404" transform="translate(0,0)"/>
<path d="" fill="#020202" transform="translate(0,0)"/>
<path d="" fill="#070707" transform="translate(0,0)"/>
<path d="" fill="#101010" transform="translate(0,0)"/>
<path d="" fill="#101010" transform="translate(0,0)"/>
<path d="" fill="#080808" transform="translate(0,0)"/>
<path d="" fill="#272727" transform="translate(0,0)"/>
<path d="" fill="#0E0E0E" transform="translate(0,0)"/>
<path d="" fill="#141414" transform="translate(0,0)"/>
<path d="" fill="#121212" transform="translate(0,0)"/>
<path d="" fill="#060606" transform="translate(0,0)"/>
<path d="" fill="#101010" transform="translate(0,0)"/>
<path d="" fill="#121212" transform="translate(0,0)"/>
<path d="" fill="#070707" transform="translate(0,0)"/>
<path d="" fill="#121212" transform="translate(0,0)"/>
<path d="" fill="#070707" transform="translate(0,0)"/>
<path d="" fill="#121212" transform="translate(0,0)"/>
<path d="" fill="#121212" transform="translate(0,0)"/>
<path d="" fill="#0F0F0F" transform="translate(0,0)"/>
<path d="" fill="#050505" transform="translate(0,0)"/>
<path d="" fill="#131313" transform="translate(0,0)"/>
<path d="" fill="#070707" transform="translate(0,0)"/>
<path d="" fill="#030303" transform="translate(0,0)"/>
<path d="" fill="#090909" transform="translate(0,0)"/>
<path d="" fill="#050505" transform="translate(0,0)"/>
<path d="" fill="#0C0C0C" transform="translate(0,0)"/>
<path d="" fill="#0D0D0D" transform="translate(0,0)"/>
<path d="" fill="#111110" transform="translate(0,0)"/>
<path d="" fill="#040404" transform="translate(0,0)"/>
<path d="" fill="#020202" transform="translate(0,0)"/>
<path d="" fill="#0C0C0C" transform="translate(0,0)"/>
<path d="" fill="#090909" transform="translate(0,0)"/>
<path d="" fill="#0F0F0F" transform="translate(0,0)"/>
<path d="" fill="#090909" transform="translate(0,0)"/>
<path d="" fill="#121212" transform="translate(0,0)"/>
<path d="" fill="#111111" transform="translate(0,0)"/>
<path d="" fill="#0C0C0C" transform="translate(0,0)"/>
<path d="" fill="#101010" transform="translate(0,0)"/>
<path d="" fill="#070708" transform="translate(0,0)"/>
<path d="" fill="#0F0F0F" transform="translate(0,0)"/>
<path d="" fill="#0E0E0E" transform="translate(0,0)"/>
<path d="" fill="#050505" transform="translate(0,0)"/>
<path d="" fill="#050505" transform="translate(0,0)"/>
<path d="" fill="#0D0D0D" transform="translate(0,0)"/>
<path d="" fill="#0B0B0B" transform="translate(0,0)"/>
<path d="" fill="#070707" transform="translate(0,0)"/>
<path d="" fill="#090909" transform="translate(0,0)"/>
<path d="" fill="#070707" transform="translate(0,0)"/>
<path d="" fill="#111111" transform="translate(0,0)"/>
<path d="" fill="#0E0E0E" transform="translate(0,0)"/>
<path d="" fill="#030303" transform="translate(0,0)"/>
<path d="" fill="#060606" transform="translate(0,0)"/>
<path d="" fill="#101010" transform="translate(0,0)"/>
<path d="" fill="#030303" transform="translate(0,0)"/>
<path d="" fill="#0C0C0C" transform="translate(0,0)"/>
<path d="" fill="#0F0F0F" transform="translate(0,0)"/>
<path d="" fill="#0B0B0B" transform="translate(0,0)"/>
<path d="" fill="#1B1B1B" transform="translate(0,0)"/>
<path d="" fill="#111111" transform="translate(0,0)"/>
<path d="" fill="#101010" transform="translate(0,0)"/>
<path d="" fill="#000000" transform="translate(0,0)"/>
<path d="" fill="#0B0B0B" transform="translate(0,0)"/>
<path d="" fill="#191919" transform="translate(0,0)"/>
<path d="" fill="#050505" transform="translate(0,0)"/>
<path d="" fill="#090909" transform="translate(0,0)"/>
<path d="" fill="#0C0C0C" transform="translate(0,0)"/>
<path d="" fill="#090909" transform="translate(0,0)"/>
<path d="" fill="#040404" transform="translate(0,0)"/>
<path d="" fill="#181818" transform="translate(0,0)"/>
<path d="" fill="#030302" transform="translate(0,0)"/>
<path d="" fill="#0A0A0A" transform="translate(0,0)"/>
<path d="" fill="#0C0C0C" transform="translate(0,0)"/>
<path d="" fill="#060606" transform="translate(0,0)"/>
<path d="" fill="#060606" transform="translate(0,0)"/>
<path d="" fill="#030303" transform="translate(0,0)"/>
<path d="" fill="#0B0B0B" transform="translate(0,0)"/>
<path d="" fill="#101010" transform="translate(0,0)"/>
<path d="" fill="#0A0A0A" transform="translate(0,0)"/>
<path d="" fill="#0C0C0C" transform="translate(0,0)"/>
<path d="" fill="#040404" transform="translate(0,0)"/>
<path d="" fill="#020202" transform="translate(0,0)"/>
<path d="" fill="#0A0A0A" transform="translate(0,0)"/>
<path d="" fill="#101010" transform="translate(0,0)"/>
<path d="" fill="#101010" transform="translate(0,0)"/>
<path d="" fill="#040404" transform="translate(0,0)"/>
<path d="" fill="#0F0F0F" transform="translate(0,0)"/>
<path d="" fill="#010101" transform="translate(0,0)"/>
<path d="" fill="#0C0C0C" transform="translate(0,0)"/>
<path d="" fill="#020202" transform="translate(0,0)"/>
<path d="" fill="#101010" transform="translate(0,0)"/>
<path d="" fill="#020202" transform="translate(0,0)"/>
<path d="" fill="#020202" transform="translate(0,0)"/>
<path d="" fill="#0B0B0B" transform="translate(0,0)"/>
<path d="" fill="#030303" transform="translate(0,0)"/>
<path d="" fill="#0A0A0A" transform="translate(0,0)"/>
<path d="" fill="#101010" transform="translate(0,0)"/>
<path d="" fill="#0F0F0F" transform="translate(0,0)"/>
<path d="" fill="#030303" transform="translate(0,0)"/>
<path d="" fill="#0C0C0C" transform="translate(0,0)"/>
<path d="" fill="#111111" transform="translate(0,0)"/>
<path d="" fill="#0D0D0D" transform="translate(0,0)"/>
<path d="" fill="#0D0D0D" transform="translate(0,0)"/>
<path d="" fill="#0F0F0F" transform="translate(0,0)"/>
<path d="" fill="#050505" transform="translate(0,0)"/>
<path d="" fill="#030303" transform="translate(0,0)"/>
<path d="" fill="#141414" transform="translate(0,0)"/>
<path d="" fill="#030303" transform="translate(0,0)"/>
<path d="" fill="#080808" transform="translate(0,0)"/>
<path d="" fill="#0B0C0B" transform="translate(0,0)"/>
<path d="" fill="#030303" transform="translate(0,0)"/>
<path d="" fill="#070707" transform="translate(0,0)"/>
<path d="" fill="#070707" transform="translate(0,0)"/>
<path d="" fill="#0C0C0C" transform="translate(0,0)"/>
<path d="" fill="#0C0C0C" transform="translate(0,0)"/>
<path d="" fill="#0E0E0E" transform="translate(0,0)"/>
<path d="" fill="#060606" transform="translate(0,0)"/>
<path d="" fill="#0A0A0A" transform="translate(0,0)"/>
<path d="" fill="#111111" transform="translate(0,0)"/>
<path d="" fill="#0E0E0E" transform="translate(0,0)"/>
<path d="" fill="#0D0D0D" transform="translate(0,0)"/>
<path d="" fill="#070707" transform="translate(0,0)"/>
<path d="" fill="#0B0B0B" transform="translate(0,0)"/>
<path d="" fill="#101010" transform="translate(0,0)"/>
<path d="" fill="#131313" transform="translate(0,0)"/>
<path d="" fill="#101010" transform="translate(0,0)"/>
<path d="" fill="#101010" transform="translate(0,0)"/>
<path d="" fill="#0D0D0D" transform="translate(0,0)"/>
<path d="" fill="#080808" transform="translate(0,0)"/>
<path d="" fill="#0E0E0E" transform="translate(0,0)"/>
<path d="" fill="#0D0D0D" transform="translate(0,0)"/>
<path d="" fill="#1B1B1B" transform="translate(0,0)"/>
<path d="" fill="#0C0C0C" transform="translate(0,0)"/>
<path d="" fill="#0C0C0C" transform="translate(0,0)"/>
<path d="" fill="#070707" transform="translate(0,0)"/>
<path d="" fill="#080808" transform="translate(0,0)"/>
<path d="" fill="#000000" transform="translate(0,0)"/>
<path d="" fill="#0D0D0D" transform="translate(0,0)"/>
<path d="" fill="#0C0C0C" transform="translate(0,0)"/>
<path d="" fill="#0E0E0E" transform="translate(0,0)"/>
<path d="" fill="#020202" transform="translate(0,0)"/>
<path d="" fill="#0B0B0B" transform="translate(0,0)"/>
<path d="" fill="#101010" transform="translate(0,0)"/>
<path d="" fill="#1A1A1A" transform="translate(0,0)"/>
<path d="" fill="#040404" transform="translate(0,0)"/>
<path d="" fill="#0A0A0A" transform="translate(0,0)"/>
<path d="" fill="#040404" transform="translate(0,0)"/>
<path d="" fill="#070707" transform="translate(0,0)"/>
<path d="" fill="#040404" transform="translate(0,0)"/>
<path d="" fill="#0E0E0E" transform="translate(0,0)"/>
<path d="" fill="#262626" transform="translate(0,0)"/>
<path d="" fill="#050505" transform="translate(0,0)"/>
<path d="" fill="#070706" transform="translate(0,0)"/>
<path d="" fill="#0D0D0D" transform="translate(0,0)"/>
<path d="" fill="#0D0D0D" transform="translate(0,0)"/>
<path d="" fill="#0E0E0E" transform="translate(0,0)"/>
<path d="" fill="#0D0D0D" transform="translate(0,0)"/>
<path d="" fill="#0C0C0C" transform="translate(0,0)"/>
<path d="" fill="#0D0D0D" transform="translate(0,0)"/>
<path d="" fill="#0D0D0D" transform="translate(0,0)"/>
<path d="" fill="#0E0E0E" transform="translate(0,0)"/>
<path d="" fill="#060606" transform="translate(0,0)"/>
<path d="" fill="#1E1E1E" transform="translate(0,0)"/>
<path d="" fill="#0E0E0E" transform="translate(0,0)"/>
<path d="" fill="#0D0D0D" transform="translate(0,0)"/>
<path d="" fill="#0D0D0D" transform="translate(0,0)"/>
<path d="" fill="#0D0D0D" transform="translate(0,0)"/>
</svg>
