<?xml version="1.0" encoding="UTF-8" standalone="no"?>
<!-- Generator: Adobe Illustrator 17.1.0, SVG Export Plug-In . SVG Version: 6.00 Build 0)  -->

<svg
   xmlns:dc="http://purl.org/dc/elements/1.1/"
   xmlns:cc="http://creativecommons.org/ns#"
   xmlns:rdf="http://www.w3.org/1999/02/22-rdf-syntax-ns#"
   xmlns:svg="http://www.w3.org/2000/svg"
   xmlns="http://www.w3.org/2000/svg"
   xmlns:sodipodi="http://sodipodi.sourceforge.net/DTD/sodipodi-0.dtd"
   xmlns:inkscape="http://www.inkscape.org/namespaces/inkscape"
   version="1.1"
   id="Capa_3"
   x="0px"
   y="0px"
   viewBox="0 0 566.9 425.2"
   enable-background="new 0 0 566.9 425.2"
   xml:space="preserve"
   inkscape:version="0.91 r13725"
   sodipodi:docname="Estrela Galiza.svg"><metadata
     id="metadata53"><rdf:RDF><cc:Work
         rdf:about=""><dc:format>image/svg+xml</dc:format><dc:type
           rdf:resource="http://purl.org/dc/dcmitype/StillImage" /></cc:Work></rdf:RDF></metadata><defs
     id="defs51" /><sodipodi:namedview
     pagecolor="#ffffff"
     bordercolor="#666666"
     borderopacity="1"
     objecttolerance="10"
     gridtolerance="10"
     guidetolerance="10"
     inkscape:pageopacity="0"
     inkscape:pageshadow="2"
     inkscape:window-width="1680"
     inkscape:window-height="988"
     id="namedview49"
     showgrid="false"
     showguides="true"
     inkscape:guide-bbox="true"
     inkscape:zoom="1.5698701"
     inkscape:cx="310.241"
     inkscape:cy="254.05719"
     inkscape:window-x="-8"
     inkscape:window-y="32"
     inkscape:window-maximized="1"
     inkscape:current-layer="g9" /><g
     id="g3"><path
       fill="#FF0000"
       d="M502.9,322.3c-48.9,46.8-129,77.3-219.4,77.3c-89.2,0-168.3-29.6-217.4-75.3"
       id="path5" /><path
       d="M73,324.9c-37-31.6-59.1-71.6-59.1-115.2c0-88,90.1-161.6,210.7-179.9l111.3-0.9c123.8,16.7,217.2,91.3,217.2,180.9   c0,43.4-21.9,83.3-58.6,114.8"
       id="path7" /><g
       id="g9"><g
         id="g11"
         transform="translate(16,0)"><path
           d="m 137.5,136.5 -4.9,-4.1 c -3,-2.5 -7.6,-1.5 -9.3,2 l -3.4,7 -11.6,13.2 0.1,0 c 3.7,-0.3 7.4,0.5 10.7,2.2 l 10.2,5.3 7.3,1.8 c 1.9,0.5 4,0.4 5.9,-0.2 l 1.4,-0.4 c 2.7,-0.8 4.9,-2.9 5.8,-5.6 l 1.8,-5.1 c 0.2,-0.7 0.8,-1.1 1.5,-1.1 l 0,0 c 1.1,-0.1 1.9,0.9 1.8,1.9 l -1.1,8.1 c -0.6,4.3 -2.1,8.3 -4.5,11.9 l -0.1,0.1 c -1.5,2.2 -3.6,4 -6,5.2 l -0.8,0.4 c -4.1,2 -8.7,3 -13.2,2.6 l -2.6,-0.2 c -3.7,-0.3 -7.2,-1.4 -10.4,-3.3 l -6.3,-3.8 c -5.5,-3.3 -12.3,-3.8 -18.2,-1.2 l -0.1,0 -3,5.3 c -0.3,0.5 -0.9,0.8 -1.5,0.8 l -0.1,0 c -1.1,0 -1.9,-0.9 -1.7,-2 l 0,-0.1 c 0.8,-4.9 2.7,-9.5 5.5,-13.6 l 1,-1.5 c 0.2,-0.3 0.5,-0.5 0.8,-0.7 l 0.1,-0.1 c 6,-3.5 10,-9.5 11.1,-16.3 l 0,-0.1 -6.9,-20.6 c -1.3,-3.8 -1.6,-7.8 -0.9,-11.7 l 0,-0.1 0.9,-2.2 c 1.8,-4.4 4.7,-8.3 8.3,-11.5 l 17.5,-15.2 6.5,5.6 c 3.7,3.2 9,3.7 13.2,1.2 l 4.9,-2.9 c 0.9,-0.5 2.1,-0.4 2.9,0.3 l 0,0 c 0.9,0.8 1.1,2.1 0.4,3.2 l -0.8,1.3 c -4.6,7 -12.1,11.5 -20.5,12.1 l -3.8,-0.1 c -4.2,-0.1 -8.3,-1.6 -11.5,-4.3 l -3,-2.5 0,0.1 c -0.5,3.5 0.1,7 1.7,10.2 l 4.7,9.5 c 2.2,4.3 3.1,9.2 2.7,14 l 0,0.2 3.2,0 0,-0.1 c -0.7,-5 1.6,-10 5.9,-12.7 l 0.1,-0.1 c 2.7,-1.7 5.8,-2.6 9,-2.7 l 0.1,0 c 1.9,0 3.7,0.5 5.3,1.6 l 4.7,3.3 -10.8,15.7 z"
           id="path13"
           inkscape:connector-curvature="0"
           style="fill:#fdfffc" /><path
           d="m 155.7,174.9 c 5.6,-2.9 4.6,-11.7 17.6,-13.2 15.3,-1.7 17.5,25 17.3,-0.9 -0.2,-15 -18,-15.3 -23.1,-4.7 -0.9,2 -10.3,-8.1 -12.1,-15.8 -3.4,-14.8 23.3,-30.2 23.3,-30.2 6.5,0 6.2,11 20,5.3 l 3.2,0 c -1,7.5 -11.7,13.5 -17.7,13.5 -6.9,0 -14.7,-12.3 -14.6,-7.5 0.5,17 4.3,19.7 13.1,20.1 6.1,0.3 10.9,-7.2 10.9,-7.2 14.4,11.6 12,20.6 11.1,24.9 -1.9,8.7 -23.4,22.6 -23.4,22.6 -21.1,-14.9 -20.4,-0.9 -24.9,-3.6 l -0.7,-3.3 z"
           id="path15"
           inkscape:connector-curvature="0"
           style="fill:#fdfffc" /><path
           d="m 233.5,87.2 0,29.4 13.3,0 0,9 -13.3,0 0,35.2 c 0,0 0.6,5.7 6.4,5.4 4.1,-0.2 4.4,-3.4 7.4,-3.5 l 0,4.1 -18.1,15 -6.6,-6.3 c -3,-2.8 -6.8,-4.6 -10.9,-5.1 l -0.1,0 -0.1,-2.1 c 0,0 6.4,0.7 6.4,-7 l 0,-35.6 -10,0 0,-6.4 0.1,0 c 8.3,-1.9 14.8,-8.4 16.6,-16.7 l 3.2,-15.3 5.7,0 z"
           id="path17"
           inkscape:connector-curvature="0"
           style="fill:#fdfffc" /><path
           d="m 259,133.8 c 0,-1.6 0,-3.2 0,-4.8 -0.1,-4.7 -5.3,-8.2 -9.8,-2.7 -0.4,0.5 0.1,-3.3 0,-4.1 l 13.5,-14 0.9,0.5 c 5.6,2.9 9.8,8 11.6,14 l 0,0.1 0.7,0 c 1.3,-5.5 4.8,-12.4 12.1,-14.6 0,0 9.2,13.6 10.6,13.8 l -11.9,11.4 c -1.6,-0.3 -6.8,-11 -8.5,-9.7 -4.4,3.2 -4.2,18.1 -4.2,20.1 l -0.2,14.5 c 0,1.5 0.6,2.9 1.6,3.9 l 2.3,2.2 c 1.6,2 4.6,2.3 6.6,0.7 l 8.3,-6.8 -0.2,5.3 -18.8,18.3 -3.1,-2.9 c -5.2,-4.8 -11.4,-8.4 -18.1,-10.7 l -0.1,0 0.3,-0.1 c 3.2,-1.6 5.6,-4.5 6.4,-7.9 l 0,-0.1 0,-26.4 z"
           id="path19"
           inkscape:connector-curvature="0"
           style="fill:#fdfffc" /><path
           d="m 318.4,153.8 c 0,0 1.6,9.9 10.2,11.9 8.2,1.9 13.6,-5.1 18,-7 l 2.8,3.1 c -4.1,1.9 -25,20.1 -25,20.1 -18.4,-6.8 -24.6,-17.5 -24.6,-37.2 0,-19.7 10.2,-26.7 31.5,-34.9 l 16.6,26.1 -29.5,17.9 z m 12.2,-13.7 c -0.1,-1.4 -11.2,-20.9 -11.2,-20.9 -3.6,0 -1.5,20.8 -2.5,29 l 13.7,-8.1 z"
           id="path21"
           inkscape:connector-curvature="0"
           style="fill:#fdfffc" /><path
           d="m 352.3,94.3 0,-2.8 2.9,1.3 c 6.2,2.8 13.4,1.4 18.2,-3.4 l 0.1,-0.1 1.2,2 0,70.9 1.2,2.4 c 1.3,2.6 4.8,3.1 6.8,0.9 l 0.7,-0.8 2.2,1.8 -16.6,15.2 -0.1,-0.1 c -4.5,-5 -10.1,-8.9 -16.4,-11.2 l -0.1,0 0.8,-0.4 c 2.7,-1.3 4.9,-3.5 6.3,-6.1 l 0,0 0,-51.5 c 0,-3 -0.3,-5.9 -1,-8.8 l -0.1,-0.4 c -0.9,-3.5 -3.1,-6.7 -6.1,-8.9 l 0,0 z"
           id="path23"
           inkscape:connector-curvature="0"
           style="fill:#fdfffc" /><path
           d="m 433.3,181.9 -1.3,-0.7 c -5,-2.7 -8,-8 -7.7,-13.7 l 0,-0.1 -1.9,-0.2 c -3.6,5.1 -18,14.7 -18,14.7 -15.6,-8.4 -14,-24 -14,-33.5 0,-8.2 0.4,-14.6 5.1,-20.9 3.9,-5.3 13.7,-8.6 23.2,-16.6 1,-0.8 1.5,0.1 2.8,-0.4 l 18.8,11.4 0,41.7 c 0.2,12.7 8.3,-0.1 7.8,6.8 l -2.6,1.5 c -2.8,1.6 -5.5,3.6 -7.8,5.9 l -4.4,4.1 z m -9.7,-52.4 c -15.4,-2.9 -15.3,-25 -15.4,25.3 0,7.7 0.4,12.9 5.1,13.5 3.5,0.4 5.4,-0.4 10,-4.5 1.3,-1.1 0.3,-34.3 0.3,-34.3 z"
           id="path25"
           inkscape:connector-curvature="0"
           style="fill:#fdfffc" /></g><g
         id="g29"
         transform="translate(10,0)"><path
           d="m 257.4,197.9 0,-2.8 2.9,1.3 c 6.2,2.8 13.4,1.4 18.2,-3.4 l 0.1,-0.1 1.2,2 0,70.9 1.2,2.4 c 1.3,2.6 4.8,3.1 6.8,0.9 l 0.7,-0.8 2.2,1.8 -16.7,15.4 -0.1,-0.1 c -4.5,-5 -10.1,-8.9 -16.4,-11.2 l -0.1,0 0.8,-0.4 c 2.7,-1.3 4.9,-3.5 6.3,-6.1 l 0,0 0,-51.5 c 0,-3 -0.3,-5.9 -1,-8.8 l -0.1,-0.4 c -0.8,-3.7 -2.9,-6.9 -6,-9.1 l 0,0 z"
           id="path31"
           inkscape:connector-curvature="0"
           style="fill:#fdfffc" /><path
           d="m 424.1,285.5 -1.3,-0.7 c -5,-2.7 -8,-8 -7.7,-13.7 l 0,-0.1 -1.9,-0.2 c -3.6,5.1 -18,14.7 -18,14.7 -15.6,-8.4 -14,-24 -14,-33.5 0,-8.2 0.4,-14.6 5.1,-20.9 3.9,-5.3 13.7,-8.6 23.2,-16.6 1,-0.8 1.5,0.1 2.8,-0.4 l 18.8,11.4 0,41.7 c 0.2,12.7 8.3,-0.1 7.8,6.8 l -2.6,1.5 c -2.8,1.6 -5.5,3.6 -7.8,5.9 l -4.4,4.1 z m -9.7,-52.4 c -15.4,-2.9 -15.3,-25 -15.4,25.3 0,7.7 0.4,12.9 5.1,13.5 3.5,0.4 5.4,-0.4 10,-4.5 1.3,-1.1 0.3,-34.3 0.3,-34.3 z"
           id="path33"
           inkscape:connector-curvature="0"
           style="fill:#fdfffc" /><path
           d="m 236.9,285.5 -1.3,-0.7 c -5,-2.7 -8,-8 -7.7,-13.7 l 0,-0.1 -1.9,-0.2 c -3.6,5.1 -18,14.7 -18,14.7 -15.6,-8.4 -14,-24 -14,-33.5 0,-8.2 0.4,-14.6 5.1,-20.9 3.9,-5.3 13.7,-8.6 23.2,-16.6 1,-0.8 1.5,0.1 2.8,-0.4 l 18.8,11.4 0,41.7 c 0.2,12.7 8.3,-0.1 7.8,6.8 l -2.6,1.5 c -2.8,1.6 -5.5,3.6 -7.8,5.9 l -4.4,4.1 z m -9.7,-52.4 c -15.4,-2.9 -15.3,-25 -15.4,25.3 0,7.7 0.4,12.9 5.1,13.5 3.5,0.4 5.4,-0.4 10,-4.5 1.3,-1.1 0.3,-34.3 0.3,-34.3 z"
           id="path35"
           inkscape:connector-curvature="0"
           style="fill:#fdfffc" /><path
           d="m 185.5,268.2 c -3.8,8.3 -23,17.3 -33.9,17.3 -15.1,0 -26,-4.4 -33.7,-12.8 -7.6,-8.1 -11.7,-20.5 -11.7,-34.4 0,-22.6 8.5,-43.4 35,-49.2 21.7,-4.7 33.8,26 44.1,7.6 l 3.1,-0.2 c 1.8,12.5 -24,28.9 -36.6,17.2 -22.2,-20.5 -38.2,-4.8 -38.2,15.8 0,19.5 25.9,41.7 41.3,41.7 l 6.3,0.3 0,-18.9 -0.1,0 c -7.9,1.4 -15.7,-2.4 -19.5,-9.5 l -3.2,-5.9 0.1,0 c 5.8,1.3 11.9,0.8 17.3,-1.5 l 5.9,-3.1 c 1.8,-1 3.8,-1.6 5.8,-1.8 l 0,0 0.1,0 c 9.5,0.6 14.7,5.7 18.2,12.8 l 2.6,5.3 -1.6,1 -1,-1.6 c -1.9,-3 -5.9,-3.8 -8.9,-1.9 l -0.1,0 c -0.9,0.6 -1.4,1.5 -1.4,2.6 l 0,14.9 0.9,1.9 c 1.1,2.4 4.3,2.9 6.2,1 l 1.7,-1.8 1.3,3.2 z"
           id="path37"
           inkscape:connector-curvature="0"
           style="fill:#fdfffc" /><path
           d="m 315.6,194.1 c 0,4.9 -11.3,15.3 -11.3,15.3 0,0 -12.1,-10.2 -12,-15.1 -0.1,-5.2 6.9,-5.9 12.1,-5.9 5.3,-0.1 11.1,0.6 11.2,5.7 z m -8.1,91.4 -5.1,-3.7 c -3.4,-2.5 -5.4,-6.4 -5.3,-10.6 l 0,-0.1 0,-36.8 c 0,-0.4 -0.1,-0.9 -0.2,-1.3 l -0.6,-1.9 c -0.6,-1.9 -2.9,-2.8 -4.7,-1.9 l 0,0 -2.8,2.8 -2.6,-2.8 17.7,-16.4 9.5,8.4 0,40.3 0,3.2 c 0,3.3 3.2,5.6 6.3,4.6 l 0.1,0 2.3,-2.3 2.5,1.6 -17.1,16.9 z"
           id="path39"
           inkscape:connector-curvature="0"
           style="fill:#fdfffc" /><path
           inkscape:connector-curvature="0"
           style="fill:#fdfffc"
           d="m 376.09542,278.60001 c -5.6,-2.9 -4.6,-11.7 -17.59999,-13.2 -15.3,-1.7 -17.5,25 -17.3,-0.9 0.2,-15 18,-15.3 23.1,-4.7 0.9,2 10.29999,-8.1 12.09999,-15.8 3.4,-14.8 -23.29999,-30.2 -23.29999,-30.2 -6.5,0 -6.2,11 -20,5.3 l -3.2,0 c 1,7.5 11.7,13.5 17.7,13.5 6.9,0 14.7,-12.3 14.6,-7.5 -0.5,17 -4.3,19.7 -13.1,20.1 -6.1,0.3 -10.9,-7.2 -10.9,-7.2 -14.4,11.6 -12,20.6 -11.1,24.9 1.9,8.7 23.4,22.6 23.4,22.6 21.09999,-14.9 20.39999,-0.9 24.89999,-3.6 l 0.7,-3.3 z"
           id="path15-9" /></g></g><ellipse
       fill="none"
       stroke="#B77E25"
       stroke-width="11"
       stroke-miterlimit="10"
       cx="283.5"
       cy="212.6"
       rx="269.6"
       ry="187"
       id="ellipse45" /><ellipse
       fill="none"
       stroke="#FFD700"
       stroke-width="3"
       stroke-miterlimit="10"
       cx="283.5"
       cy="212.6"
       rx="269.6"
       ry="187"
       id="ellipse47" /></g></svg>