<?xml version="1.0" encoding="utf-8"?>
<!-- Generator: Adobe Illustrator 19.2.1, SVG Export Plug-In . SVG Version: 6.00 Build 0)  -->
<svg version="1.1" id="layer" xmlns="http://www.w3.org/2000/svg" xmlns:xlink="http://www.w3.org/1999/xlink" x="0px" y="0px"
	 viewBox="0 0 652 652" style="enable-background:new 0 0 652 652;" xml:space="preserve">
<style type="text/css">
	.st0{fill:#BDA46C;}
	.st1{fill:#FFFFFF;}
	.st2{fill:#31AD6D;}
	.st3{fill:#CE2F34;}
</style>
<g>
	<path class="st0" d="M320.1,71.6c-223.2,0-404.2,112-404.2,250.1c0,138,181,249.9,404.2,249.9c223.2,0,404.2-112,404.2-249.9
		C724.3,183.6,543.3,71.6,320.1,71.6"/>
	<path class="st1" d="M320.1,82.1c-55,0-107.2,7-154.7,19.4C21.6,139-73.8,225.7-73.8,321.7c0,95.9,95.4,182.5,239.2,220.1
		c47.5,12.4,99.8,19.3,154.7,19.3c55,0,107.2-7,154.7-19.3C618.7,504.2,714,417.5,714,321.7c0-96-95.4-182.6-239.2-220.2
		C427.3,89.1,375,82.1,320.1,82.1"/>
	<path d="M461.8,366.7c0.5,0.7,0.6,1.5,1,2.3c1.5,4,2.6,8.7,1.4,13.1c-0.3,1.3-1.2,2.4-2.2,3.6c-3.2,3.2-6.7,6.4-10.4,8.9
		c-0.9,0.5-2.3,0.7-3.2-0.1c-2.8-2.2-1.4-4.4-1.8-9.7c-0.4-5.4-0.9-10.5-3.7-14.8c-0.8-1.2-1.8-1.9-3.2-1.5c-3.6,1.6-4.1,5.8-5,9.1
		c-2.2,14.3-0.1,29.4,4.9,42c1.8,3.8,4.5,8.6,8.9,10.3c1.7,0.5,3.5,0.3,4.9-0.5c4.9-3.4,0.9-11.6,7.2-13.4c1.2-0.1,2.6,0.1,3.3,1.2
		c3.1,4.2,2.7,11,1.2,16c-2.2,7.4-6.8,15.8-14.7,18.5c-7.9,2.1-16.1-0.4-21.4-6.6c-7.1-7.9-9.3-18-10.2-28.5
		c-1.3-16.6,0.9-32.7,7.9-46.3c3.9-7.7,11.5-15.2,20.6-14.3C453.5,356.5,459,361,461.8,366.7L461.8,366.7z"/>
	<path d="M344.7,366.5c-2.8-4.1-6.7-9.4-11.7-10.1c-4.4-0.3-7.7,3.7-9.9,6.9v-42.8c0-1.7,0-3.6-0.8-5l-1-1.1c-4-2.6-7.9,0.8-11.1,3
		c-3.6,2.6-7.6,4.4-11.6,6.6c-1.3,1-2.4,2.5-2.2,4.5c0.3,2.4,2.6,2.8,4.4,3.4c2.6,1.6,3.2,6.5,3.2,8.5l0.1,104.6
		c0,1.3,0,2.2,0.5,3.3c0.4,1.1,1.5,1.5,2.6,1.5c4.4-0.8,4.2-5.7,6.3-8.6c0.9-1.1,1.9-2.1,3.4-1.8c0.6,0.2,1.1,0.7,1.4,1.3
		c0.9,2.1,1.5,4.5,3,6.5c3.1,4.5,8.2,6.4,13.5,5.3c9.8-1.7,16.5-12.3,18.8-21.2C359.7,409.4,355.6,385,344.7,366.5 M335.2,405.2
		c-0.3,8.1-0.6,15.5-2.3,23.2c-0.9,2.1-1.5,4.9-4,6.1c-0.7,0.1-1.3,0.1-1.5-0.4c-2.7-2.9-3.2-6.8-3.9-10.5
		c-1.8-13.8-1.8-29.1,1-42.4c0.8-3,1.5-6.2,3.1-8.9c0.6-0.7,1.3-1.5,2.1-1.1c1,0.4,1.7,1.2,1.9,2.3
		C335.2,383,335.3,394.3,335.2,405.2"/>
	<path d="M54.5,316.8c0.5,1.3,0.5,3-0.3,4.5c-1.7,2.3-5.2,2.3-5.8,5.7c-0.5,1.5-0.4,3.3-0.4,5v37.1l21.4-35.7c1-2,2.2-6.1,0.9-8.2
		c-1.3-1.6-3.9-1.6-4.9-3.8c-0.6-1.5-0.6-3.3,0.4-4.6c2.4-2.6,5.9-2.6,9.1-2.4l3.6,0.3h12.2c3.7-0.5,8.2-0.8,10.4,2.8
		c0.8,1.3,0.6,3-0.3,4.1c-2.3,2.9-6.4,2.4-9,4.5c-2.6,2-5.2,4.6-6.7,7.4l-8.8,15.5c-1.8,3.8-4,7.4-5.7,11.4c0.6,1.7,1.2,3.8,1.8,5.7
		L93,433.8c1.2,3.6,2.8,8.2,7.1,9c1.4,0.3,3,0,4-1.1c1.3-1.7,1.4-3.8,1.4-5.8l-0.1-56.9c-0.1-1.3-0.6-2.6-2.1-3.6
		c-1.7-0.9-4.1-1.1-5-3.2c0-1.6,0.3-2.9,1.4-4c2.4-2.1,5.5-3,8.1-4.9c4-2.1,7.6-5.4,11.9-6.9c1.2-0.3,3-0.3,4.1,0.8
		c1.3,1.2,1.4,3.1,1.4,4.8v12.3c1.5-3,2.7-6.5,4.5-9.4c2.8-4.8,7.5-9.8,13.5-9c2.2,0.4,4.1,1.6,4.6,4c0.8,3.3-0.8,6.4-0.9,9.7
		c-0.9,4.6-1.8,9.1-2.7,13.8c-0.3,1.2-1.2,2.6-2.6,3c-1.5,0.3-3-0.2-4-1.5c-1.5-2.1-0.5-6.9-4.4-6c-3.4,1.6-4.4,5.2-5.4,8.2
		c-1.6,5.7-2.5,11.6-2.6,17.6v33.1c-0.1,0.9,0,1.8,0.4,2.8c1.4,2.1,5.2,2.9,3.9,6.1c-1.2,3-4.8,2.8-7.6,2.8H85.9
		c-5.7,0-12,0.9-17.5-0.3c-1-0.4-2.3-1.1-2.7-2.3c-0.1-1.9-0.1-3.8,1.3-5c1.9-1.5,4.2-3.2,3.5-6l-13.7-53.5
		c-3.1,4.5-5.9,9.3-8.4,14.3c-0.3,0.3-0.4,0.7-0.4,1.3v38.7c0,1.3,0.5,2.5,1.8,3.3c1.7,0.9,4.4,1.8,4.6,4.2c0.1,1.7,0,3.3-1.4,4.2
		c-2.3,1.3-5,0.8-7.9,0.9c-7-0.8-14.4,0-21.5,0.3c-2.2-0.1-4.5-0.3-5.8-2.5c-0.9-1.5-0.5-3.8,0.8-5.3c1.5-1.5,3.6-1.7,5.3-2.6
		c2.1-1.5,1.4-4.4,1.8-6.8V328.8c0-1.3-0.5-3.7-1.9-4.1c-2.2-0.7-5.7-1.2-6.2-4.2c-0.4-2,0.1-4.1,1.9-5.2c2.1-1.1,4.2-1.1,6.6-1.1
		c7.7,0.4,15.3-0.1,22.8-0.3C51.1,314.1,53.3,314.5,54.5,316.8"/>
	<path d="M228.8,358.1c0.6,0.9,1,2.4,1,3.4v10.9c2.8-6.8,8.2-15.6,16.4-16c4.1-0.4,7.6,1.6,10.2,5c2.2,3.6,3.3,7.5,4.1,11.6
		c3.1-7.1,9.1-16.5,18-16.5c4.6-0.1,8.8,3.4,10.6,7.7c2.3,5.2,3.4,13.2,3.4,17.1l-0.1,51.1c0,2.9-0.3,6,0.5,8.9
		c0.6,1.1,3.2,2.3,3.2,4.2c-0.1,1.2-0.4,2.5-1.5,3.3c-3.1,1.7-6.7,0.7-10.2,0.8c-4.8-0.1-10.2,0.9-14.6-1.1
		c-1.3-0.8-1.4-2.4-1.2-3.8c0.1-2,2.2-2.3,3-3.8c0.5-1.7,0.6-3.3,0.6-5.4v-51.2c0-1.3-0.8-6-2.8-6.8c-1.4-0.4-3,0.1-4,1.1
		c-3.3,3.7-4.4,9.8-4.4,13.4l-0.1,45.1c0,2.4,0.9,5,3.1,6.1c1.2,0.5,1.2,2,0.8,3.2c-0.1,1.1-1,2.4-2.1,2.8c-1.7,0.7-4,0.7-5.9,0.5
		c-4.9-0.3-10.4,0.3-15.5,0c-1.4-0.3-2.8-0.8-3.6-2.1c-0.8-1.6-0.6-3.4,0.3-4c2.3-1.7,3.4-3.8,3.4-7v-35.6c0-7.2,0.6-14.8-1.4-21.6
		c-0.4-0.9-0.9-2.4-2.1-2.5c-2.3-0.5-3.9,1.6-4.9,3.2c-2.3,4.4-3.2,9.5-3.2,14.8v42.9c0,1.6,1.4,4.5,3.2,6.1c1.2,0.9,1,2.8,0.3,4
		c-1.2,2-3.7,2.3-5.4,2.3c-5.7-0.4-11.2-0.7-17-0.3c-1.4,0-3.5-0.7-4.5-2.4c-0.6-1.2-0.5-3,0.4-3.8c1.3-1.5,3-2.6,3.1-4.6l0.1-3.6
		v-53.4c0-1.6-0.4-5.3-2.4-6.6c-1.8-0.8-4.1-1.3-4.6-3.7c-0.4-2.2,0.9-3.8,2.7-5c5-2.4,9.8-5.1,14.4-8.1
		C222.2,356.6,226.6,354.8,228.8,358.1"/>
	<path d="M195.8,376.1c-3.1-7.4-9-15.9-16.9-18.8c-6.8-3-14.6-0.5-19.7,4.5c-8.4,8.5-11.6,19.2-13.8,30.3c-2.4,12-2.1,25.9,1.7,37.2
		c3,10.3,11.3,22.4,22.9,23.4c9,0.9,16.5-4.5,21.3-12C202.2,422.9,203.4,395.8,195.8,376.1 M182.5,427.2c-1,2-3.2,3.7-5.4,3.6
		c-5.9-1.1-8.9-7.4-10.9-12.3c-4.1-11.8-6.4-25.2-5.2-38.7c0.4-3.3,0.9-7.8,3.9-10.3c1.3-0.9,3.5-0.5,4.8,0.3c2.2,1.5,3.7,3.8,5,6.1
		c4.8,9.8,7.2,20.5,9,31.6C184.5,413.9,185.2,421.3,182.5,427.2"/>
	<path d="M491.7,313.7c0.5,1.1,0.8,2.3,0.8,3.6v52c3.6-6.8,10.4-14.6,18.9-13.1c8.9,2,11.5,11.9,12.5,19.9l0.5,6.2l0.1,54.9
		c0,2.1,1.8,4.2,3.9,5.2c1.5,0.7,2.1,2.7,1.5,4.2c-0.8,2.5-3.4,2.9-5.4,3c-6.3,0.1-12.4-0.3-18.4,0.1c-2-0.1-4.6,0-5.7-2
		c-0.5-1.6-0.9-4.2,0.3-5.2c1.9-1.6,3.9-3.8,3.9-6.4v-47.5c-0.4-4.5-0.6-9.3-2.6-13.2c-0.3-0.4-0.6-1.1-1.2-1.1
		c-2.2-0.1-4.4,0.9-5.4,3c-2.3,4-2.8,8.9-3,13.6v46.3c0,1.9,1.5,3.8,3.2,5c1.2,1.1,1.2,3.3,0.4,4.8c-1,2.3-3.5,2.6-5.7,2.6
		l-13.3-0.3c-4.2-0.1-10.3,1.7-12.2-3.3c-0.3-1.1-0.3-2.3,0.4-3.3c0.3-2.5,5.4-2.6,6.1-6.1c0.6-2.1,0.4-4.6,0.4-6.9l0.1-91.2
		c-0.4-3.3,0.1-6.9-2.7-8.7c-1.7-1.1-4.6-1.9-4.8-4.4c0.5-4.1,5.2-4.6,7.9-6.5c4.6-2,8.5-5.6,13.1-7.8
		C487.6,310.5,490.6,311.3,491.7,313.7"/>
	<path d="M633.2,359.1c1.5,3.3,0.3,7.3,0,10.9c-0.5,4.1-0.8,8.3-1.6,12.2c-0.4,1.1-1,2.5-2.2,2.9c-1.1,0.7-2.5,0.7-3.6,0
		c-2.2-1.9-1.2-5.4-4.1-6.6c-3-0.7-5.4,1.3-7.3,3.7c-4.4,6.6-6.2,14.4-6.6,22.8v32c0,1.1,0.8,3.1,2.3,4c1.7,0.7,4,1.9,4.1,4.1
		c0.1,1.5-0.5,2.9-1.8,3.6c-3.6,2-8,1.1-12.2,1.1c-4.2-0.1-9.1,0.1-13.6,0.1c-2.1-0.1-4.4-0.9-5.4-2.9c-0.4-1.1-0.5-2.6,0.1-3.7
		c1.8-2.5,5.5-2.8,6.2-6.1c0.7-1.8,0.7-3.6,0.7-5.7v-52.2c0-1.2-0.5-2.8-1.7-3.4c-2.1-0.8-4.8-1.3-5.5-3.7c-0.1-1.3,0.1-2.8,1.3-3.8
		c3-2.6,6.3-3.4,9.5-5.7c3.3-1.8,6.7-4.5,10.3-6.1c1.5-0.4,3.5-0.3,4.5,1.1c1.3,1.3,1.3,3.3,1.3,5v11.3h0.1
		c2.8-6.8,8.6-14.3,15.7-16.8C626.8,355.6,631.4,355.8,633.2,359.1"/>
	<path d="M579.1,393c0.9-8.7-0.4-16.9-3.6-24.2c-2.7-6.4-8.5-13-15.8-13.1c-5.3,0.3-9.7,2.8-13.5,6.6c-9.8,11.1-12.2,25.1-13.7,39.8
		c-0.6,15.1,0.5,30.5,9.1,42.1c5.7,6.8,13.9,9.8,22.3,7.4c8.9-2.8,13.4-12.3,14.8-20.8c0.3-4.4,0.7-9.3-2.7-12.2
		c-1-0.8-2.6-0.9-3.9-0.4c-1.5,0.9-2.1,2.8-2.2,4.2c-0.1,2.9-1.3,5.8-3.9,7c-3,2.5-6.1,0.1-8.1-2.1c-4-4.4-5.8-10.2-7.7-15.4
		l20.4-10.7C573.9,399.8,578.4,397.3,579.1,393 M560.4,389.1c-0.8,5.8-6.6,11.4-12,12.8c-1.4-8.5-1.3-18.3,0.5-26.3
		c0.6-2.1,1.5-5.6,3.9-6c2.7-0.1,4.4,2.9,5.3,4.9C560,378.9,560.9,383.9,560.4,389.1"/>
	<path d="M416,435.4c-1.3,0.1-2.8,0.3-4-0.3c-1.2-0.5-1.5-1.9-1.8-3v-47.4c-0.1-6.8-1.2-13.2-4.4-18.7c-5.4-10.2-17.9-11.4-27.8-8.3
		c-6.6,1.7-12.6,8.2-14.2,15c-1.3,4.8-0.4,9.7,3,13.1c2.7,2.6,7.2,2.8,10.6,1.7c3.5-1.2,5.5-5,5.7-8.5c-0.1-2.9-0.8-5.8-3.4-7.3
		c-0.3-0.3,0.1-0.9,0.5-1.2c1.5-0.9,4-0.9,5.8-0.1c2.4,1.1,4.4,4.5,4.4,6.5v13c-0.3,0-0.5,0.1-0.8,0.3
		c-11.9,2.3-23.7,12.2-27.4,24.1c-3,8.5-3.5,19.6,0.3,27.8c2.1,5.4,7.7,9.9,13.5,10.5c7.5,0.8,14.2-3.8,17.5-10.3
		c1,2.9,2.3,5.8,5,7.9c2.8,2.4,7.2,2.5,10.8,1.2c4.9-1.7,6.8-7,7.3-11.9C416.6,438.2,417.3,436.3,416,435.4 M384.7,436
		c-1.7,0.3-2.6-0.7-3.7-1.6c-3.6-4.9-2.7-11.9-1.9-17.6c1.3-6.2,4.9-13.1,11.3-15.4V426h0C389.8,430,389.1,434.6,384.7,436"/>
	<path d="M352.8,176.9c3.5,7.8,5.4,16.3,5.8,25.4h-76.1c1.1-16,6-30.7,18.2-41.7c8.2-7.7,21.1-10.6,31.4-5.7
		C341.3,158.8,348.7,168,352.8,176.9"/>
	<path d="M349.6,177.7c2.4,8.1,4.8,13.7,5.1,22.7h-67.3c0.9-16,6.8-30,14.8-38.5c7.8-8.1,19.9-8.9,30.6-4.8
		C339.3,159.6,346.7,167.6,349.6,177.7"/>
	<path d="M343.1,112.2c-0.3,0.9-1.6,1.8-0.5,2.9c0.7-0.8,1.2-1.6,2-2.3c1.6,0.7,3.3,1.4,4.8,2.1l-5.4,6.5c0.1,0.7-0.2,1.6,0,2.3
		l6.7-8.1c1.6,0.4,3.2,1.5,4.8,2v0.2l-18.6,23c0.3,0.2,0.8,0.6,1.1,0.7l15-18.5c1.3-1.6,2.5-3.2,3.8-4.7c1.5,0.7,3.2,1.4,4.9,1.9
		c0,0.3-0.6,0.9-0.8,1.1l-2.2,2.7l-14.9,18.5c-0.4,0.6-0.5,1.3-0.3,1.9c1.2,1.9,3.3,3.3,5.7,2.8c0.8-0.1,1.9-1,2.1-1.9
		c0.2-2.1-0.8-3.8-1.8-5.4c-0.1-0.9,0.2-1.6,0.8-2.3c1.5-1.6,4.1-2,6.1-1.4c1.2,0.6,2.3,1.1,3.4,2.1c2.1-4.1,6.5-5.3,10.7-5.2
		c9,1.2,16.1,9.5,19.9,17.3c3.5,6.8,4.9,17-0.1,23.4c-2.3,3-5.9,3.6-9.1,2.6c-1.6-0.7-3.3-1.1-4.7-2.4c-1.5,2-1.3,5.3-0.6,7.5
		c2,4.5,6.6,5.5,11.1,5.5c6.6,0,12.3-4.4,15.5-10.2c-0.6,13.1-4.5,25.4-8.7,37.4c-2.1,0-4.6-0.2-6.8,0.1c2.4-7.1,4.9-14.3,6.6-21.8
		c-0.7,0.1-1.4,0.4-2.1,0.7c-1.6,7.2-4,14.1-6.2,20.9c-1.6,0.2-3.5,0.2-5.1,0.6c2-6.9,4.3-13.6,5.7-20.8h-1.5
		c-1.5,6.9-3.4,13.7-5.8,20.4h-0.2c-0.9-1.4-2-2.8-3.2-4.1c1.8-5.5,3.2-11.3,4.2-17c-0.3-0.3-0.8-0.3-1.2-0.6
		c-1,5.7-2.5,11.3-3.8,16.7h-0.2c-0.9-1.1-2.3-2.1-3.4-3.3c1-5.5,2.1-10.8,2.3-16.5l-1.5-1.5c-0.3,0.4-0.1,1.1-0.2,1.6
		c-1.9,19.7-5.9,38.3-16.4,54.1c-3.5,5.2-8.5,10.4-13.7,13.5c-0.2-0.2-0.8-0.9-0.9-1.5c14.2-9.8,21.4-25.2,24-41.2
		c2.7-21.2-2.2-41.3-16.2-56.5c-5.6-6.1-12.7-9.1-19.7-12.6c-0.5-0.5-1.1-1-1.2-1.7c-0.3-2,1.3-3,2.4-4.5c6.2-6,10.4-14.2,7.7-22.8
		l-1.2-3l0.2-0.6l2.2-2.8C340.1,110.9,341.7,111.6,343.1,112.2"/>
	<path class="st0" d="M340.4,113c-0.1,0.2,0,0.5-0.1,0.6c0.4,1.7,0.9,3.5,1.4,5.3h0.2l3.1-3.6c0.4,0,1,0.3,1.4,0.6l-5.6,5.2
		c1.8,3.4,0.7,6.4,0.1,9.5c3.6-4.2,6.8-8.3,10.3-12.5c0.5,0.1,1,0.5,1.4,0.7l-6.9,8.4l-11.4,14.2c-0.1,0.1-0.2,0.2-0.2,0.3l4.3,2.4
		l16.7-20.4c1.2-0.7,2-4.4,3.8-2.4l-3.7,4.5l-15.2,19c3.8,2.8,7.7,6.6,12.8,6c1.4-0.6,2.8-2.1,3.1-3.7c0.4-1.4,0-2.8-0.8-3.9
		c-0.7-1-2.7-1-2.1-2.7c0.3-0.9,1.3-1.5,2.2-1.8c2.4-0.6,3.8,1.9,5.3,3.6h0.1c0.4-2.7,2.6-5.6,5.4-6.3c5.1-1.4,9.7,1.6,13.4,5.1
		c5.8,6.3,9.6,13.6,10.4,21.8c0,1.5,0,2.9-0.8,4.2c-3.3-2.9-8.2-3.2-12.1-1.2c-2.7,1.4-5,4.2-4.9,7.4c-0.3,5.3,1.4,11.1,6.4,14.1
		c4.8,2.9,12.2,2.8,17,0c1.9-1,3.7-2.3,5.2-3.9c-1.1,10.2-4.3,19.9-7.4,29.5h-3.1c2.5-7.3,4.9-14.9,6.5-22.5h-0.5l-5.3,1.8l-0.3,0.3
		c-1.4,7-3.8,13.6-6,20.4c-0.3,0.3-1,0-1.3,0.2c2.1-6.7,4.1-13.6,5.6-20.7c-1.8-0.1-3.5,0.2-5.4,0.1l-0.1,0.1
		c-1,6.4-3,12.4-4.9,18.3c-1.3-0.6-0.2-1.8-0.1-2.6c1.5-5.3,2.8-10.5,3.6-16c-1.5-0.6-3.1-1.4-4.7-1.8c-0.8,5.4-2.1,10.6-3.4,15.8
		c-0.2-0.2-0.4-0.2-0.7-0.6c1.2-5.3,1.8-10.9,2.3-16.5c-2-1.6-3.7-3.5-5-5.7l-0.2,0.1c-0.3,8.6-1.3,17.2-3.1,25.7
		c1-23-5.8-44.1-24.3-58.4c-3.4-2.7-7.3-4.2-10.8-6.1c-0.7-0.6-1.1-0.9-1-1.8c0.3-2.8,3.1-4.7,4.6-7c4.7-6,6.4-15,3-21.9l1-1.4
		L340.4,113z"/>
	<path d="M387.5,158.5c0.2,1.7,0.6,3.4,0.2,5.1c-0.2,0.5-0.7,0.6-1.2,0.5c-1.1-1.1-0.1-2.6-0.5-4.1c-0.7-4.6-2.4-8.8-4.2-12.8
		C384.7,150.4,386.2,154.3,387.5,158.5 M360.5,148.8c-1.7,1.2-3.1,3.3-4.5,4.8c-0.3,0.1-0.6-0.1-0.8-0.3c0-0.9,0.9-1.5,1.4-2.3
		C357.7,149.9,359,149,360.5,148.8 M364.1,150.8c-2.2,1.1-3.8,3.6-5.4,5.4c-0.3,0-0.7,0-0.8-0.3c-0.1-0.8,0.5-1.4,1-2
		C360.4,152.3,362.1,150.7,364.1,150.8 M367.7,152.6c-2.5,1.4-4.4,3.9-6.1,6.1c-0.2,0.2-0.5,0-0.8-0.3c-0.3-0.7,0.4-1.4,0.8-1.9
		C363.2,154.4,365.1,152.5,367.7,152.6"/>
	<path d="M361.4,163.8c1.6,2.3,3.4,4.4,4.9,6.8c3-5.3,8.2-10.2,14.7-9.3c1.4,0.3,2.8,0.6,3.8,1.8c-4.8-1.6-10.4,0.1-13.9,4.3
		c-3,3-3.2,7.4-3.3,11.5c-3.1-7.5-7.8-14.4-13.5-20.8c-1.4-1.6-3.1-3-4.2-4.7C354.5,155.2,358.2,159.8,361.4,163.8"/>
	<path d="M371.2,154.5c-2.6,1.6-4.9,4.3-6.7,6.8c-0.1,0.3-0.5,0.2-0.9,0.1c-1.1-1,0.7-1.9,0.9-2.7
		C366.2,156.3,368.4,154.5,371.2,154.5 M374.7,156.6c-1.6,1.2-3.6,2.5-5.1,4.2c-1,1.1-1.5,2.5-2.6,3.4c-0.3,0.1-0.6-0.2-0.9-0.3v-1
		C368,159.7,370.8,156.5,374.7,156.6 M377.6,217.8c0.3,1.5-0.8,2.6-1.3,3.8c-1.1,1.9-2,4.1-3,5.9c-1.9-1.6-4.1-3-5.4-5.1V221
		c1-3.5,2.3-7.1,3.1-10.8C373.4,212.7,376,215,377.6,217.8"/>
	<path class="st0" d="M375.9,218.2c-0.8,2.1-2.2,4.1-3.2,6.3c-1-0.8-2.2-1.7-2.8-2.9v-0.5c0.7-2.5,1.5-4.8,2.2-7.4
		C373.5,215.2,374.7,216.7,375.9,218.2"/>
	<path d="M392.8,217.3v0.1l-5.6,10.8c-1.1,1.2-2.4,0.5-3.8,0.6c-2.6-0.2-5.4-0.7-8.2-0.6v-0.1c1.8-3.4,3-7,5.3-10
		c1.2-1.1,3.2-0.7,4.8-0.9C387.8,217.1,390.3,217.3,392.8,217.3"/>
	<path class="st0" d="M390,219c-1.1,2.8-2.8,5.3-4.2,8c-2.6,0.2-5.3-0.5-7.8-0.5c1-2.5,2-4.8,3.5-7.1c0.9-0.3,2-0.2,3-0.5H390z"/>
	<path d="M371.3,230.2c0.1,1.5-0.8,2.5-1.2,3.7c-1.1,1.8-2.4,3.6-3.5,5.4c-0.6-0.3-0.9-0.9-1.2-1.4c-1-1.2-3-2.3-2.4-3.9
		c1.3-2.9,2.5-5.9,3.7-8.7C368.2,227,370.1,228.3,371.3,230.2"/>
	<path class="st0" d="M369.4,230.7c-0.7,1.9-2,3.7-3.1,5.6l-1.6-1.8l2.5-6C368.1,229.2,368.8,229.9,369.4,230.7"/>
	<path d="M384.7,232.1c-1.7,2.8-3.4,5.5-5.1,8.2c-0.4,0.6-1,1.1-1.8,1.2c-3.3-0.1-6.2-1.1-9.6-1.2c0.7-1.1,1.5-2.2,2.1-3.4
		c1.3-2,2-4.2,3.7-5.8C377.7,230.7,381.3,231.5,384.7,232.1"/>
	<path class="st0" d="M381.8,233.5l-3.9,5.9c-0.7,0.8-1.5,0-2.4,0.1l-4.2-0.8c1.3-1.9,2.2-4.2,3.6-6.1
		C377.2,232.9,379.6,233,381.8,233.5"/>
	<path d="M364.6,242.4c-1.3,2.6-3.3,5-5.5,7c-0.8-1.5-2.6-2.7-2.3-4.7c1.5-2.5,3.4-4.8,4.8-7.3C362.8,238.9,364.6,240.4,364.6,242.4
		"/>
	<path class="st0" d="M362.7,242.2c-1,1.5-2.1,3-3.4,4.3c-0.3-0.3-0.6-0.8-0.7-1.2l3.2-4.7C362.2,241.1,362.8,241.7,362.7,242.2"/>
	<path d="M395,254.9c0.4,2,0.3,4.3-0.9,5.9c-1.3,1.2-3.1,1.7-4.9,1.5c-1.3-0.5-2.8-1.7-3.3-3.3c-0.3-1.9,0.4-3.5,1.4-4.8
		c-1.6-1.2-4.5-1.5-6.2-0.5c-0.6,0.5-1.1,0.7-1.5,1.1c5.6,5.6,8.7,13.2,6.6,21.2c-1.3,5-5.4,10.5-10.4,11.9
		c-6.5,1.4-13.8,0.6-18-5.1c-0.4-0.8-1-1.7-1.3-2.5c0-0.7,0.7-0.8,1-1c1.5-0.7,3.4-0.4,4.4-2.1c0.3-0.8-0.1-1.5-0.4-2.1
		c-0.4-0.2-0.8-0.6-1.2-0.3c-3.6,1.9-5.5,6-9.2,7.5c-1.1,0-2.3-0.3-3.4,0.3c-1.1,1.1-2.2,2.3-3.8,1.6c-1.1-0.1-2.3-0.3-2.6-1.5
		c-0.9-4.1,2.3-6.9,2.7-10.6c0.9-2-1-4.4,1.1-5.9c2.1-2,4.4-3.2,6.8-4.5c1.4-0.1,1,1.7,1.8,2.4c0.1,0.3,0.4,0.7,0.7,0.9
		c1.3,0,2.2-0.7,3.3-1.1c7.3-5,15.8-10.6,20.8-18.8c1.3-1.5,2.6-4.1,4.8-3.7C389.2,242.9,393.6,249.3,395,254.9"/>
	<path d="M376,244.1c-1.9,2.7-4,5.4-6.6,7.4c-0.7,0.5-1.3,0.8-2.1,0.3c-2.1-0.6-4.3-1-6.5-1.6c2.4-2.5,3.8-5.5,6.5-7.5
		C370.3,242.7,373.2,243.4,376,244.1"/>
	<path class="st0" d="M391.6,252.3l0.2,0.7c-3.5-2.1-8.5-3.4-12.3-0.9c-4.7,2.6-9,7.5-11.6,12.2c-0.1,2.3,2.3,3.6,2.6,5.9
		c0.2,1.7,0.1,3.7-0.2,5.4l0.2,0.1c1.9-1.7,2.1-4.5,2-7.2c-0.4-1.6-0.9-3.2-1.6-4.6c0.7-1.2,1.6-2.3,2.6-3.5
		c1.3-1.1,2.6-2.7,4.4-2.4c3.8,2.1,5.5,6.3,6.2,10.1c1.1,6-1.2,11.6-6.1,14.6c-4.9,3-12.6,3.2-17.3-0.6c2.5-1.4,6.1-3,6.5-6.3
		c0.6-3.3-0.9-6.2-3.5-7.9c-1.6-0.8-3.5-1.5-5.4-0.9c-1.4,0.7-2.7,2.1-3.7,3.4c-2.8,3.4-4.6,8-8.8,10.1c-0.5,0.2-1.1,0.1-1.6-0.2
		c-0.9-1.6,0.2-3.3,0.4-4.8c0.7-2.2,1.8-4.5,1.4-7.1c0.8-1.7,2.5-3.2,4.3-3.6c1.8,0,1,2.6,2.8,2.6c2.8-0.1,5-1.6,7.3-2.9
		c4.9-3.7,10.1-7.3,14.3-12c2.4-2.9,4.7-6.1,7.7-8.3c1.5-0.6,3,0.5,4.2,1.4C389,247.5,390.5,249.7,391.6,252.3 M372.8,245.1
		c-1.3,1.8-2.6,3.8-4.5,5c-1.4-0.2-2.7-0.6-4.2-0.9c1.9-1.6,2.7-5.8,6-4.5L372.8,245.1z"/>
	<path d="M356.8,252.3c-1.5,2.1-3.7,4.3-5.7,6.1c-0.2-1.8-2.2-2.9-1.8-5c1.8-2,3.8-4.2,5.5-6.2C355.4,249,358.1,250.2,356.8,252.3"
		/>
	<path class="st0" d="M355.2,251.4c-1.1,1.4-2.3,2.7-3.5,3.9c-0.1-0.5-0.5-0.8-0.4-1.2l3.5-3.8C354.8,250.7,355.5,251,355.2,251.4"
		/>
	<path d="M366.7,254v0.2c-2.8,2.4-5.7,4.8-8.5,7c-2.1,0.2-3.6-1-5.4-1.8c2.2-2.3,3.9-4.8,6.6-6.9c0.8-0.5,1.5,0.1,2.4,0.2L366.7,254
		z"/>
	<path class="st0" d="M362.9,254.9c-1.8,1.6-3.6,3-5.5,4.5c-0.5-0.1-1.1-0.3-1.8-0.5c1.2-1.7,2.8-3.3,4.4-4.7
		C361.1,254.3,362,254.8,362.9,254.9"/>
	<path d="M347.3,255.3c0.3,1.9,2.5,3.5,1.3,5.5c-1.6,1.2-3.4,2.3-5.1,3.3c-0.4-1.5-1.4-3-1.4-4.6c1.6-1.6,3.4-2.7,5-4.2H347.3z"/>
	<path class="st0" d="M347.3,259.5c-1,0.7-2,1.4-3.1,2c-0.1-0.3-0.1-0.9-0.2-1.4c0.4-0.3,2.6-2.3,2.6-2.3S347.2,258.5,347.3,259.5"
		/>
	<path d="M359,270.9c-2.8,2.7-3.9,6.5-7.1,8.9c-0.4,0.3-1.2,0.3-1.9,0.2c3.1-2.3,4.1-5.6,6-8.6c0.5-0.8,1.5-0.9,2.4-0.8
		C358.7,270.8,358.8,270.9,359,270.9 M338.5,262.1c1.5,3.5,2.3,7.2,2.1,11.5c-1.8-1.5-3.5-3.4-5.2-5c-2.3,2-4.6,4.3-7,6.2l-8.2-7.4
		l-8.2,7.4c-2.3-2.1-4.5-4.2-6.9-6.2l-5,5c-0.5-8.4,3.3-16.3,10.6-20.4c6.5-4.2,16-3,21.9,1.7C335.1,256.8,337.1,259.4,338.5,262.1"
		/>
	<path class="st0" d="M336.9,263.1c1,1.8,1.6,3.9,1.8,6.1l-3.2-3c-2.3,1.9-4.5,4.3-7,6.2l-8.1-7.4h-0.2c-2.6,2.5-5.3,5.2-8.2,7.4
		l-6.7-6.2h-0.3l-2.8,2.9c0.2-3.4,1.8-6.5,3.7-9.2c4.6-6,11.8-8.6,18.9-6.9C329.8,254,334.7,258.2,336.9,263.1"/>
	<path d="M327.1,276c-2.2,2.4-4.6,4.2-6.9,6.3c-2.2-1.9-4.5-4.1-6.7-6.3c2.1-2.1,4.5-3.9,6.6-6.2l0.3,0.2L327.1,276z M310.6,276
		c-2.1,2.1-4.6,4.2-6.9,6.2c-1.5-2.1-2.5-4.6-3.3-7.1l4.7-4.1C307.1,272.6,308.8,274.2,310.6,276 M339.9,275.1
		c-0.4,2.6-1.9,5-3.3,7.1h-0.1c-2.1-2.1-4.6-3.9-6.7-6.2l5.4-5C336.9,272.4,338.4,273.6,339.9,275.1"/>
	<path class="st0" d="M324.5,276c-1.4,1.4-2.8,2.8-4.4,3.8c-1.2-1.2-2.6-2.5-3.8-3.7V276l3.8-3.6C321.7,273.3,323.1,274.7,324.5,276
		 M308,276c-1.2,1.2-2.5,2.4-3.9,3.4l-1.5-3.7l2.6-2.3h0.2L308,276z M338.1,275.6c-0.4,1.4-1.1,2.6-1.6,3.7h-0.3
		c-1.1-1.1-2.5-2.3-3.5-3.4l2.6-2.6C336.2,274.2,337.1,275,338.1,275.6"/>
	<path d="M318.9,283.5v0.2l-8,7.1h-0.3c-2-2.1-4.2-4.5-5.7-7.1c2.3-2.1,4.7-4.4,7.2-6.4L318.9,283.5z M335.7,283.7
		c-1.5,2.6-3.7,5-6,7.1l-8.1-7.3l7-6.3L335.7,283.7z"/>
	<path class="st0" d="M312.1,279.8c1.3,1.1,2.6,2.5,4.1,3.7v0.2l-5.1,4.7c-1.5-1.5-2.6-2.9-3.7-4.4C309,282.6,310.5,281,312.1,279.8
		 M333.3,284.2c-1.2,1.4-2.3,3-3.8,4.3l-5.3-4.8l4.4-3.8C330.2,281.2,331.7,282.6,333.3,284.2"/>
	<path d="M328.2,292.2c-2.5,2.3-5.4,5-8.1,6.6c-2.8-1.9-6.5-5.3-7.9-6.9l7.9-7.2C322.8,287.3,325.7,289.6,328.2,292.2"/>
	<path class="st0" d="M325.6,292.1c-1.6,1.8-3.6,3-5.4,4.6l-0.2-0.1l-5.1-4.4l5.3-4.8L325.6,292.1z"/>
	<path d="M315.7,90.6c0.1,1.8,0.9,3.5,2.5,4.6c1.5,0.9,3.3,1.1,4.9,0.5c1.9-1,3.3-2.9,3.3-5.1h1.8c0,1.8,0.8,3.4,2.1,4.5
		c1.5,1.2,4.1,1.4,5.7,0.5c1.4-0.9,2.3-2.4,2.7-3.7h3.2l-6.6,18.9h-0.1c-5.7-4.6-13.7-7.3-20.9-4.4c-2.7,1-5.1,2.7-7.7,4.4
		c-2.1-6.3-4.3-12.6-6.2-18.9h3c0.7,1.9,2.3,3.7,4.4,4.2c2.2,0.3,4.3-0.4,5.5-2.5c0.7-1,0.8-2,1-2.9H315.7z"/>
	<path class="st0" d="M322.3,97.8c1.9-0.3,3.8-0.2,4.9-3.6c1.3,2.4,3.7,3.8,6.2,3.8c2-0.1,3.9-1,5.3-2.5c-1.5,4.2-2.8,8.2-4.3,12.3
		c-5.6-4.2-13.9-6-20.6-3.3c-2.3,0.8-4.3,2-6.4,3.3c-1.4-4.1-2.7-8.1-4.2-12.4c1.6,1.8,3.9,2.8,6.4,2.4c2.1-0.3,4.2-1.6,5.1-3.6
		C316.5,96.9,319.2,98.4,322.3,97.8"/>
	<path d="M335.1,117.5c0.8,2.1,0.8,4.4,0.7,6.8c-1.2-1-2.6-1.9-3.8-2.9l-5,4.5c-2.2-1.8-3.8-3.6-5.9-5.5c-1.9,1.8-4,3.7-6,5.5h-0.2
		l-4.8-4.5l-3.8,2.9c-0.7-5.3,1.4-10.4,5.5-13.3c4.9-3.7,12.9-3.8,18.1-0.5C332,112,334.3,114.8,335.1,117.5"/>
	<path class="st0" d="M328.8,112.1c3,1.8,5.3,5.1,5.5,8.8l-2.3-1.8c-1.8,1.4-3.5,3.2-5,4.5c-2-1.7-3.9-3.7-6-5.5h-0.1l-5.8,5.4h-0.2
		l-4.8-4.4l-2.3,1.8c0.1-4.6,4.2-8.8,8.1-10.2C319.8,109,325.1,109.5,328.8,112.1"/>
	<path d="M321,122.7c1.5,1.4,3.2,3,4.6,4.4c-1.6,1.6-3.2,3.2-4.8,4.5c-1.4-1.6-3.2-3.1-4.5-4.6l4.5-4.3H321z M309.9,123.1
		c1.2,1.2,2.6,2.5,3.7,3.7c-1.6,1.5-3.2,3.2-4.9,4.4c-0.8-1.7-1.8-3.4-2.2-5.2C307.8,125.1,308.7,124,309.9,123.1 M332.2,123.6
		c1,1,2.2,1.8,3.1,2.9c-0.6,1.8-1.4,3.5-2.4,5.1h-0.1l-4.6-4.5l3.8-3.6L332.2,123.6z"/>
	<path class="st0" d="M323.2,127.1l-2.3,2.4l-2.3-2.4c0.7-0.7,1.5-1.7,2.4-2.3L323.2,127.1z M311.3,126.9c-0.8,0.7-1.3,1.2-2.1,1.9
		c-0.4-0.7-0.5-1.4-0.8-2.2l1.3-1.1C310.4,125.7,310.8,126.5,311.3,126.9 M333.4,127c-0.1,0.7-0.5,1.4-0.9,2
		c-0.8-0.7-1.4-1.2-2.1-1.9c0.7-0.3,1.1-1.1,1.6-1.4L333.4,127z"/>
	<path d="M319.7,133.1c-1.9,1.7-3.7,3.6-5.7,5.3c-1.5-1.7-2.8-3.4-4.1-5.1l0.1-0.3l4.7-4.5L319.7,133.1z M331.8,133.2
		c-1,1.9-2.5,3.5-4.1,5.2c-1.9-1.5-3.7-3.6-5.6-5.3v-0.1l4.7-4.4C328.6,130.1,330.3,131.6,331.8,133.2"/>
	<path class="st0" d="M317.3,133c-1.1,0.9-2.2,2.1-3.3,2.8l-2-2.4c0.8-1,1.9-1.9,2.7-2.7L317.3,133z M329.7,133.4
		c-0.4,0.9-1.2,1.9-2.1,2.6l-3.1-2.9c0.8-0.8,1.6-1.6,2.5-2.3L329.7,133.4z"/>
	<path d="M326.4,139.8c-1.8,1.7-3.6,3.6-5.6,4.7l-5.5-4.7c1.7-1.8,3.7-3.6,5.5-5.4L326.4,139.8z"/>
	<path class="st0" d="M324,139.8c-1,0.9-2.1,1.9-3.1,2.7l-3.1-2.7c1-1.1,2-2.1,3.1-3L324,139.8z"/>
	<path class="st1" d="M321.4,165.7c-0.4-0.3-1.1-0.3-1.4,0c0-3.1,0.1-6.5,0.2-9.9c0.3-0.1,0.7-0.2,1,0L321.4,165.7z"/>
	<path class="st2" d="M299.1,164.3c0.8,3.6,3,6.6,5.3,9.6c-2.4-0.2-4.7-1.2-6.9-1.8c2.4,3.7,5.1,7.5,8.8,10.5c-2.2,0.7-5,0.3-7-0.3
		c0.1,1,0.8,1.8,1.4,2.7c2.3,2.8,5.3,4.8,7.9,7.2c-2.5,0.6-5.1,0.2-7.4-0.9c-0.2,0.1-0.4-0.2-0.7,0c2.1,3.5,4.8,7.3,8.4,9.5h-23.8
		c0.5-7.7,2.2-15.2,4.9-22.4C292.3,173.2,294.9,168.3,299.1,164.3 M356.2,200.7h-23.8c3.5-2.2,6.6-6,8.4-9.5c-1.8,0-3.2,1.2-4.9,1.2
		l-3.2-0.2c3.4-3,7.7-5.7,9.6-9.9c-1.7,0.3-3.6,1-5.7,0.6l-1.4-0.2c3.5-3,6.5-6.8,8.9-10.5c-2.2,0.6-4.5,1.5-7,1.8
		c2.3-3,4.6-6.1,5.5-9.7C352.1,174.4,354.8,187.3,356.2,200.7"/>
	<path class="st1" d="M324.9,168.5c0,2.1,0.1,4.4,0.1,6.4c-1.8-1.8-4.9-1.9-7-1c-0.5,0.3-1.1,0.5-1.5,0.9c0.1-2,0.1-4.2,0.2-6.3
		C318.9,166.6,322.6,166.6,324.9,168.5 M323.7,176.3c0.2,1.5,0.2,3.2,0.2,4.8c-1.8-1-4.4-1.7-6.2-0.3c0,0.2-0.2,0.1-0.2,0.2
		c0-1.5,0-3.1,0.1-4.7c1.3-0.8,2.7-1.1,4.3-0.9C322.5,175.6,323.1,175.9,323.7,176.3 M323.8,183.1c0.2,5.6,0.4,11.6,0.4,17.3h-7.4
		c0.2-5.7,0.3-11.7,0.5-17.3C319.1,181.7,322.2,181.7,323.8,183.1"/>
	<path d="M358.5,204.9c-0.5,13.8-4.4,26.4-12,37.3c-3.2,3.7-6.8,8.9-12.2,8.3c-1-0.3-2.3-0.7-2.7-1.8c-0.3-2.5,1.1-4.8,0.1-7.2
		c-3.1-2.3-7.9-1.1-10.2-4.8c-0.8-1.8-0.1-3.7,1.2-5.2c1.3-1.6,3.3-2.1,4.5-3.8c0.2-0.5,0.2-1.1,0-1.7c-1.6-1.7-4.3-1.9-5.6-4.3
		c-0.4-1.1-0.9-2.7-0.1-3.7c1.4-1.8,3.9-2.5,4.6-4.6c-0.6-2.6-3.5-2.3-4.7-4.2c-0.2-0.7-0.2-1.6-0.3-2.4c-0.6-0.1-1.2-0.2-1.5,0.1
		c0.1,1.4-0.2,3,1,3.8c1,0.3,2.4,1.1,2.6,2.5c0.1,0.7,0.1,1.7-0.4,2c-1.9,1.3-4.3,1-6,2.5c-0.2,1.1,0.7,2,1.4,2.9
		c2.1,1.5,4.2,3.7,3.7,6.6c-0.3,3.8-4.5,5.2-7.4,6.2c-0.5,0.3-0.9,0.8-1.1,1.5c0.3,1.2,1.5,2,2.1,3.2c1.4,3,1,7.2-1.2,9.7
		c-1.6,1.7-4.3,2.9-5.9,2.8c-2.8,0-5.6-0.7-7.8-2.4c-12.7-11.5-18-26.6-17.8-43.4l0.1-0.1L358.5,204.9z"/>
	<path class="st3" d="M318.3,206.5c0.3,1.7,0,3.7,1.6,4.7c0.7,0.6,2,0.6,2.2,1.8c0.2,0.6-0.4,1-0.7,1c-2.1,0.9-4.9,0-6.6,2
		c-1.1,5.3,8.1,5.4,5.1,10.7c-2.5,3-6.9,2-8.8,5.9c-0.2,2.2,1.9,3.5,2.5,5.3c0.4,2.5,0.3,5.6-2,6.9c-3,1.9-7,3.3-10.4,1
		c-6.6-4.4-9.7-11.6-12.3-18.3c-2.3-6.5-3.4-13.5-3.7-20.9H318.3z"/>
	<path class="st3" d="M355.5,206.6c-0.4,10.4-2.5,19.8-6.9,28.4c-2.1,3.6-4.5,7.1-7.7,10.2c-1.5,1.5-4.5,1.1-6.2,0.1
		c-0.4-0.3-1-0.9-1-1.7c0.2-1.7,1.6-3.6,0.5-5.4c-1.1-1-2.2-2.1-3.6-2.4c-2.5-0.3-5.3,0.1-7.4-1c-0.6-0.3-0.6-0.7-0.6-1.2
		c0-2.1,2.2-2.7,3.5-3.9c1.9-1.4,4.4-3,3.6-5.7c-1.5-2.6-4.5-2.8-6.8-4.5c-0.3-0.2-0.4-0.8-0.3-1.4c1.5-2.2,5.6-3.4,4.9-6.7
		c-1.5-2.1-4.9-1.5-5.8-4.4l0.1-0.5L355.5,206.6z"/>
	<path d="M298.9,112.5c0.3,0.9,1.5,1.9,0.7,2.9c-0.7-0.7-1.3-1.5-2-2.3c-1.7,0.6-3.3,1.4-4.8,2.1l5.3,6.5c-0.1,0.7,0.1,1.6,0,2.3
		l-6.7-8.2c-1.8,0.5-3.3,1.5-4.9,2v0.2l18.5,23.2c-0.3,0.1-0.7,0.5-1.1,0.6L289,123.3l-3.9-4.7c-1.5,0.7-3.2,1.2-4.7,1.9
		c-0.1,0.3,0.4,0.9,0.7,1.2l2.1,2.6l14.9,18.6c0.1,0.6,0.3,1.2,0.1,1.9c-1.2,1.8-3.3,3.2-5.6,2.8c-0.9-0.2-1.9-1.1-2.1-2
		c-0.2-2.1,0.8-3.7,1.7-5.3c0.2-0.9-0.2-1.7-0.8-2.4c-1.6-1.5-3.9-2-6-1.4c-1.2,0.6-2.5,1.1-3.4,2.1c-2.2-4.2-6.5-5.4-10.8-5.3
		c-8.9,1.1-16,9.2-19.9,17.1c-3.6,6.7-5.1,16.9-0.1,23.5c2.2,2.9,5.9,3.5,9.1,2.6c1.6-0.7,3.3-1.1,4.7-2.4c1.5,2,1.2,5.3,0.4,7.7
		c-2,4.5-6.6,5.4-11.1,5.4c-6.6-0.1-12.4-4.6-15.6-10.4c0.6,12.9,4.3,25.3,8.2,37.4c2.2,0.1,4.7-0.1,6.9,0.1
		c-2.3-7.1-4.8-14.3-6.4-21.7c0.7,0.1,1.4,0.2,2.1,0.6c1.5,7.3,3.8,14.1,6.1,21c1.5,0.1,3.5,0.2,5.1,0.6c-2-6.9-4.2-13.7-5.6-20.8
		l1.5,0.1c1.4,6.9,3.4,13.6,5.7,20.3h0.1c1-1.5,2.1-2.8,3.2-4.1c-1.6-5.6-3-11.3-3.9-17c0.3-0.3,0.8-0.3,1.2-0.6
		c1,5.7,2.4,11.2,3.7,16.9h0.2c0.9-1.4,2.3-2.3,3.5-3.4c-1-5.5-2.1-10.8-2.3-16.5l1.6-1.6c0.3,0.6,0,1.2,0.2,1.6
		c1.6,19.7,5.5,38.4,15.9,54.4c3.4,5.2,8.4,10.5,13.6,13.6c0.3-0.3,0.8-0.9,0.9-1.5c-14.1-9.9-21-25.3-23.7-41.4
		c-2.5-21.2,2.6-41.3,16.6-56.4c5.7-6,12.9-9,19.9-12.3c0.4-0.6,1.1-1.1,1.3-1.8c0.2-1.9-1.4-3-2.5-4.5c-6.1-6-10.4-14.3-7.3-22.8
		l1.1-3l-0.2-0.6l-2.2-2.9C301.9,111.1,300.3,111.8,298.9,112.5"/>
	<path class="st0" d="M301.6,113.2c0,0.2,0,0.5,0.2,0.6c-0.5,1.8-1,3.5-1.5,5.2h-0.2l-3.1-3.6c-0.5,0.1-1,0.3-1.4,0.6l4.2,5.3
		c-0.4,3.4,0.8,6.4,1.3,9.5c-3.7-4.2-6.8-8.3-10.3-12.6c-0.5,0.1-1,0.5-1.5,0.7l6.9,8.6l11.4,14.3c0.1,0,0.2,0.1,0.1,0.2l-4.3,2.4
		l-16.4-20.6c-1.2-0.6-2-4.3-3.8-2.2l3.6,4.5l15.1,19.1c-4,2.8-7.7,6.5-12.8,5.9c-1.6-0.6-2.8-2-3.2-3.7c-0.2-1.4,0-2.9,0.9-3.9
		c0.7-1.1,2.6-1.1,2.1-2.7c-0.3-0.9-1.3-1.6-2.1-1.8c-2.5-0.6-4.1,1.8-5.3,3.5h-0.2c-0.5-2.7-2.5-5.6-5.4-6.4
		c-5.1-1.2-9.6,1.6-13.4,5.1c-5.8,6.2-9.6,13.5-10.7,21.7c0.1,1.5,0.1,2.9,0.9,4.2c3.3-2.8,8.3-3.1,12-1.1c2.7,1.4,5,4.2,4.9,7.4
		c0.2,5.4-1.5,11.1-6.6,14.1c-4.7,2.8-12,2.7-16.9-0.1c-1.9-1-3.7-2.4-5.1-4.1c1,10.2,4.1,19.9,7.2,29.5l3.1,0.1
		c-2.5-7.3-4.8-14.9-6.4-22.6h0.6l5.4,1.9l0.3,0.3c1.3,7,3.6,13.6,5.7,20.4c0.3,0.3,1,0.1,1.4,0.3c-2.1-6.9-3.9-13.8-5.5-20.8
		c1.8-0.1,3.5,0.2,5.4,0.1l0.1,0.2c1,6.3,3,12.4,4.8,18.3c1.3-0.6,0.2-1.9,0.1-2.7c-1.4-5.2-2.7-10.4-3.5-15.9
		c1.6-0.6,3.1-1.3,4.7-1.8c0.8,5.5,2.1,10.6,3.3,15.8c0.3-0.1,0.5-0.3,0.7-0.6c-1.1-5.3-1.6-10.9-2.2-16.5c2.1-1.6,3.9-3.6,5.1-5.7
		l0.2,0.2c0.2,8.8,1.2,17.2,2.7,25.7c-0.7-23,6.2-44.1,25-58.2c3.4-2.7,7.2-4.2,10.8-6c0.7-0.6,1.1-1,1-1.8
		c-0.2-2.8-3.2-4.7-4.7-7.2c-4.5-5.8-5.9-14.9-2.6-21.8l-1.1-1.5L301.6,113.2z"/>
	<path d="M254.2,158.3c-0.3,1.7-0.6,3.4-0.3,5.1c0.2,0.5,0.7,0.6,1.2,0.5c1-1,0.2-2.6,0.6-4.1c0.8-4.5,2.6-8.7,4.4-12.7
		C257,150.3,255.4,154.2,254.2,158.3 M281.1,148.9c1.8,1.2,3,3.3,4.4,4.8c0.3,0.1,0.7-0.1,0.8-0.5c0-0.8-0.8-1.5-1.2-2.1
		C283.9,149.9,282.7,149,281.1,148.9 M277.5,150.8c2.2,1.2,3.8,3.5,5.3,5.5c0.3,0,0.8-0.1,0.9-0.4c0.2-0.7-0.6-1.4-1.1-1.9
		C281.2,152.3,279.6,150.8,277.5,150.8 M274,152.6c2.5,1.4,4.3,3.9,6,6.2c0.2,0.1,0.5,0,0.8-0.3c0.3-0.8-0.4-1.5-0.8-2
		C278.5,154.5,276.5,152.5,274,152.6"/>
	<path d="M280.3,163.8c-1.6,2.3-3.4,4.4-5,6.8c-3-5.4-8.2-10.2-14.6-9.5c-1.4,0.2-2.8,0.6-3.8,1.7c4.8-1.6,10.3,0.3,13.7,4.5
		c3.1,3,3.2,7.4,3.3,11.5c3.2-7.4,8-14.4,13.7-20.7c1.4-1.5,3.1-3,4.3-4.7C287.3,155.3,283.4,159.9,280.3,163.8"/>
	<path d="M270.5,154.5c2.6,1.6,4.9,4.3,6.7,6.8c0.1,0.3,0.4,0.2,0.8,0.1c1.1-1-0.7-1.8-0.8-2.7C275.4,156.3,273.3,154.5,270.5,154.5
		 M267,156.5c1.6,1.2,3.6,2.5,5.1,4.3c1,1.1,1.4,2.4,2.4,3.4c0.4,0.1,0.8-0.2,1-0.3l0.1-1C273.7,159.7,270.8,156.3,267,156.5
		 M263.6,217.7c-0.4,1.5,0.7,2.6,1.2,3.8c1.1,1.9,1.9,4.1,3,5.9c1.9-1.6,3.9-3,5.4-5v-1.4c-1-3.6-2.3-7.1-3.1-10.8
		C267.8,212.7,265.1,214.8,263.6,217.7"/>
	<path class="st0" d="M265.4,218.1c0.5,2.3,2.1,4.2,3.1,6.3c1-0.7,2.2-1.7,2.8-2.7v-0.6c-0.6-2.5-1.5-4.8-2.1-7.3
		C267.7,215.1,266.5,216.6,265.4,218.1"/>
	<path d="M248.3,217.1v0.2l5.5,10.8c1.1,1.1,2.4,0.6,3.8,0.7c2.6-0.3,5.4-0.7,8.2-0.6V228c-1.6-3.4-2.8-7-5.1-10
		c-1.2-1.1-3.2-0.7-4.7-1C253.3,216.9,250.8,217.1,248.3,217.1"/>
	<path class="st0" d="M251.1,218.8c1.1,2.8,2.8,5.3,4,8.1c2.7,0.1,5.3-0.4,7.8-0.6c-0.9-2.4-1.9-4.7-3.4-7c-0.9-0.5-2-0.3-2.8-0.5
		L251.1,218.8z"/>
	<path d="M269.7,230.2c-0.1,1.4,0.8,2.5,1.2,3.6c1,1.9,2.3,3.6,3.4,5.5c0.5-0.3,0.9-0.9,1.3-1.4c1-1.2,2.9-2.3,2.4-3.9
		c-1.3-2.9-2.5-5.9-3.7-8.7C272.8,227,271,228.3,269.7,230.2"/>
	<path class="st0" d="M271.6,230.7c0.7,2,1.9,3.8,3.1,5.6l1.6-1.7l-2.5-6C272.9,229.2,272.3,230.1,271.6,230.7"/>
	<path d="M256.2,231.9c1.6,2.8,3.5,5.5,5.3,8.2c0.4,0.6,0.9,1.2,1.6,1.4c3.3-0.1,6.2-1,9.6-1.2c-0.6-1.1-1.4-2.2-2.1-3.4
		c-1.2-1.9-1.9-4.2-3.6-5.8C263.3,230.6,259.7,231.3,256.2,231.9"/>
	<path class="st0" d="M259.2,233.4l3.8,6c0.8,0.7,1.5,0,2.4,0.1l4.2-0.8c-1.2-2-2.1-4.2-3.6-6C263.8,232.9,261.4,233,259.2,233.4"/>
	<path d="M276.3,242.4c1.3,2.6,3.3,5.1,5.4,7c0.9-1.5,2.6-2.7,2.3-4.6c-1.5-2.6-3.3-4.8-4.6-7.4
		C278.2,238.9,276.3,240.4,276.3,242.4"/>
	<path class="st0" d="M278.3,242.3c0.9,1.5,2,2.9,3.2,4.2c0.4-0.3,0.6-0.7,0.7-1.2l-3.1-4.7C278.7,241.1,278.1,241.6,278.3,242.3"/>
	<path d="M245.8,254.7c-0.3,1.9-0.3,4.4,1,5.9c1.3,1.2,3,1.7,4.8,1.5c1.4-0.4,3-1.7,3.4-3.3c0.3-1.9-0.4-3.5-1.3-4.8
		c1.5-1.2,4.4-1.5,6.1-0.3c0.5,0.3,1.1,0.7,1.4,1.1c-5.5,5.6-8.7,12.9-6.7,21c1.3,5,5.3,10.6,10.4,12c6.5,1.4,13.7,0.7,18-5
		c0.4-0.7,1-1.6,1.3-2.5c0-0.6-0.7-0.7-1-0.9c-1.5-0.7-3.4-0.6-4.4-2.1c-0.3-0.9,0.1-1.6,0.6-2.2c0.3-0.2,0.7-0.6,1.2-0.3
		c3.5,2,5.3,6,9.1,7.5c1,0.2,2.3-0.2,3.4,0.5c1.1,1.1,2.1,2.2,3.8,1.7c1-0.2,2.3-0.3,2.6-1.5c0.9-4.1-2.3-6.9-2.7-10.6
		c-0.8-2.1,1.1-4.4-1-5.8c-2.1-2-4.4-3.3-6.7-4.6c-1.5-0.2-1.1,1.7-1.8,2.4c-0.1,0.3-0.5,0.7-0.8,0.9c-1.2,0-2.2-0.7-3.2-1.2
		c-7.3-5.1-15.7-10.7-20.7-18.8c-1.3-1.5-2.6-4.3-4.9-3.9C251.8,242.7,247.4,249,245.8,254.7"/>
	<path d="M264.9,244c1.9,2.8,3.9,5.4,6.5,7.5c0.7,0.3,1.4,0.7,2.1,0.3c2.1-0.6,4.3-1,6.5-1.6c-2.3-2.5-3.7-5.5-6.4-7.5
		C270.6,242.5,267.7,243.3,264.9,244"/>
	<path class="st0" d="M249.3,252.1l-0.2,0.8c3.4-2.1,8.5-3.4,12.3-0.9c4.6,2.6,8.9,7.6,11.4,12.3c0.1,2.2-2.2,3.7-2.5,5.7
		c-0.4,1.8-0.2,3.8,0.1,5.5l-0.1,0.1c-2.1-1.7-2.3-4.5-2.1-7.2c0.5-1.6,0.9-3.2,1.6-4.6c-0.7-1.4-1.6-2.4-2.6-3.5
		c-1.3-1.2-2.5-2.7-4.3-2.5c-3.8,2.1-5.6,6.2-6.4,10.2c-1.2,5.9,1.1,11.4,6,14.5c4.8,3,12.7,3.2,17.3-0.3c-2.4-1.5-6-3-6.3-6.4
		c-0.6-3.1,0.9-6.3,3.6-7.8c1.6-1,3.5-1.3,5.4-1c1.4,0.8,2.6,2.1,3.6,3.5c2.8,3.4,4.6,8,8.5,10.2c0.7,0.1,1.3,0.1,1.7-0.1
		c1-1.6-0.2-3.4-0.3-5c-0.8-2.4-1.6-4.5-1.4-7.1c-0.8-1.7-2.5-3.3-4.3-3.7c-1.8,0-1,2.6-2.7,2.6c-3-0.1-5.1-1.7-7.3-3
		c-4.9-3.8-10.1-7.2-14.2-12.2c-2.4-2.8-4.7-6-7.6-8.4c-1.5-0.5-3.1,0.6-4.3,1.4C252,247.1,250.4,249.5,249.3,252.1 M268.1,245.1
		c1.3,1.7,2.5,3.7,4.4,5c1.4-0.2,2.8-0.6,4.2-0.9c-1.8-1.6-2.6-5.8-6-4.5L268.1,245.1z"/>
	<path d="M284,252.5c1.5,2.1,3.7,4.3,5.5,6.1c0.4-1.7,2.4-2.9,2-5c-1.7-2.1-3.8-4.2-5.5-6.3C285.4,249,282.7,250.3,284,252.5"/>
	<path class="st0" d="M285.6,251.6c1.1,1.4,2.2,2.7,3.4,3.9c0.1-0.5,0.8-0.8,0.5-1.4l-3.4-3.7C285.8,250.8,285.3,251.1,285.6,251.6"
		/>
	<path d="M274.1,254v0.2c2.7,2.4,5.6,5,8.4,7.1c2.1,0.2,3.7-1.1,5.5-1.8c-2.3-2.4-4.1-4.8-6.5-7c-0.9-0.5-1.6,0.1-2.5,0.2L274.1,254
		z"/>
	<path class="st0" d="M277.9,254.9c1.7,1.6,3.6,3,5.5,4.6c0.5-0.1,1.1-0.3,1.7-0.6c-1.4-1.6-2.8-3.3-4.4-4.6
		C279.7,254.4,278.8,254.8,277.9,254.9"/>
	<path d="M293.5,255.4c-0.3,1.8-2.5,3.5-1.4,5.4c1.6,1.4,3.4,2.4,5.1,3.4c0.6-1.5,1.6-2.9,1.4-4.7c-1.5-1.5-3.3-2.5-4.9-4.1H293.5z"
		/>
	<path class="st0" d="M293.6,259.5c0.8,0.9,1.9,1.6,2.8,2.3c0.3-0.5,0.2-1.1,0.4-1.5c-0.5-0.2-2.8-2.2-2.8-2.2
		S293.7,258.6,293.6,259.5"/>
	<path d="M281.7,271c2.7,2.7,3.8,6.4,7,8.9c0.4,0.3,1.2,0.3,1.9,0.3c-3.1-2.4-3.9-5.7-5.9-8.7c-0.5-0.7-1.5-0.9-2.4-0.7
		C282,270.9,281.9,271,281.7,271"/>
</g>
</svg>
