<svg xmlns="http://www.w3.org/2000/svg" width="458" height="349"><path fill="#022e1b" d="M204.688 32.887c2.522 1.957 4.927 3.992 7.312 6.113l2.047 1.762C232.879 58.125 242.52 85.602 251 109l1.276 3.496c2.61 7.155 5.191 14.32 7.724 21.504l1.25 3.453C262 140 262 140 262 144a139 139 0 0 0 19.438-10.812C293.952 124.905 306.992 117.47 320 110l2.449-1.413c23.94-13.715 53.126-24.816 80.817-17.491 14.096 4.165 26.065 13.44 33.1 26.348 12.246 24.128 6.751 50.282-1.23 74.741-2.625 7.968-5.373 15.894-8.136 23.815l-.893 2.566a2720 2720 0 0 1-5.468 15.554q-.87 2.454-1.737 4.91c-5.371 15.203-11.418 30.174-19.277 44.283l-1.402 2.523c-10.32 18.167-24.483 34.984-45.094 41.135-15.965 4.214-32.009 2.829-46.879-4.596C289.007 312.131 278.932 295.307 270 278l-1.005-1.916C256.575 252.156 248.19 225.617 240 200c-3.172.566-5.998 1.296-8.957 2.566-23.041 9.532-47.463 14.24-71.839 18.996-28.81 5.636-57.488 12.969-75.231 38.336-9.535 14.824-15.068 31.504-20.848 48.04q-1.514 4.318-3.038 8.634-.937 2.659-1.866 5.322c-2.11 5.994-2.11 5.994-3.221 7.106a234 234 0 0 1-8.629.098l-2.619-.005c-2.771-.005-5.543-.018-8.315-.03q-2.81-.008-5.623-.014Q22.907 329.032 16 329c.603-5.51 1.966-10.372 3.809-15.59l.855-2.465c.916-2.63 1.844-5.257 2.773-7.882l.958-2.716C33.212 275.367 42.05 250.75 59 230l2.074-2.574C71.22 215.48 84.061 206.924 98 200c.642-.32 1.284-.64 1.946-.968 15.378-7.431 32.178-10.207 48.783-13.626q4.208-.867 8.416-1.739 5.515-1.139 11.038-2.245c16.771-3.403 33.388-7.466 49.13-14.297l2.892-1.219A769 769 0 0 0 227 163c-.6-5.867-2.22-10.977-4.246-16.5l-.99-2.743c-1.059-2.922-2.129-5.84-3.202-8.757l-1.1-3.006c-11.701-38.151-11.701-38.151-36.274-67.494-5.338-2.313-10.69-2.425-16.286-.945-15.839 6.612-23.746 28.164-29.902 42.82-3.495 8.523-6.71 17.14-9.812 25.813-.41 1.131-.819 2.263-1.24 3.43-2.197 6.159-4.259 12.324-6.141 18.585a693 693 0 0 1-3.16 10.065q-.762 2.448-1.456 4.916c-3.855 13.678-3.855 13.678-9.988 17.565-3.35 1.803-6.792 3.238-10.36 4.547-12.247 4.676-23.915 13.585-33.39 22.524C58 215 58 215 56 215c.594-6.226 2.489-11.64 4.656-17.484l2.325-6.389 1.244-3.394a1852 1852 0 0 0 22.902-66.351c11.39-34.953 25.515-75.114 59.686-93.694 19.293-9.196 40.438-7.042 57.875 5.199M311.06 158.834c-9.225 5.716-18.594 11.147-28.05 16.47l-3.14 1.782-2.783 1.564c-2.216 1.182-2.216 1.182-3.088 3.35.78 2.716 1.634 5.337 2.578 7.996l.856 2.462c.93 2.663 1.872 5.321 2.816 7.98l.966 2.739C288.656 224.242 296.32 245.324 307 265l1.508 2.832c5.323 9.468 12.107 18.024 22.492 21.918 8.53 1.066 14.35-1.162 21.102-6.371 28.11-26.038 51.47-92.073 54.136-129.746.176-8.305-.139-14.108-5.816-20.375-6.011-5.66-12.431-6.697-20.488-6.5-25.126 2.074-48.193 19.218-68.873 32.076"/><path fill="#ce347b" d="M204.688 32.887c2.522 1.957 4.927 3.992 7.312 6.113l2.047 1.762C232.879 58.125 242.52 85.602 251 109l1.276 3.496c2.61 7.155 5.195 14.32 7.724 21.504l1.242 3.492c.885 2.927.903 5.468.758 8.508l-4 1v2l-2.23 1.207-2.958 1.606-2.917 1.582a144 144 0 0 0-5.442 3.167c-2.455 1.439-4.879 2.562-7.516 3.625l-2.535 1.043C232 162 232 162 228 162l-1.145-3.32c-14.346-52.941-14.346-52.941-45.667-94.18-5.338-2.313-10.69-2.425-16.286-.945-15.839 6.612-23.746 28.164-29.902 42.82-3.495 8.523-6.71 17.14-9.812 25.813-.41 1.131-.819 2.263-1.24 3.43-2.197 6.159-4.259 12.324-6.141 18.585a693 693 0 0 1-3.16 10.065q-.762 2.448-1.456 4.916c-3.855 13.678-3.855 13.678-9.988 17.565-3.35 1.803-6.792 3.238-10.36 4.547-12.247 4.676-23.915 13.585-33.39 22.524C58 215 58 215 56 215c.594-6.226 2.489-11.64 4.656-17.484l2.325-6.389 1.244-3.394a1852 1852 0 0 0 22.902-66.351c11.39-34.953 25.515-75.114 59.686-93.694 19.293-9.196 40.438-7.042 57.875 5.199"/><path fill="#029050" d="M423.68 101.96c10.874 8.892 17.585 22.146 19.32 36.04 2.337 27.78-7.009 52.22-16 78l-.893 2.566a2720 2720 0 0 1-5.468 15.554q-.87 2.454-1.737 4.91c-6.004 16.994-13.16 33.206-21.902 48.97l-3-1-.734 1.703c-6.592 11.962-21.505 19.917-34.137 23.668-12.17 2.446-22.466.726-32.777-6.133-16.237-12.315-24.268-29.273-32.488-47.36a255 255 0 0 0-2.368-4.972C288.068 246.783 285 239.006 285 231h5v3h2l1-2 .76 1.917c11.185 31.53 11.185 31.53 34.428 53.77 6.3 1.98 10.762 2.002 16.812-.75 31.184-17.026 45.646-76.924 55.121-108.843 6.066-19.825 6.066-19.825 3.254-39.656-2.899-4.75-6.37-7.612-11.562-9.75-9.147-1.65-17.764-.457-26.813 1.312l1.5-2.375c1.665-2.41 1.665-2.41 1.5-4.625h2v2q2.126-.429 4.25-.875l2.39-.492c2.328-.625 4.25-1.481 6.36-2.633l1 2 1.938-.25c4.465.365 8.071 2.302 12.062 4.25v2l3-1c2.688.438 2.688.438 5 1l-.656-1.863-.844-2.45-.844-2.425C403 120 403 120 403 117l-3-1c-3-3.444-3-3.444-3-6l-1.937-.75c-1.739-.71-3.467-1.448-5.153-2.273-4.9-2.362-8.362-3.317-13.91-2.977l-2-1c-6.248.122-12.157.714-18 3q-3.86 1.08-7.73 2.121c-2.44.945-3.478 2.031-5.27 3.879q-2.993.541-6 1l-1 2a530 530 0 0 1-5 1l-2 2-2.25.875c-3.245 1.328-5.864 3.14-8.75 5.125-3.267 2.072-6.398 3.608-10 5-6.716 2.638-12.683 6.143-18.785 9.98a351 351 0 0 1-8.59 5.208c-2.782 1.654-5.42 3.359-8 5.312-3.752 2.74-7.814 4.672-11.984 6.7-4.433 2.167-8.782 4.49-13.141 6.8-26.029 13.729-26.029 13.729-35.5 13l-3-2 1-2-2-1 1.57-.655c13.178-5.502 13.178-5.502 26.215-11.33a193 193 0 0 1 5.903-2.577c3.216-1.396 6.32-2.933 9.445-4.52 2.242-1.102 4.528-2.04 6.867-2.918v-2l4-1v-2l2.027-.926c6.12-2.916 11.773-6.142 17.41-9.887C293.953 124.906 306.993 117.472 320 110l2.449-1.413c31.321-17.943 69.653-29.734 101.23-6.626"/><path fill="#5f183a" d="m161 25 23 1 2 5 2-4 1 2 2.375-.125C194 29 194 29 196 31c2.069.643 2.069.643 4 1v2h2l-2 4h-8v-2c-5.874.578-5.874.578-11.687 1.563-2.802.53-5.47.503-8.313.437v2l-2.117.516-2.758.734-2.742.703c-2.907 1.277-3.1 2.252-4.383 5.047-1.84 1.125-1.84 1.125-3.937 2-3.35 1.526-5.04 2.854-7.063 6h-2l-.148 1.863-.227 2.45c-.07.8-.14 1.6-.21 2.425C146 64 146 64 144 67h-2l-.828 2.652c-1.101 3.145-2.393 5.955-3.922 8.91-12 23.537-12 23.537-15.25 49.438h2c-1.476 6.083-3.02 12.06-5 18l-.8 3.766c-7.067 31.89-7.067 31.89-15.032 37.695-3.28 1.8-6.702 2.977-10.3 3.98-2.696.806-5.04 2.068-7.493 3.434l-2.59 1.434c-8.32 5.052-16.249 10.828-23.332 17.511C58 215 58 215 56 215c.594-6.226 2.489-11.64 4.656-17.484l2.325-6.39 1.244-3.394a2000 2000 0 0 0 23.078-66.702c2.982-9.108 6.01-18.197 9.369-27.175l.794-2.203C99.221 87.09 101.318 84.34 105 81c1.295-2.166 1.295-2.166 2-4h2l.813-3.687c.904-3.543 1.834-6.437 4.187-9.313 2.688-.812 2.688-.812 5-1l-.75-1.75L118 59c1.813-2.25 1.813-2.25 4-4h2l.313-1.687c.818-2.755 2.146-4.9 3.687-7.313l6 1v-2h-3c1.112-3.336 1.463-3.584 4.375-5.187l1.836-1.043C139 38 139 38 142 38l2-6c7.429-1.286 7.429-1.286 11 0l1-5 1 2 3-1z"/><path fill="#0b2016" d="M269 184h3v2h2v2h-2l.516 1.695c.532 2.534.407 4.6.234 7.18-.088 9.475 4.279 17.91 8 26.438 2.14 5 2.979 9.267 3.25 14.687h2l.816 2.598c1.92 5.517 4.53 10.714 7.039 15.981 1.284 2.714 2.544 5.438 3.805 8.163l2.84 6.07 1.328 2.89C308.784 288.455 318.489 301.169 333 309l1.95 1.094c8.229 3.856 18.86 2.908 27.3.281 11.857-4.561 21.703-10.984 29.75-20.937l2-2.438h2c-3.758 13.589-17.902 27.451-29.687 34.438-14.537 8.033-31.045 9.81-47.125 5.937-21.72-6.563-35.138-23.184-45.585-42.475A720 720 0 0 1 270 278l-1.005-1.916c-5.39-10.382-9.505-21.3-13.683-32.209l-.837-2.184c-2.898-7.584-5.717-15.197-8.37-22.87l-1.233-3.547c-1.193-4.48-1.339-7.873.128-12.274l-2-3c3.412-2.779 7.142-4.738 11.063-6.687l1.892-.971c2.877-1.44 4.783-2.342 8.045-2.342l2.5-3z"/><path fill="#f855bc" d="M204.688 32.887c2.522 1.957 4.927 3.992 7.312 6.113l2.047 1.762C232.879 58.125 242.52 85.602 251 109l1.276 3.496c2.61 7.155 5.195 14.32 7.724 21.504l1.242 3.492c.885 2.927.903 5.468.758 8.508l-4 1v2l-2.23 1.207-2.958 1.606-2.917 1.582a144 144 0 0 0-5.442 3.167c-2.455 1.439-4.879 2.562-7.516 3.625l-2.535 1.043C232 162 232 162 228 162q-1.545-4.183-3.062-8.375l-.893-2.406-.83-2.305-.778-2.126C222 145 222 145 223 143l2-1 .875 2.438c.858 2.695.858 2.695 3.125 3.562l-1 2 3-1 1 2c4.782-.299 7.452-2.715 11.063-5.566 2.19-1.621 4.339-2.622 6.937-3.434-.4-7.17-1.822-13.343-4.312-20.062l-.897-2.526c-2.014-5.59-4.317-11.01-6.791-16.412-6-13.412-6-13.412-6-17h-2l-.805-1.68-1.07-2.195-1.055-2.18C226.034 77.85 226.034 77.85 224 76l-.937-3.437c-1.01-3.385-1.522-4.368-4.063-6.563v-2h-2l-1.25-2.312c-2.168-3.33-4.208-3.988-7.75-5.688l-2.312-2.437c-5.587-5.328-11.023-6.814-18.688-6.938-13.195.468-20.06 3.897-29.125 13.625C153.675 65.133 150.3 70.482 147 76l2.125-2.125L158 65l2 1-2.875 2.5c-3.641 3.656-6.385 7.657-9.125 12l-1.183 1.846c-6.778 11.007-11.598 23.165-16.197 35.206q-1.12 2.925-2.257 5.843c-3.392 8.784-6.459 17.647-9.363 26.605-1.007-3.122-.973-4.99-.004-8.11l.693-2.285.749-2.355.736-2.402c.6-1.952 1.212-3.9 1.826-5.848l-2-1c.727-20.213 8.068-35.336 17.1-53.214 1.307-2.592 2.603-5.189 3.9-7.786h2l3-12h2l.875-1.875c2.127-4.018 5.14-5.216 9.125-7.125l2-1 1-3 10-2v-2c6.615-1.218 13.273-2 20-2v2l3.875-.312 2.18-.176c2.34-.386 2.34-.386 3.945-3.512h-2v-2l-2.375.125C195 32 195 32 193 30c-2.57-.648-2.57-.648-5-1l-1 3-2-1-1-4-23-1-2 4-3-1-1 3-1.898-.035-2.477-.027-2.46-.036c-2.214-.047-2.214-.047-4.165 1.098v3h-2l1 4-1.562-.75c-3.963-.406-6.16 1.586-9.438 3.75l-1 2h3v2l-4 1v-2c-2.143 1.837-3.138 3.29-4.375 5.875-1.765 3.395-3.822 5.55-6.625 8.125l1 3-6 2v3l-3 3c-.59 1.946-.59 1.946-1 4a88 88 0 0 1-2 4h-2l-.812 2.375C104 84 104 84 101 86c7.346-23.966 23.766-46.324 45.813-58.312 19.293-9.196 40.438-7.042 57.875 5.199"/><path fill="#09e078" d="M423.68 101.96c10.799 8.83 17.712 22.19 19.32 36.04 1.228 20.246 1.228 20.246-1 29l-2 1c-.652 2.025-.652 2.025-1 4h-2l.184-1.677q.414-3.849.816-7.698c.095-.87.19-1.74.29-2.637.88-8.5 1.15-16.655-.29-25.113l-.562-3.383L437 129l-3 1-.113-2.117-.2-2.758-.175-2.742c-.3-2.745-.3-2.745-3.512-4.383l-.375-1.812c-.952-3.332-3.07-4.93-5.625-7.188l-2.187-1.062c-1.813-.938-1.813-.938-2.75-3-.915-2.202-.915-2.202-3.5-2.688-2.632-.299-2.632-.299-5.563-.25-2.187-1.812-2.187-1.812-4-4v-3l-5 1-1-2-7 2v2l-11-1v-2q-3.206.354-6.41.723-2.54.272-5.086.46l-2.379.192-2.18.148c-2.402.589-3.365 1.619-4.945 3.477l3.184-.035c7.355-.056 14.517-.008 21.816 1.035v2h4v2l2.313.875C395 107 395 107 398 109v2h2l3 6c-3.412-1.137-4.119-2.043-6-5v-2l-1.937-.75c-1.739-.71-3.467-1.448-5.153-2.273-4.9-2.362-8.362-3.317-13.91-2.977l-2-1c-6.248.122-12.157.714-18 3q-3.86 1.08-7.73 2.121c-2.44.945-3.478 2.031-5.27 3.879q-2.993.541-6 1l-1 2a530 530 0 0 1-5 1l-2 2-2.25.875c-3.245 1.328-5.864 3.14-8.75 5.125-3.267 2.072-6.398 3.608-10 5-6.716 2.638-12.683 6.143-18.785 9.98a351 351 0 0 1-8.59 5.208c-2.782 1.654-5.42 3.359-8 5.312-3.752 2.74-7.814 4.672-11.984 6.7-4.433 2.167-8.782 4.49-13.141 6.8-26.029 13.729-26.029 13.729-35.5 13l-3-2 1-2-2-1 1.57-.655c13.178-5.502 13.178-5.502 26.215-11.33a193 193 0 0 1 5.903-2.577c3.216-1.396 6.32-2.933 9.445-4.52 2.242-1.102 4.528-2.04 6.867-2.918v-2l4-1v-2l2.027-.926c6.12-2.916 11.773-6.142 17.41-9.887C293.953 124.906 306.993 117.472 320 110l2.449-1.413c31.321-17.943 69.653-29.734 101.23-6.626"/><path fill="#10d476" d="M422 225c1.335 4.005.291 5.622-1.176 9.555l-.73 1.969a810 810 0 0 1-2.406 6.351l-.824 2.178C411.254 259.863 405 274.308 397 288l-3-1-.734 1.703c-6.592 11.962-21.505 19.917-34.137 23.668-12.17 2.446-22.466.726-32.777-6.133-11.62-8.813-18.737-19.503-25.352-32.238l-1.742-3.258c-2.072-4.516-1.756-9.06-.258-13.742h2v3h2l.915 1.693q2.1 3.875 4.21 7.745l1.438 2.662c7.462 13.665 15.76 26.99 31.437 31.9 14.152 1.938 25.755-2.096 36.965-10.523C390.812 282.994 399.068 268.302 407 254l2.105-3.613c1.525-2.725 2.786-5.294 3.895-8.2l.996-2.55a655 655 0 0 0 2.04-5.43l1.026-2.707.91-2.469C419 227 419 227 422 225"/><path fill="#fa5ac3" d="M214 52h5v2l2.438.813L224 56l1 3 1.313 1.25C229.018 63.055 232 67.03 232 71h3c6.5 12.415 11.506 25.298 16.313 38.438l.914 2.496q2.557 6.995 5.045 14.015 1.01 2.837 2.034 5.669l1.112 3.167.942 2.657c.732 2.927.751 5.552.64 8.558l-4 1v2l-2.23 1.207-2.958 1.606-2.917 1.582a144 144 0 0 0-5.442 3.167c-2.455 1.439-4.879 2.562-7.516 3.625l-2.535 1.043C232 162 232 162 228 162q-1.545-4.183-3.062-8.375l-.893-2.406-.83-2.305-.778-2.126C222 145 222 145 223 143l2-1 .875 2.438c.858 2.695.858 2.695 3.125 3.562l-1 2 3-1 1 2c4.782-.299 7.452-2.715 11.063-5.566 2.19-1.621 4.339-2.622 6.937-3.434-.4-7.17-1.822-13.343-4.312-20.062l-.897-2.526c-2.014-5.59-4.317-11.01-6.791-16.412-6-13.412-6-13.412-6-17h-2l-.805-1.68-1.07-2.195-1.055-2.18C226.034 77.85 226.034 77.85 224 76l-.937-3.437c-1.01-3.385-1.522-4.368-4.063-6.563v-2h-2c-2.768-3.321-4.075-4.984-3.75-9.375z"/><path fill="#2b2226" d="m368 127-1 2h-2v2l-2.98 1.11c-18.208 7.007-34.438 17.464-50.957 27.72-11.86 7.339-23.941 14.274-36.063 21.17 4.646 14.15 9.314 28.272 14.611 42.194l.955 2.552.842 2.209C292 230 292 230 292 234h-2v-3h-5l.691 1.828.872 2.422.878 2.39c.604 2.551.406 3.913-.441 6.36-1-1-1-1-1.062-3.562L286 238h-2l-.41-2.027c-1.819-8.112-4.708-15.48-7.969-23.09-2.557-6.08-3.914-11.103-3.746-17.758l.027-2.086c.024-1.68.06-3.36.098-5.039h2v-2c-2.24-.95-2.24-.95-5-1-1.12 1.154-2.23 2.318-3.285 3.531-3.109 2.663-6.99 3.818-10.777 5.258-4.27 1.76-7.826 3.772-10.938 7.211l1.125 1.75c.875 2.25.875 2.25 0 4.5L244 209c-1.864-2.795-2.343-3.84-2.75-7l-.297-2.062C241 198 241 198 243 195a221 221 0 0 1 7-2l2-2h4v-2l2.3-1.207 3.012-1.606 2.989-1.582c2.334-1.388 3.833-2.693 5.699-4.605h2l-1-4 2.813-.312c3.216-.694 4.347-1.03 6.187-3.688v-3l2.938.313c6.112.012 11.197-3.715 15.687-7.563 3.062-2.256 5.635-2.457 9.375-2.75v-6l4 1 1-2c2.322-.407 4.657-.744 7-1l1-3 2-2v-2l2.625.063c3.234-.06 6.203-.459 9.375-1.063l1-5h4l1-2h3l1.438-1.562c.515-.475 1.03-.95 1.562-1.438 2.188.313 2.188.313 4 1l1-3c5.003-2.817 10.223-4.608 16-4"/><path fill="#09bd69" d="m403 117 1 2h2v4l2 1c2.021 3.963 2.4 7.658 2.688 12.063l.261 3.66c.044 2.841-.223 4.6-.949 7.277-.2 2.477-.362 4.957-.5 7.438-.238 4.285-.532 8.376-1.5 12.562l4 2-.125-3.062C412 162 412 162 412.938 158.813c2.076-7.45 2.413-14.931 1.32-22.567-.467-4.07-.335-8.156-.258-12.246 4.946 7.42 4.007 21.656 2.621 30.387-.501 1.882-1.061 3.748-1.621 5.613a324 324 0 0 0-.937 5.875c-.883 5.552-2.294 10.795-4.063 16.125h-2l-.352 2.57c-.684 3.62-1.753 6.848-3.023 10.305l-1.348 3.688L402 202l-.996 2.688A955 955 0 0 1 399 210l-2-4h-3l-.55 1.863c-.252.809-.504 1.617-.762 2.45l-.739 2.425c-1.006 2.399-2.012 3.564-3.949 5.262l-2 2c.633-6.11 2.978-11.514 5.188-17.187 12.755-30.391 12.755-30.391 13.12-62.293-2.616-5.835-6.566-9.39-12.495-11.833-9.147-1.649-17.764-.456-26.813 1.313l1.5-2.375c1.665-2.41 1.665-2.41 1.5-4.625h2v2q2.126-.429 4.25-.875l2.39-.492c2.328-.625 4.25-1.481 6.36-2.633l1 2 1.938-.25c4.465.365 8.071 2.302 12.062 4.25v2l3-1c2.688.438 2.688.438 5 1l-.656-1.863-.844-2.45-.844-2.425C403 120 403 120 403 117"/><path fill="#15c473" d="M315 125c-2.316 2.316-3.937 2.827-7 4-6.716 2.636-12.684 6.143-18.785 9.98a351 351 0 0 1-8.59 5.208c-2.782 1.654-5.42 3.359-8 5.312-3.752 2.74-7.814 4.672-11.984 6.7-4.433 2.167-8.782 4.49-13.141 6.8-26.029 13.729-26.029 13.729-35.5 13l-3-2 1-2-2-1 1.57-.655c13.178-5.502 13.178-5.502 26.215-11.33a193 193 0 0 1 5.903-2.577c3.216-1.396 6.32-2.933 9.445-4.52 2.242-1.102 4.528-2.04 6.867-2.918v-2l4-1v-2l2.133-.996c8.408-4.05 16.108-8.839 23.867-14.004l2 3h-2v4c5.3-1.869 9.822-4.851 14.56-7.81l1.944-1.194 1.744-1.088c3.365-1.744 5.1-2.125 8.752-.908"/><path fill="#f951ba" d="m160 48-2.187 1.758L155 52.125l-2.812 2.32C149.507 57.575 149.69 59 150 63a83 83 0 0 1-3 4v4h2l-2 6 1.828-2.117 2.422-2.758 2.39-2.742c2.107-2.127 3.617-3.288 6.36-4.383l-2.562 2.875C137.659 91.165 128.569 121.505 119 150c-1.007-3.122-.973-4.99-.004-8.11l.693-2.285.749-2.355.736-2.402c.6-1.952 1.212-3.9 1.826-5.848l-2-1c.727-20.213 8.068-35.336 17.1-53.214 1.307-2.592 2.603-5.189 3.9-7.786h2l3-12h2l.875-1.875c1.985-3.75 5.855-7.26 10.125-5.125"/><path fill="#d94c8f" d="M204.723 32.922C209.85 36.913 214.542 41.276 219 46l-3 1-2.062-2.125C209.689 40.639 205.49 36.535 200 34v-2l-2.375.125C195 32 195 32 193 30c-2.57-.648-2.57-.648-5-1l-1 3-2-1-1-4-23-1-2 4-3-1-1 3-1.898-.035-2.477-.027-2.46-.036c-2.214-.047-2.214-.047-4.165 1.098v3h-2l1 4-1.562-.75c-3.963-.406-6.16 1.586-9.438 3.75l-1 2h3v2l-4 1v-2c-2.143 1.837-3.138 3.29-4.375 5.875-1.765 3.395-3.822 5.55-6.625 8.125l1 3-6 2v3l-3 3c-.59 1.946-.59 1.946-1 4a88 88 0 0 1-2 4h-2l-.812 2.375C104 84 104 84 101 86c7.346-23.966 23.766-46.324 45.813-58.312 19.29-9.195 40.496-7.058 57.91 5.234"/><path fill="#21a76d" d="M423.68 101.96c10.799 8.83 17.712 22.19 19.32 36.04 1.228 20.246 1.228 20.246-1 29l-2 1c-.652 2.025-.652 2.025-1 4h-2l.184-1.677q.414-3.849.816-7.698c.095-.87.19-1.74.29-2.637.88-8.5 1.15-16.655-.29-25.113l-.562-3.383L437 129l-3 1-.113-2.117-.2-2.758-.175-2.742c-.3-2.745-.3-2.745-3.512-4.383l-.375-1.812c-.952-3.332-3.07-4.93-5.625-7.188l-2.187-1.062c-1.813-.938-1.813-.938-2.75-3-.915-2.202-.915-2.202-3.5-2.688-2.632-.299-2.632-.299-5.563-.25-2.187-1.812-2.187-1.812-4-4v-3l-5 1v-3l-3.187.625C394 94 394 94 391.617 93.043c-7.132-2.842-15.125-1.24-22.164 1.156C364.07 95.957 358.658 97 353 97v-2q4.029-1.227 8.063-2.437l2.279-.698c21.548-6.436 42.255-3.137 60.338 10.096"/><path fill="#0f8350" d="m368 127-1 2h-2v2l-2.98 1.11c-18.212 7.008-34.438 17.472-50.963 27.722-8.09 5.003-16.257 9.85-24.495 14.606l-3.375 1.954c-10.134 5.819-10.134 5.819-13.375 5.17L268 181l4-1-1-4 2.813-.312c3.216-.694 4.347-1.03 6.187-3.688v-3l2.938.313c6.112.012 11.197-3.715 15.687-7.563 3.062-2.256 5.635-2.457 9.375-2.75v-6l4 1 1-2c2.322-.407 4.657-.744 7-1l1-3 2-2v-2l2.625.063c3.234-.06 6.203-.459 9.375-1.063l1-5h4l1-2h3l1.438-1.562c.515-.475 1.03-.95 1.562-1.438 2.188.313 2.188.313 4 1l1-3c5.003-2.817 10.223-4.608 16-4"/><path fill="#f947b3" d="M251 136h1l2 12h3v-3h3l1-4h1v5l-4 1v2l-2.23 1.207-2.958 1.606-2.917 1.582a144 144 0 0 0-5.442 3.167c-2.455 1.439-4.879 2.562-7.516 3.625l-2.535 1.043C232 162 232 162 228 162q-1.545-4.183-3.062-8.375l-.893-2.406-.83-2.305-.778-2.126C222 145 222 145 223 143l2-1 .875 2.438c.858 2.695.858 2.695 3.125 3.562l-1 2 3-1 1 2c4.786-.3 7.468-2.713 11.066-5.59C245 144 245 144 247.937 143l2.063-1c.898-3.053.898-3.053 1-6"/><path fill="#e43c96" d="M134 83h1c.07 2.49.096 4.648-.562 7.063-.518 2.293-.15 3.723.562 5.937l3-7c1 2 1 2 .293 4.348l-1.106 2.715-1.082 2.722C135 101 135 101 133 102c-.623 1.744-.623 1.744-1 3.875l-.479 2.387a148 148 0 0 0-.898 5.188c-1.19 7.53-3.475 14.417-6.123 21.55l-1.223 3.387c-2.991 8.184-2.991 8.184-5.277 11.613.61-4.988 1.635-9.602 3.063-14.437l1.097-3.747L123 129l-2-1c.618-17.175 5.248-29.588 13-45"/><path fill="#13a363" d="M253 156v2l3 1a4375 4375 0 0 1-11.375 5.75l-3.215 1.633C221.302 176.498 221.302 176.498 212 176l-3-2 1-2-2-1q3.993-1.736 8-3.437l2.254-.987c5.001-2.11 9.355-3.026 14.746-3.576 2.624-1.39 2.624-1.39 5-3a505 505 0 0 1 6-2c3.435-2.29 4.985-2.178 9-2"/><path fill="#05ca6d" d="m403 117 1 2h2v4l2 1c2.021 3.963 2.4 7.658 2.688 12.063l.261 3.66c.044 2.841-.223 4.6-.949 7.277-.2 2.477-.362 4.957-.5 7.438-.238 4.285-.532 8.376-1.5 12.562l4 2-.125-3.062C412 162 412 162 412.938 158.813c2.076-7.45 2.413-14.931 1.32-22.567-.467-4.07-.335-8.156-.258-12.246 4.946 7.42 4.007 21.656 2.621 30.387-.501 1.882-1.061 3.748-1.621 5.613-.52 3.181-.99 6.366-1.437 9.559L413 172l-2 1-1 3h-2l-.25 2.875L407 182c-2.047 1.195-2.047 1.195-4 2l.367-3.102q.677-5.733 1.342-11.467l.582-4.95q.421-3.57.834-7.141l.265-2.21c.76-6.642 1.393-12.867-1.39-19.13a90 90 0 0 0-4-4v-2l-2-1c2.667-1.333 4.167-.671 7 0l-.656-1.863-.844-2.45-.844-2.425C403 120 403 120 403 117"/><path fill="#0fe17f" d="M395 93c2.75.169 2.75.169 5 0l-1 2c-3.062.625-3.062.625-6 1v2l-11-1v-2c-9.712 1.005-19.375 2.364-29 4v2h-2v2h2v2l-7 1 1-3-5-1-1 3c-1.977.73-3.98 1.394-6 2l-3 2c-2.043.195-2.043.195-4.187.125L324 109v2l-4-1c10.663-6.055 21.492-10.782 33-15v2q4.313-.932 8.625-1.875l2.45-.527c3.464-.76 6.781-1.548 10.136-2.715C381.03 89.724 388.413 90.429 395 93"/><path fill="#139559" d="M285 231h5v3h2l1-2 .791 1.965C298.93 246.671 304.173 259.101 311 271h-3a805 805 0 0 1-2.5-4.375l-1.406-2.46C303 262 303 262 303 260h-2v-3l-3 9c-2.917-3.486-4.702-7.365-6.5-11.5l-.932-2.135C287.693 245.59 285 238.437 285 231"/><path fill="#0f3122" d="M309 271c3.564 1.188 4.159 2.26 6.313 5.25 4.777 6.297 9.728 11.03 17.687 12.75 5.462.423 8.926-.52 13.813-2.937l3.394-1.653L353 283l2-1 3 2c-3.052 2.32-6.169 4.531-9.316 6.719-1.744 1.25-1.744 1.25-3.211 2.937C344 295 344 295 341 295l-2.062.625L337 296l-2-2c-2.575.165-2.575.165-5 1l-1 2c-10.017-4.521-15.341-14.559-20-24z"/><path fill="#19c975" d="M422 225c1.335 4.005.291 5.622-1.176 9.555l-.73 1.969a810 810 0 0 1-2.406 6.351l-.824 2.178C411.254 259.863 405 274.308 397 288l-2-2 1.875-3.125c1.832-3.19 3.089-6.334 4.125-9.875h2v-3c-3.628 1.866-3.628 1.866-6 5l-2-1 1.102-1.582c3.505-5.133 6.602-10.374 9.523-15.86 1.117-2.078 2.283-4.1 3.5-6.12 2.837-5.2 4.854-10.684 6.91-16.231.34-.893.678-1.787 1.027-2.707l.91-2.469C419 227 419 227 422 225"/><path fill="#156641" d="M278 203h2l2 5h2c1.344 3.58 2.673 7.164 4 10.75l1.156 3.078 1.094 2.969 1.016 2.73C292 230 292 230 292 234h-2v-3h-5l.691 1.828.872 2.422.878 2.39c.604 2.551.406 3.913-.441 6.36-1-1-1-1-1.062-3.562L286 238h-2l-.445-2.098c-1.587-6.922-3.747-13.279-6.661-19.736-1.641-3.803-2.296-6.214-.894-10.166z"/><path fill="#079454" d="M394 206h3c1.487 6.226.307 9.89-2.312 15.625l-.975 2.234a518 518 0 0 1-1.876 4.247A165 165 0 0 0 389 235h-2l.125 2.188c-.134 3.02-.877 5.081-2.125 7.812l-4-2 2-6h-3l-1-2a128 128 0 0 1 2.938-7.625l.88-2.14Q383.9 222.613 385 220h2l2-5h2l.375-2.25c.58-2.551 1.362-4.477 2.625-6.75"/><path fill="#30a26e" d="m382 121 2 2 2.063-.125c5.423.23 10.081 2.35 14.003 6.102 1.71 1.964 3.33 3.971 4.934 6.023l2 2c1.371 4.454.977 8.91.688 13.5l-.14 2.392c-.44 6.782-1.33 13.42-2.548 20.108h-2l.188 3.125c-.2 4.142-1.024 6.38-3.188 9.875l-2 1 .77-3.008c.916-3.602 1.81-7.21 2.695-10.82q.725-2.932 1.469-5.86c2.326-9.796 4.894-21.577-.672-30.699-3.868-4.945-8.006-7.485-14.262-8.613-7.855-.584-15.3.495-23 2l1.5-2.375c1.665-2.41 1.665-2.41 1.5-4.625h2v2q2.159-.427 4.313-.875l2.425-.492c2.515-.578 2.515-.578 5.262-2.633"/><path fill="#106340" d="m381 234 3 3c-3 9-3 9-6 11a101 101 0 0 0-3 6l-1 2c.892 2.117.892 2.117 2 4l-1.496 1.102c-4.32 3.339-4.32 3.339-6.442 8.273L368 272l-3 1c-1.927 2.71-3.683 5.49-5.437 8.313-2.064 2.228-3.586 2.39-6.563 2.687h-3l2.938-2.625c9.052-9.107 14.696-21.123 20.194-32.57a623 623 0 0 1 3.743-7.618l1.117-2.269C379 237 379 237 381 234"/><path fill="#8a1e55" d="M145 62c0 3 0 3-1 5h-2l-.828 2.652c-1.101 3.145-2.393 5.955-3.922 8.91-12 23.537-12 23.537-15.25 49.438h2a429 429 0 0 1-1.312 5.938l-.739 3.34L121 140l-3 1c-2.231-7.414-1.986-15.802 1.207-22.832 1.425-3.896 1.75-8.018 2.266-12.117.62-3.593 1.216-6.95 4.09-9.364 2.398-2.815 2.14-6.068 2.437-9.687h2c1.439-2.724 2.485-5.366 3.375-8.312C135.767 71.439 138.853 66.61 145 62"/><path fill="#cd4b8f" d="m193 72 3 1c.688 2.063.688 2.063 1 4h2c2.094 3.402 2.18 6.053 2 10h2v2h2l1 4h2l.938 2.875c.936 2.986.936 2.986 2.062 5.125l-1 3c.532 2.246.532 2.246 1.438 4.563C213 112.83 213 112.83 213 115l2 1c2.201 3.697 3.062 7.722 4.121 11.855L220 130l3 1c1 3 1 3 .125 4.938L222 138a115 115 0 0 0-1 4l-.851-2.389C208.275 106.308 208.275 106.308 192 75l-1-2z"/><path fill="#0bdc78" d="M320 111c-.368 2.668-.82 3.82-2.75 5.75-2.63 1.46-4.287 1.497-7.25 1.25v4h-2v2l1.793-1.094 2.394-1.406 2.356-1.406c2.698-1.201 4.538-1.301 7.457-1.094-4.198 3.391-8.583 5.52-13.687 7.25-4.698 1.68-8.605 4.418-12.7 7.227C292.998 135 290.98 135.603 288 136c.091-2.925.182-5.23 1-8 2.633-2.215 2.633-2.215 6.125-3.937q1.905-.98 3.805-1.965l2.01-1.015c4.211-2.214 8.217-4.787 12.26-7.29C317.787 111 317.787 111 320 111"/><path fill="#13c16f" d="M299 257h2v3h2q2.693 4.841 5.375 9.688l1.54 2.763 1.483 2.686 1.365 2.46c1.246 2.42 2.268 4.861 3.237 7.403l-2-1v-2l-3-1-1-5c-1.975.348-1.975.348-4 1l-1 2h2l.777 1.582c3.075 5.91 6.84 10.856 11.137 15.938A122 122 0 0 1 324 303c-11.398-4.747-17.66-18.634-23-29l-1.738-3.254c-2.076-4.517-1.761-9.061-.262-13.746"/><path fill="#f954c3" d="M249 112c5.756 5.756 6.883 15.268 8 23h2l.375 2.438L260 140l2 1-2 4h-3v3h-3c-1.61-6.054-3.067-12.051-4-18.25-.56-3.655-1.302-6.884-2.687-10.312C246 116 246 116 247 113z"/><path fill="#0f5131" d="m207 171 3 1v2l8 2c-9.35 4.999-21.278 9.536-32 9l4-2-3-1v-3l-3-1 1.896-.535q4.24-1.199 8.479-2.403l2.984-.841 2.852-.81 2.634-.747c2.175-.606 2.175-.606 4.155-1.664"/><path fill="#ba2e79" d="M165.938 55.063 169 56l-2 4 14-1v3l1.625.688c4.482 2.476 8.55 5.387 10.375 10.312-2.922-1.33-5.084-2.826-7.437-5-5.086-4.399-9.183-5.478-15.875-5.309-8.59.987-14.134 4.96-19.688 11.309l-4 4c3.085-8.336 9.863-23.097 19.938-22.937"/><path fill="#9a2d60" d="M130 39h1v6h3v2l-4 1v-2c-2.143 1.837-3.138 3.29-4.375 5.875-1.765 3.395-3.822 5.55-6.625 8.125l1 3-6 2v3l-3 3c-.59 1.946-.59 1.946-1 4a88 88 0 0 1-2 4h-2l-.812 2.375C104 84 104 84 101 86c5.452-17.787 16.542-33.426 29-47"/><path fill="#0a2519" d="m182 180-2 1 4 7c-6.783 1.42-13.067 2.227-20 2l-2-4-4 6-3-2c1.25-3.653 1.671-4.78 5-7 2.4-.614 4.82-1.146 7.25-1.625 1.284-.26 2.568-.52 3.89-.79 3.692-.56 7.134-.691 10.86-.585"/><path fill="#17271d" d="M394 287h2c-3.175 11.482-13.993 22.405-23 30-2.824 1.3-2.824 1.3-5 2 1.25-3.653 1.671-4.78 5-7l-1-2-3-1-1 2-2-2 2.492-1.215c9.251-4.71 16.891-10.192 23.508-18.348z"/><path fill="#1ab26b" d="m267 142 2 1a483 483 0 0 1-3.375 3l-1.898 1.688C262 149 262 149 260 149v2l12-2c-2.946 2.946-5.251 4.342-8.937 6.188l-3.153 1.605C257 158 257 158 253 158v-2c-3.793 1.002-6.715 1.81-10 4a98 98 0 0 1-4.625 1.563c-2.947.776-2.947.776-5.375 2.437-2 .04-4 .043-6 0 1-2 1-2 3.773-3.078l3.602-1.172c5.766-1.944 10.952-4.34 16.223-7.418 2.41-1.336 4.825-2.363 7.402-3.332v-2l4-1v-2c2.375-1.062 2.375-1.062 5-2"/><path fill="#f747a3" d="M202 35c4.007 1.366 6.677 3.171 9.813 6l2.394 2.125C216 45 216 45 216 47h4a65 65 0 0 1 5 6.938l1.337 2.064c3.071 4.826 5.6 9.652 7.663 14.998h-2a805 805 0 0 1-2.5-4.375l-1.406-2.46C227 62 227 62 227 60l-3-1-1-3a178 178 0 0 0-4-2c-2.25-2-2.25-2-4-4v-2l-1.672-.316c-2.818-.828-5.043-2.14-7.578-3.621-4.594-2.572-8.593-4.09-13.75-5.063v-1l3.875-.375c3.473-.315 3.473-.315 6.125-2.625"/><path fill="#be3c7a" d="M166 23v2l-2.375.25c-2.772.478-2.772.478-3.937 2.813L159 30l-3-1-1 3-1.898-.035-2.477-.027-2.46-.036c-2.214-.047-2.214-.047-4.165 1.098v3h-2l1 4-1.734-.621c-2.865-.48-4 .175-6.516 1.559l-2.14 1.152L131 43c-.266-2.285-.266-2.285 0-5 8.257-8.458 23.081-15.581 35-15"/><path fill="#01481c" d="m396 267 2 1c-1.687 10.072-13.137 21.094-20.816 27.262-11.791 8.316-22.091 10.431-36.184 9.738l-1-2c2.747-.989 4.187-.963 7.11-.387 4.733.47 8.104-.441 12.577-1.863l2.26-.66c3.956-1.207 6.79-2.491 10.053-5.09h3l.625-2.375c1.847-3.526 3.703-3.453 7.375-4.625.969-2.032.969-2.032 1-4h2l-1-6h4l1-2h3l-1-5h3z"/><path fill="#0cdb78" d="M371 303v3l-7 1v2c-5.314 1.757-9.98 2.337-15.562 2.313l-2.21.048c-4.816.005-7.998-.828-12.228-3.361v-2c5.625-1.125 5.625-1.125 9 0 7.733.55 13.937.21 21-3 3.066-.999 3.799-1.067 7 0"/><path fill="#133427" d="m266 182 2 1c-3.402 2.748-7.485 6-12 6v2l-2.312.875c-2.838 1.088-2.838 1.088-5.688 3.125-2.687.125-2.687.125-5 0l-.625 2.438L241 200c-1.993.374-3.995.7-6 1q-3.403 1.207-6.75 2.563C222.201 206 222.201 206 220 206v-2h2v-2l1.574-.734c4.26-2.048 7.76-4.247 11.426-7.266h2c1.65-.291 3.295-.607 4.938-.937l2.652-.528c2.534-.52 2.534-.52 5.41-1.535v-2l2.738-1.023 3.575-1.352 3.55-1.336c3.223-1.204 3.223-1.204 6.137-3.289"/><path fill="#b03f76" d="M126 101c1.123 2.245 1.134 3.515 1.125 6l.008 2.125C127 111 127 111 126 113l1 3 3 1c-2.157 7.463-4.61 14.798-7.187 22.125l-1.116 3.188Q120.351 146.157 119 150c-1.007-3.122-.973-4.99-.004-8.11l.693-2.285.749-2.355.736-2.402c.6-1.952 1.212-3.9 1.826-5.848l-2-1c.821-22.821.821-22.821 5-27"/><path fill="#3db883" d="m416 97-3 1-2.062-1.375C406.75 94.309 402.706 94.347 398 94c-3.19-.464-5.945-.982-9-2-6.942-.55-12.965-.04-19.547 2.2C364.07 95.956 358.658 97 353 97v-2q4.029-1.227 8.063-2.437l2.279-.698C380.85 86.635 400.193 87.316 416 97"/><path fill="#21ca7a" d="m328 298 2.176 1.313c10.063 5.413 18.635 5.325 29.824 4.687-3.372 3.103-5.67 3.358-10.187 3.25l-3.461-.078A148 148 0 0 1 334 306v2l2.313.375C339 309 339 309 342 311c2.387.295 4.786.493 7.188.625l3.855.227L356 312v1c-10.589.651-20.069.41-28.852-6.445-1.398-1.368-1.398-1.368-3.148-3.555l4-1-1-2z"/><path fill="#1b5238" d="M303 163v2q-5.895 3.396-11.798 6.781-2.007 1.152-4.013 2.308a3082 3082 0 0 1-5.771 3.313l-1.81 1.045c-6.576 3.76-6.576 3.76-9.796 3.115L268 181l4-1-1-4 2.813-.312c3.216-.694 4.347-1.03 6.187-3.688v-3l2.938.313c5.108.041 8.851-2.697 13.062-5.313 2.463-1.231 4.28-1.072 7-1"/><path fill="#147649" d="m231 164-1 3-6 1 1 3 2 1v-2h5c-4.675 4.268-10.705 5.815-16.875 6.313C212 176 212 176 209 174l1-2-2-1a995 995 0 0 1 8.125-3.5l2.305-1.012c4.365-1.844 7.735-2.92 12.57-2.488"/><path fill="#f840b1" d="M251 136h1l2 12c-8.75 3-8.75 3-11 3v2c-4.685 2.489-7.951 2.01-13 1l-1-2-2 1 1-4h3l1 2c4.786-.3 7.468-2.713 11.066-5.59C245 144 245 144 247.937 143l2.063-1c.898-3.053.898-3.053 1-6"/><path fill="#12844e" d="M285 231h5v3h2l1-2q2.257 5.435 4.5 10.875l1.3 3.129 1.231 2.988 1.143 2.761C302 254 302 254 302 256c-3-1-3-1-4.168-3.215l-1.02-2.722-1.042-2.715C295 245 295 245 295 243h-4l-1 5c-2.536-2.536-2.793-4.469-3.625-7.937-.39-1.592-.39-1.592-.79-3.215C285 234 285 234 285 231"/><path fill="#06e57a" d="m363 98-2 2 3.184-.035c7.355-.056 14.517-.008 21.816 1.035v2h4v2l2.313.875C395 107 395 107 398 109v2h2l3 6c-3.412-1.137-4.119-2.043-6-5v-2l-1.937-.75c-1.739-.71-3.467-1.448-5.153-2.273-4.984-2.403-8.395-3.322-13.91-2.977l-1-1a99 99 0 0 0-5.348-.098l-3.271.01-3.443.025-3.456.014q-4.241.018-8.482.049v-2h2v-2c6.286-2.429 6.286-2.429 10-1"/><path fill="#db358d" d="M249 132c2.089 3.395 2.344 6.048 2 10-2.205 2.205-4.28 2.924-7.133 4.066-2.001 1.001-3.363 2.16-4.992 3.684C236 152 236 152 233.313 151.875L231 151l-3-1-1-2-2-3 2-1v2c3.417.167 3.417.167 7 0l2-2 2.188.313c4.02-.447 5.663-2.541 8.363-5.422 1.727-2.253 2.363-4.05 2.449-6.891"/><path fill="#ec75b3" d="m158 65 2 1-2.875 2.5c-12.084 12.133-18.962 29.64-25.082 45.305C131 116 131 116 129 117c.308-2.004.65-4.003 1-6l.406-2.367.469-2.445.43-2.333L132 102l3-1c.649-1.842.649-1.842 1-4q.752-2.136 1.563-4.25l.816-2.14L139 89h2l.277-1.64C143.964 78.587 151.337 71.023 158 65"/><path fill="#224635" d="M278 203h2l2 5h2c1.175 3.101 2.338 6.206 3.5 9.313l1.012 2.67.957 2.568.888 2.364C291 227 291 227 291 230h-2l-5-14-5 1h-2c-1.623-4.105-2.38-6.746-1-11z"/><path fill="#17d277" d="M315 125c-2.316 2.316-3.937 2.827-7 4-6.785 2.663-12.786 6.248-18.887 10.195-4.665 2.705-8.707 4.123-14.113 3.805 1.375-1.5 1.375-1.5 3-3h2l1-3h2v-2l5-2v3c5.3-1.869 9.822-4.851 14.56-7.81l1.944-1.194 1.744-1.088c3.365-1.744 5.1-2.125 8.752-.908"/><path fill="#29312e" d="M272 188h3l.77 2.3 1.043 3.012 1.019 2.989c.97 2.697.97 2.697 2.762 4.293 2.555 2.555 2.121 5.935 2.406 9.406-2.36-2.36-2.491-3.779-3-7h-2l-.875 1.875C276 207 276 207 274 209c-1.861-4.705-2.25-8.876-2.125-13.875l.027-2.086c.024-1.68.06-3.36.098-5.039"/><path fill="#711b47" d="M116 128h1l.402 2.52.535 3.292.528 3.27c.474 2.967.474 2.967 1.535 5.918-.559 2.918-.559 2.918-1.437 6.188l-.872 3.292L117 155c-3.33-2.22-3.54-2.615-4.375-6.312-1.235-6.88.25-14.436 3.375-20.688"/><path fill="#04d475" d="M395 93c2.75.169 2.75.169 5 0l-1 2c-3.062.625-3.062.625-6 1v2l-11-1v-2l-11-1 1-2c7.472-2.091 15.812-1.805 23 1"/><path fill="#f442a9" d="M138 75c3 3.625 3 3.625 3 7l5-5c0 3.37-.705 4.713-2.312 7.625l-1.301 2.414C141 89 141 89 138 90c-1.716 3.503-1.716 3.503-3 7-2-2-2-2-2.195-3.945L133 87h1l.621-2.117.816-2.758.81-2.742C137 77 137 77 138 75"/><path fill="#139453" d="m368 127-1 2h-2v2q-4.155 1.72-8.312 3.438l-2.381.986-2.295.947-2.11.873c-2.923 1.162-5.859 1.995-8.902 2.756l-3 1c1-3 1-3 2.75-4l2.25-1 2.563-1.687L348 133l3 1 1-3c5.003-2.817 10.223-4.608 16-4"/><path fill="#19c278" d="M401 93c7.446 1.2 12.778 3.777 19 8l2.293 1.504L424 104v3l3 1v3h-2l-2-3-3-1-.875-2c-.968-2.258-.968-2.258-3.562-2.75-2.632-.299-2.632-.299-5.563-.25-2.187-1.812-2.187-1.812-4-4v-3l-5 1z"/><path fill="#2bcd83" d="M320 111c-.368 2.668-.82 3.82-2.75 5.75-2.63 1.46-4.287 1.497-7.25 1.25v4c-.675.182-1.35.364-2.047.55l-2.703.763-2.672.738c-2.649.975-4.356 2.245-6.578 3.949-3.25.688-3.25.688-6 1 2.793-3.246 6.413-5.18 10.063-7.312l4.046-2.391 2.002-1.178c3.371-1.997 6.7-4.063 10.034-6.123C318 111 318 111 320 111"/><path fill="#2ed081" d="M352 96v2l-1.863.77-2.45 1.043-2.425 1.019C343 102 341.742 103.182 340 105c-5.36 3.553-9.631 4.455-16 4v2l-4-1c7.608-4.252 15.205-8.276 23.313-11.5l1.937-.772C349.716 96 349.716 96 352 96"/><path fill="#195a40" d="m365 265 1 2 2 1c-.583 3.384-1.608 4.63-4 7q-1.458 2.048-2.875 4.125c-2.76 3.74-2.76 3.74-5.812 4.875H350l1.25-1.11c5.633-5.28 9.64-11.388 13.75-17.89"/><path fill="#0d6139" d="M210 172v2l8 2a64 64 0 0 1-8.5 3.688l-2.281.824c-2.455.54-3.863.286-6.219-.512l3-3-5 1v-2l-3-1a506 506 0 0 1 5.313-2.062l2.988-1.16C207 171 207 171 210 172"/><path fill="#187047" d="M320 151c-.598 3.696-.917 3.94-4.203 6.36q-2.011 1.214-4.047 2.39l-2.027 1.246c-3.682 2.177-6.31 3.586-10.723 3.004.563-1.937.563-1.937 2-4 3.625-.75 3.625-.75 7-1v-6l4 1 1-2c2.386-.612 4.535-1 7-1"/><path fill="#e04c96" d="m224 142 .813 1.875c1.143 2.425 1.143 2.425 4.187 4.125l-.625 2.188c-.435 3.258.208 4.895 1.625 7.812 3.61-.656 3.61-.656 7-2 2-.04 4-.043 6 0-1.39 2.778-2.958 2.996-5.812 4.125l-2.645 1.07C232 162 232 162 228 162q-1.545-4.183-3.062-8.375l-.893-2.406-.83-2.305-.778-2.126C222 145 222 145 223 143z"/><path fill="#0e0b0e" d="m62 198 4 5-2 3v4c-5.227 5-5.227 5-8 5 .568-5.455 1.946-9.91 4-15h2z"/><path fill="#0fd97b" d="M318 288q1.659 1.404 3.313 2.813l1.863 1.582c3.584 3.154 5.165 4.728 5.824 9.605l-5 1-6-7h2z"/><path fill="#025e2d" d="m396 267 2 1c-1.603 9.572-11.63 18.202-18 25l-1-3 1.938-.75c2.25-1.066 2.25-1.066 2.812-3.375L384 284h2l-1-6h4l1-2h3l-1-5h3z"/><path fill="#41b57c" d="M406 144h1c.229 9.896-.126 19.23-2 29h-2l.188 3.125c-.2 4.142-1.024 6.38-3.188 9.875l-2 1 .77-3.008c3.376-13.281 6.568-26.242 7.23-39.992"/><path fill="#028242" d="m302 130 2 1c-2.235 3.41-4.523 4.95-8 7l-2 3c-2.625.188-2.625.188-5 0v2l-2.25.188c-3.58 1.057-4.551 2.88-6.75 5.812l-3 1c.305-3.079.493-4.564 2.886-6.622l2.446-1.386 2.67-1.55 2.81-1.567q2.73-1.564 5.458-3.133l2.456-1.38c2.214-1.326 4.24-2.776 6.274-4.362"/><path fill="#b02b6f" d="M126 101c1.584 3.168 1.299 6.542 1 10l-2 4c-.299 3.458-.584 6.832 1 10l-1 3-3 1c-2.16-8.987-.285-18.485 3-27z"/><path fill="#df62b0" d="M248 104c2.519 2.519 3.147 4.753 4.348 8.11l1.334 3.726.686 1.948c.688 1.947 1.387 3.89 2.087 5.833 1.944 5.468 3.739 10.618 4.545 16.383l-2-2v-3h-2c-1.37-3.227-2.428-6.448-3.363-9.824-1.807-8.162-1.807-8.162-5.637-15.176-.04-2-.043-4 0-6"/><path fill="#21131a" d="M111 164h1c-.457 6.968-1.558 13.824-5 20-2.936 2.179-4.318 3-8 3 1-2 1-2 3-2.687l2-1.313c.819-3.562.819-3.562 1-7h2v-5l-2-1 5-1z"/><path fill="#cf3586" d="M130 91h1q-.214 2.844-.437 5.688l-.247 3.199A70 70 0 0 1 129 108l2-1c-.615 6.523-.615 6.523-2.562 8.938-.475.35-.95.7-1.438 1.062-1.408-2.237-2.078-3.467-1.687-6.125L126 108q.203-2.437.375-4.875c.42-4.604 1.565-8.005 3.625-12.125"/><path fill="#2ab270" d="M422 225c1.157 3.471.83 4.147-.434 7.45l-.966 2.568-1.038 2.67-1.025 2.705A963 963 0 0 1 416 247h-2v-2h-2l.848-2.082c.809-2.048 1.584-4.11 2.336-6.18l1.253-3.425 1.247-3.45C419 227 419 227 422 225"/><path fill="#125f3e" d="M298 164v2h-5c3-2 3-2 5-2m-6 2 1 3q-1.935 1.007-3.875 2l-2.18 1.125C285 173 285 173 283 173v2a418 418 0 0 1-3.812 2l-2.145 1.125C275 179 275 179 272 179l-1-3 2.813-.312c3.216-.694 4.347-1.03 6.187-3.688v-3l3.188.188c3.97-.196 5.654-.891 8.812-3.188"/><path fill="#3bb480" d="M416 98c9.95 3.435 15.912 11.649 20.918 20.496L438 121l-1 2-2-1c-.625-3.062-.625-3.062-1-6h-2v-3l-4 1-.875-2.937c-.767-3.17-.767-3.17-3.125-4.063v-3l-1.75-.75c-2.55-1.417-4.268-3.126-6.25-5.25"/><path fill="#174230" d="m266 182 2 1c-3.402 2.748-7.485 6-12 6v2l-2.312.875c-2.838 1.088-2.838 1.088-5.688 3.125-2.687.125-2.687.125-5 0v2l-5-1 2-1 1-2c2.066-.633 2.066-.633 4.563-1.125l2.503-.508L250 191v-2l2.738-1.023 3.575-1.352 3.55-1.336c3.223-1.204 3.223-1.204 6.137-3.289"/><path fill="#1cc473" d="m394 275 1 4h-2l1 4-2.375 1.25c-2.794 1.863-3.222 2.85-4.625 5.75-1.324.685-2.66 1.349-4 2l-2.562 2.625C378 297 378 297 375 297v2l-4-1 2.02-1.293c8.09-5.489 16.522-12.79 20.98-21.707"/><path fill="#08140f" d="m187 208 2 1-1 3c2.915-1.074 4.778-1.778 7-4 3.125-.125 3.125-.125 6 0-.5 2.375-.5 2.375-2 5-5.13 1.826-9.596 2.225-15 2 .613-2.962 1.254-4.38 3-7"/><path fill="#118a53" d="M231 164c3.375-.187 3.375-.187 7 0l2 3c-4.554 2.666-7.74 3.316-13 3v2l-3-1c-.687-2.062-.687-2.062-1-4h7z"/><path fill="#0c7e4c" d="m381 234 3 3c-3 9-3 9-6 11h-3l-1 3-1-2c1.145-2.715 1.145-2.715 2.813-5.937l1.644-3.215C379 237 379 237 381 234"/><path fill="#30a06b" d="M397 187c1.91 5.395-.376 10.746-2 16a199 199 0 0 1-3 6l-.5 3.188c-.55 3.09-1.109 3.9-3.5 5.812l-2 2a52 52 0 0 1 3.031-11.73l1.207-3.182 1.262-3.275 2.469-6.481 1.107-2.884A148 148 0 0 0 397 187"/><path fill="#04461f" d="M382 300c.75 1.75.75 1.75 1 4-1.75 2.25-1.75 2.25-4 4h-3l-1 4-6-3-1 2-2-2 2.738-1.46 3.575-1.915 1.802-.96c2.719-1.459 5.316-2.952 7.885-4.665"/><path fill="#9e2162" d="M145 62c0 3 0 3-1 5h-2l-.805 2.602c-1.205 3.427-2.667 6.54-4.32 9.773l-1.633 3.21L134 85c-1.643-4.929.097-9.29 2-14 2.442-3.558 5.087-7.043 9-9"/><path fill="#238a5a" d="M440 166h1c-.413 7.783-2.186 14.726-4.562 22.125l-.999 3.188Q434.233 195.16 433 199h-1v-10h2l.75-3.062c1.664-6.669 3.47-13.3 5.25-19.938"/><path fill="#ec37a0" d="M247.246 144.32 249 145l-1.937.813c-2.394 1.074-2.394 1.074-3.063 4.187a101 101 0 0 1-6 3l-1 1q-3.5.061-7 0l-1-2-2 1 1-4h3l1 2c4.848-.303 7.497-2.78 11.035-5.82C245 144 245 144 247.246 144.32"/><path fill="#0ade7b" d="m403 117 1 2h2v4l2 1c2.01 3.953 2.43 7.672 2.75 12.063l.297 3.66C411 143 411 143 409 147v-13l-4-2 .125-3.75c.012-3.333-.406-5.35-2.125-8.25z"/><path fill="#2bc97f" d="m288 129 2 3c-4.75 3-4.75 3-7 3v2c-3 3.09-4.452 3.964-8.812 4.25L271 141c3.17-3.484 6.73-5.865 10.75-8.25l1.824-1.102A899 899 0 0 1 288 129"/><path fill="#0cac64" d="m382 121 2 2 2.125-.062c4.07.088 7.111 1.53 10.875 3.062v1h-29v-4h2v2q2.159-.427 4.313-.875l2.425-.492c2.515-.578 2.515-.578 5.262-2.633"/><path fill="#2b7e59" d="M292 232c2.641 3.962 4.292 8.18 6.125 12.563l1.129 2.654 1.066 2.537.977 2.322C302 254 302 254 302 256l-3-1a90 90 0 0 1-3-7.375c-2.097-5.863-2.097-5.863-6-10.625v-3h2z"/><path fill="#1b5c3f" d="M285 216c1.188 2.375 1.188 2.375 2 5l-1 3-3-1v6c-1.625-2.437-2.657-4.373-3.687-7.062l-.825-2.098C278 218 278 218 279 216c3.51-1.245 3.51-1.245 6 0"/><path fill="#a2376b" d="M130 39h1v6h3v2l-4 1v-2l-1.25 1.25L123 53v-2h-2c1.44-3.213 3.23-5.62 5.563-8.25l1.878-2.14z"/><path fill="#12ad66" d="M299 257h2v3h2c1.688 2.375 1.688 2.375 3 5l-1 2h-2l-2 5c-2.486-2.59-2.989-3.845-3.25-7.5.192-2.686.435-4.954 1.25-7.5"/><path fill="#04d673" d="M386 101v2h4v2l2.313.875C395 107 395 107 398 109v2h2l3 6c-3.412-1.137-4.119-2.043-6-5v-2l-1.937-.75c-1.739-.71-3.467-1.448-5.153-2.273-4.943-2.383-8.421-3.444-13.91-2.977l-1-2c3.724-.693 7.21-1.111 11-1"/><path fill="#21925c" d="M389 215c2 3 2 3 1.875 5.563C390 223 390 223 388.063 223.938c-2.364.922-2.364.922-3.063 3.812l-1 3.25a124 124 0 0 1-4 6l-1-2a128 128 0 0 1 2.938-7.625l.88-2.14Q383.9 222.613 385 220h2z"/><path fill="#d06dad" d="M261 141h1v5l-4 1v2q-2.621 1.477-5.25 2.938l-2.953 1.652c-2.333 1.176-4.25 1.931-6.797 2.41 1.25-2.5 1.25-2.5 3-5h4v-2l7-1v-3h3z"/><path fill="#28b975" d="M377 91v1c-7.836 2.501-15.719 5-24 5v-2c8.19-2.917 15.286-4.629 24-4"/><path fill="#2bbd75" d="M412 245h2c1.408 4.546.486 7.043-1.437 11.313l-1.434 3.238L410 262h-1c-1.468-6.89-.78-11.046 3-17"/><path fill="#0dba6a" d="M400 128q3.012.43 6 1l.375 1.938L407 133l2 1v15h-1l-.262-2.45c-.872-6.635-1.431-10.36-6.738-14.55v-2l-2-1z"/><path fill="#d8579e" d="M137 95h2c-2.26 7.134-4.692 14.275-8 21l-2 1c.308-2.004.65-4.003 1-6l.406-2.367.469-2.445.43-2.333L132 102l3-1c.672-1.936.672-1.936 1-4z"/><path fill="#14c278" d="m431 113 1 3h2l1 6 3 1c1.12 2.891 1.108 5.678 1.063 8.75l-.028 2.422L439 136h-1l-1-7-3 1-.113-2.117-.2-2.758-.175-2.742c-.3-2.745-.3-2.745-3.512-4.383z"/><path fill="#01461e" d="M289 248c3.33 3.854 5.11 8.38 7.125 13l1.09 2.445c1.542 3.501 2.943 6.812 3.785 10.555-3-1-3-1-4.027-2.715l-.91-2.223-1.016-2.433L294 264l-1.11-2.785a665 665 0 0 1-2.058-5.246c-.672-1.934-.672-1.934-1.832-2.969a100 100 0 0 1 0-5"/><path fill="#f24eb2" d="M242 110c2.608.982 3.763 1.498 4.977 4.066l.648 2.496.715 2.704L249 122l.629 2.484c.935 3.9 1.632 7.478 1.371 11.516-2.371-4.537-3.946-9.3-5.625-14.125l-.984-2.785-.93-2.66-.85-2.43c-.611-2-.611-2-.611-4"/><path fill="#23b46b" d="m333 304 4 2h-3v2l2.313.375C339 309 339 309 342 311c2.387.295 4.786.493 7.188.625l3.855.227L356 312v1c-10.052.618-18.048.256-27-5l-1-2h5z"/><path fill="#d7579f" d="M218 48c4.418 1.5 6.231 4.91 8.563 8.688l1.17 1.818c2.539 4.027 4.492 8.077 6.267 12.494h-2a805 805 0 0 1-2.5-4.375l-1.406-2.46C227 62 227 62 227 60l-3-1-1-3-1.437-1.375c-1.934-2.01-2.646-4.016-3.563-6.625"/><path fill="#0b4825" d="M394 287h2c-1.42 5.679-4.394 9.532-8 14l-1-2-4 1 1.137-1.32 1.55-1.805 1.653-1.918a240 240 0 0 0 4.41-5.394z"/><path fill="#082919" d="M330 290h13c-2 5-2 5-4 5.938l-2 .062-2-2h-4z"/><path fill="#003d14" d="m331 309 1.66.656c10.563 3.71 21.637 3.348 32.34.344-1 2-1 2-3.266 2.852-7.493 1.942-14.993 3.245-22.734 2.148-2.234-1.48-2.234-1.48-4-3-2.147-.705-2.147-.705-4-1z"/><path fill="#27ce7c" d="M375 305q-2.904 1.472-5.812 2.938l-3.27 1.652c-3.573 1.727-6.223 2.535-10.148 2.508l-2.432-.01-2.526-.026-2.56-.013q-3.126-.02-6.252-.049v-1c1.502-.09 1.502-.09 3.035-.184l4.027-.253 3.973-.247c3.702-.295 7.299-.749 10.965-1.316v-2q2.183-.794 4.375-1.562l2.46-.88C373 304 373 304 375 305"/><path fill="#013718" d="m318 284 2.125 2.313c2.852 2.666 5.367 4.05 8.875 5.687l2 2-2 3c-3.452-1.477-5.65-3.438-8.25-6.125l-2.14-2.195L317 287z"/><path fill="#2cab6c" d="m406 266 2 1-11 21-2-2 1.875-3.125c1.832-3.19 3.089-6.334 4.125-9.875h2l.938-2.375C405 268 405 268 406 266"/><path fill="#5f7b74" d="M249 154v2c-4.113 3.27-8.131 4.884-13.145 6.387-1.848.457-1.848.457-2.855 1.613-2 .04-4 .043-6 0 1-2 1-2 3.984-3.184l3.766-1.254c4.342-1.448 9.872-5.562 14.25-5.562"/><path fill="#e15ead" d="M239 84h2q1.477 3.34 2.938 6.688l.841 1.896c1.5 3.45 2.658 6.69 3.221 10.416l-3-1a172 172 0 0 1-2-7l-2-2c-1.599-3.375-2-5.166-2-9"/><path fill="#cc4386" d="m193 72 3 1c.688 2.063.688 2.063 1 4h2c1.858 3.135 2.201 5.375 2 9l-2-3-3-1c-1.387-2.066-1.387-2.066-2.687-4.562l-1.325-2.504L191 73z"/><path fill="#c12c7e" d="m160 48-2.082 1.793-2.73 2.395-2.708 2.355c-2.373 2.351-3.852 4.565-5.48 7.457h-1l1-7h2l.875-1.875c1.985-3.75 5.855-7.26 10.125-5.125"/><path fill="#1a945e" d="M240.313 160.313 242 161l-2 1 2 1 3-2c2.688-.125 2.688-.125 5 0-3.378 2.654-6.169 4.771-10.5 5.313-2.965-.371-4.294-1.352-6.5-3.313 4.43-3.077 4.43-3.077 7.313-2.687"/><path fill="#67988a" d="m267 142 2 1a728 728 0 0 1-9 7l-1.793 1.39c-3.654 2.668-3.654 2.668-6.582 2.36L250 153c5.75-4 5.75-4 8-4v-2l4-1v-2c2.375-1.062 2.375-1.062 5-2"/><path fill="#02a957" d="M339 112c-2.434 2.947-4.316 3.339-8 4l-2 2-2.25.875c-2.933 1.082-2.933 1.082-5.875 3.313L318 124l-3-1c19.763-12.412 19.763-12.412 24-11"/><path fill="#05c768" d="m360.23 101.902 2.432.01 2.526.025 2.56.014q3.126.02 6.252.049v1l-2.414.148c-5.535.391-10.357.906-15.586 2.852-2.327.375-4.66.72-7 1l1-2h3v-2c2.766-.922 4.383-1.118 7.23-1.098"/><path fill="#ee4194" d="M166 23q4.688.46 9.375.938l2.695.263 2.578.264 2.38.238C185 25 185 25 187 26c.625 2.563.625 2.563 1 5h-3l-1-4-21-1 3-1z"/><path fill="#0aaa61" d="M400 200h2c-1.75 7.75-1.75 7.75-4 10l-1-4h-3l-2 6c-1-3-1-3 .438-6.187.515-.929 1.03-1.857 1.562-2.813l4 1v-2h2z"/><path fill="#0a3b25" d="M180 179h7v3l4 1-5 1v2h-4c-2-4.75-2-4.75-2-7m2 3 1 2Z"/><path fill="#181d1a" d="M368 320a668 668 0 0 1-5.625 2.938l-3.164 1.652c-3.135 1.377-5.826 2.008-9.211 2.41 3.706-4.268 6.512-5.758 12-7 2.49-1.245 3.41-.777 6 0"/><path fill="#18cd76" d="M407 149h2c.35 8.256-.056 15.237-3 23-1.025-3.075-1.002-4.515-.66-7.668l.283-2.705.315-2.815.302-2.85q.372-3.481.76-6.962"/><path fill="#0d321c" d="M309 271c3.597 1.199 4.379 2.45 6.625 5.438l1.852 2.433C319 281 319 281 320 283h-3l-1 2a1438 1438 0 0 1-3.5-5.875l-1.969-3.305C309 273 309 273 309 271"/><path fill="#204b39" d="m359 274 3 1c-1.125 2.972-2.223 5.334-4 8-2.785.786-5.1 1-8 1l1.46-1.426c.633-.622 1.264-1.245 1.915-1.887l1.898-1.863c1.908-1.912 1.908-1.912 3.727-4.824"/><path fill="#119e5d" d="m368 127-1 2h-2v2l-10 3c1-4 1-4 3.688-5.75 3.384-1.277 5.733-1.506 9.312-1.25"/><path fill="#8a2157" d="M119 120c1.268 3.654.757 6.49.063 10.25l-.59 3.266L118 136l4-1-1 5-3 1c-1.08-3.522-1.166-6.828-1.187-10.5l-.043-3.406c.22-2.964.684-4.6 2.23-7.094"/><path fill="#13291e" d="M235 199v2q-3.185 1.255-6.375 2.5l-3.586 1.406C222 206 222 206 220 206v-2h2v-2c4.155-2.397 8.241-3 13-3"/><path fill="#e83293" d="m226 144 1 2h4v2h7l-2 4c-2.763-.523-5.326-1.109-8-2l-1-2-2-3z"/><path fill="#208657" d="m336 138 3 2 3-2h3v2a335 335 0 0 1-5.187 3.063l-2.918 1.722c-3.224 1.353-4.62 1.263-7.895.215l2-2h4z"/><path fill="#07d875" d="M414 124c3.922 5.882 3.772 15.08 3 22l-2 2c-.647-8.014-1.167-15.958-1-24"/><path fill="#7f3f5a" d="m100 87 2 1-1 5h-2l-.516 1.836c-1.8 6.223-3.98 12.19-6.484 18.164-1.195-3.585-.728-4.387.617-7.816l1.09-2.815c.385-.967.77-1.935 1.168-2.931l1.145-2.944C98.755 89.49 98.755 89.49 100 87"/><path fill="#dd3d92" d="M201 87h2v2h2l1 4h2l.938 2.875c.936 2.986.936 2.986 2.062 5.125l-2 2c-3.088-5.183-5.635-10.452-8-16"/><path fill="#ad2d6c" d="M165 57h2v3h10v1h-10v2q-2.183.794-4.375 1.563l-2.46.878C158 66 158 66 156 65c5.625-3.875 5.625-3.875 9-5z"/><path fill="#0fc775" d="m383.125 90.813 3.133-.043C389 91 389 91 392 93c-1 1-1 1-2.858 1.022l-2.396-.143-2.588-.147-2.72-.17-2.733-.158Q375.352 93.21 372 93v-1c3.755-.866 7.273-1.163 11.125-1.187"/><path fill="#2ec279" d="M308 284h2l1.375 2.813c3.249 5.762 8.104 10.416 12.625 15.187-3 0-3 0-5.629-2.414a275 275 0 0 1-2.933-3.211l-1.499-1.582c-3.094-3.392-4.786-6.249-5.939-10.793"/><path fill="#1a1318" d="m69 181 1 2-1.062 2.438c-.31.845-.62 1.69-.938 2.562l2 3-6 3c-.195-4.19.025-7.259 2-11z"/><path fill="#cf6da9" d="M243 156c-1.39 2.778-2.958 2.996-5.812 4.125l-2.645 1.07C232 162 232 162 228 162v-4l2.813.125c4.59-.18 7.266-2.344 12.187-2.125"/><path fill="#eb50b1" d="m148 59 2 4a418 418 0 0 1-2.875 3.5l-1.617 1.969L144 70h-2l-1 5h-2c1.875-5.75 1.875-5.75 3-8h2l.875-2.312C146 62 146 62 148 59"/><path fill="#15bd6e" d="m403 173 2 1q-.466 2.407-.937 4.813l-.528 2.707C403 184 403 184 402 187l-2 1v7h-3c.458-5.405 1.17-8.36 4-13 .826-2.971 1.439-5.969 2-9"/><path fill="#362731" d="M272 188h3l3 10-2 1-2-2h-2z"/><path fill="#22141b" d="M79 153c0 7.778 0 7.778-2 11l-2 1c-1.134 2.017-1.134 2.017-2 4 .495-5.64 1.42-9.942 4-15z"/><path fill="#4e1431" d="M93 108h2c.813 3.25.813 3.25 1 7-2.437 2.438-2.437 2.438-5 4-1-2-1-2-.441-4.164l.879-2.461.87-2.477z"/><path fill="#d93488" d="M214 100c2.12 3.534 2.532 6.944 3 11l-4-2v3l2 1h-3c-1.125-6.75-1.125-6.75 0-9h2z"/><path fill="#1a1d1e" d="m249 224 5 1 1 8h-2l-1 2a480 480 0 0 1-1.5-3.812l-.844-2.145C249 227 249 227 249 224"/><path fill="#10452c" d="M184 178h7l2 6c-1 1-1 1-4.062 1.063L186 185l4-2-3-1v-3z"/><path fill="#151f1f" d="M254 234h2l.313 2.875c.372 3.416.372 3.416 3.687 5.125l1 2-5 2a211 211 0 0 1-1.562-3.75l-.88-2.11c-.636-2.44-.36-3.78.442-6.14"/><path fill="#21181f" d="M246 209c1.738 3.229 2.886 6.51 4 10l1 3h-2l-1 2a760 760 0 0 1-2.062-5.875l-1.16-3.305C244 212 244 212 245 210z"/><path fill="#7f1c4e" d="M116 128h1l.402 2.52.535 3.292.528 3.27c.474 2.967.474 2.967 1.535 5.918l-1 3c-2.062.688-2.062.688-4 1l.5-2.75c.789-5.388.58-10.82.5-16.25"/><path fill="#0fbb67" d="M315 125c-2.285 2.285-3.978 2.901-7 4l-3.187 1.188C302 131 302 131 300 130q1.87-1.228 3.75-2.437l2.11-1.372c3.524-1.961 5.257-2.485 9.14-1.191"/><path fill="#1e181d" d="m58 206 2 2 2-1v2l2 1c-5.75 5-5.75 5-8 5 .875-6.75.875-6.75 2-9"/><path fill="#166a43" d="m217 170-4 1v2l3 1-1 2-6-1 1-3-2-1c3.426-1.618 5.38-2.34 9-1"/><path fill="#036834" d="m266 152 2 1a972 972 0 0 1-4.875 3.5l-2.742 1.969C258 160 258 160 256 160v2l-4-2q3.43-2.044 6.875-4.062l1.973-1.182c1.683-.98 3.415-1.875 5.152-2.756"/><path fill="#83385c" d="m107 72 2 2c-.375 2.625-.375 2.625-1 5h-2l-.812 2.375C104 84 104 84 101 86c1.492-4.972 3.605-9.418 6-14"/><path fill="#c52e71" d="M141.313 36.875 143 38l-1 2h-4c-2.067.908-2.067.908-4 2l-3 1v-5h3l2.438-1.125C139 36 139 36 141.313 36.875"/><path fill="#d73e86" d="M166 23v2l-2.375.25c-2.772.478-2.772.478-3.937 2.813L159 30c-1.5-1.312-1.5-1.312-3-3v-3c3.38-1.04 6.478-1.08 10-1"/><path fill="#26b26e" d="M306 268c2.955 2.618 4.758 5.676 6.75 9.063l1.922 3.222L316 283l-1 2-1-3-3-1c-2.48-4.168-3.79-8.348-5-13"/><path fill="#248f61" d="M427 210c1.285 3.855.405 5.403-.937 9.188l-1.153 3.292L424 225h-1a268 268 0 0 1-.125-4.25l-.07-2.39c.212-2.567.908-4.152 2.195-6.36h2z"/><path fill="#05d775" d="M286 136v3c-2.98 2.426-5.003 3.913-8.875 4.25L275 143c1.375-1.5 1.375-1.5 3-3h2l1-3c2-1 2-1 5-1"/><path fill="#0ad57a" d="M406 96c3.344.557 6.033 1.352 9 3v2l3 1c-1.812.625-1.812.625-4 1l-3-2-2 1-1-3-2-1z"/><path fill="#032d17" d="m369 309 5 1 1 3-5 1v2l-4-1v-2l3-2z"/><path fill="#005223" d="M377 290h2c-.326 3.003-.888 3.903-3.215 5.922l-2.723 1.828-2.714 1.86C368 301 368 301 366 301v-2c5.294-4 5.294-4 9-4z"/><path fill="#287752" d="M302 256c2.444 3.083 4.331 6.285 6.188 9.75l1.605 2.984L311 271h-3a579 579 0 0 1-3-5.25l-1.687-2.953C302 260 302 260 302 256"/><path fill="#2c7858" d="m378 238 2 3-1 3 2 2c-3 2-3 2-6 2l-1 3-1-2c.996-2.602.996-2.602 2.438-5.625l1.433-3.04z"/><path fill="#0e7a49" d="M285 231h5l1 7c-3 0-3 0-5-1-.625-3.062-.625-3.062-1-6"/><path fill="#244e3c" d="M285 213c1.901 2.851 2.963 5.297 4.125 8.5l1.07 2.906C291 227 291 227 291 230h-2c-4.592-11.522-4.592-11.522-4-17"/><path fill="#391126" d="M111 164h1a340 340 0 0 1-.375 4.313c-.07.8-.14 1.6-.21 2.425C111 173 111 173 109 176l-.875-2.437c-.858-2.696-.858-2.696-3.125-3.563l5-1z"/><path fill="#3a0f25" d="M109 144h1c-.39 6.56-1.421 11.945-4 18h-1c.584-6.304 2.04-11.987 4-18"/><path fill="#32a36f" d="M422 225c1.353 4.06.152 5.771-1.437 9.688l-1.434 3.574L418 241c-1.132-3.397-.863-5.074-.25-8.562l.484-2.942C419 227 419 227 422 225"/><path fill="#040a07" d="m165 184-8 8-2-2c2.167-6.036 3.715-6.137 10-6"/><path fill="#0d9f5d" d="M437 175c1.236 3.708.568 4.675-.937 8.188l-1.153 2.73L434 188l-2-1 .563-3.25c.367-3.154.482-4.848-.563-7.75l3 2z"/><path fill="#09d473" d="m407 167 5 2c-.613 2.962-1.254 4.38-3 7l-1-3-2 2c-1.208-3.623-.543-4.641 1-8"/><path fill="#39aa7c" d="M438 123c2.069 3.103 2.786 5.41 3.688 9l.824 3.188C443 138 443 138 442 141l-1-5h-2z"/><path fill="#d367a1" d="m158 65 2 1-1.355 1.285C154.55 71.257 151.186 75.27 148 80l-1-3 4.375-4.875 2.46-2.742A126 126 0 0 1 158 65"/><path fill="#017237" d="M406 252c.676 1.676.676 1.676 1 4-1.145 2.543-1.145 2.543-2.812 5.188l-1.645 2.667C401 266 401 266 399 267c2.545-7.818 2.545-7.818 4-11l2-1z"/><path fill="#257451" d="m231 164-1 3c-1.622.389-3.248.76-4.875 1.125l-2.742.633L220 169l-2-2c4.622-2.219 7.768-3.383 13-3"/><path fill="#227b50" d="M321 148h8c-3.2 2.743-6.005 4.63-10 6z"/><path fill="#17d77e" d="m300 124 2 1v2c-3.135 1.858-5.375 2.201-9 2l-1 3-3-1 1-3a140 140 0 0 1 7-2z"/><path fill="#41c384" d="M352 96v2c-1.91.868-3.829 1.719-5.75 2.563l-3.234 1.44c-3 .992-4.15 1.159-7.016-.003q3.435-1.506 6.875-3c.976-.43.976-.43 1.973-.867C349.773 96 349.773 96 352 96"/><path fill="#b22d6c" d="M128 43h3v2h3v2l-4 1v-2l-3 1zm-3 4h2c-1.75 4.875-1.75 4.875-4 6z"/><path fill="#df3787" d="m156 27-1 5h-7v-3c2.906-1.257 4.796-2 8-2"/><path fill="#0c100e" d="M292 304h2v2l2 1c.625 3.063.625 3.063 1 6-1.875-.187-1.875-.187-4-1-1.312-2.375-1.312-2.375-2-5zm-8-7h4l1 9c-2.5-2.25-2.5-2.25-5-5z"/><path fill="#1d5c3e" d="M208 173c-5.143 4.429-5.143 4.429-9 5v-2l-3-1q2.15-.796 4.313-1.562l2.425-.88C205 172 205 172 208 173"/><path fill="#98215d" d="M123 128c1 2 1 2 .313 4.563C122 135 122 135 119.875 135.813L118 136c.25-2.875.25-2.875 1-6 2.063-1.375 2.063-1.375 4-2"/><path fill="#02d071" d="m403 117 1 2h2v4l2 1v10c-3-3-3-3-3.062-6.437L405 124c-.933-2.2-.933-2.2-2-4z"/><path fill="#42c587" d="m303 120 1 2-1.937.313L300 123l-1 3c-3.437 1.75-3.437 1.75-7 3l-2-1z"/><path fill="#1dd178" d="M395 282h2c-1.394 4.435-3.606 6.874-7 10v-5h3l-1-3h3z"/><path fill="#174431" d="M283 176a361 361 0 0 1-4.687 3l-2.637 1.688c-2.846 1.395-4.555 1.582-7.676 1.312 3.421-2.975 10.558-8.221 15-6"/><path fill="#290919" d="M87 136c1.43 2.862.6 4.934 0 8l-1-2-5 3c1.477-6.646 1.477-6.646 4.125-8.437z"/><path fill="#421b2e" d="M86 129h3v2l-3 1zm-1 3c.934 3.01 1.044 3.867 0 7a90 90 0 0 1-4 4l2-9h2z"/><path fill="#27a469" d="M403 135c4 2 4 2 4.75 4.188.292 3.284.315 6.516.25 9.812h-1z"/><path fill="#e9439d" d="M224 72c3.298 2.199 3.998 3.509 5.688 7l1.324 2.688C232 84 232 84 232 86h-2l-.805-1.68-1.07-2.195-1.055-2.18C226.034 77.85 226.034 77.85 224 76z"/><path fill="#013d18" d="M330 296c3.594 1.335 6.755 2.96 10 5l-1 2c-3.776-.524-6.224-1.327-9-4z"/><path fill="#ef3fa6" d="M251 136h1v10h-2v2h-5l2.438-2.625c2.531-3.004 3.279-5.407 3.562-9.375"/><path fill="#e94aa8" d="M236 96c2.733 2.172 4.729 3.858 5.555 7.336.232 2.227.391 4.426.445 6.664-1.42-2.13-2.807-4.246-4.125-6.437l-1.07-1.747C236 100 236 100 236 96"/><path fill="#8d1a53" d="M132 83c1.236 3.708.568 4.675-.937 8.188l-1.153 2.73L129 96c-.84-3.098-1.09-5.783-1-9h2z"/><path fill="#912851" d="m110 66 4 1-1.437 2.313c-1.664 2.651-1.664 2.651-2.563 5.687l-3-3z"/><path fill="#ad256f" d="M145 62c0 3 0 3-1 5h-2l-2 6h-1c-.375-2.687-.375-2.687 0-6 1.824-2.064 3.728-3.39 6-5"/><path fill="#24714e" d="M292 232c2.756 4.134 3.108 6.052 3 11-4.429-5.143-4.429-5.143-5-9h2z"/><path fill="#13cf7c" d="m419 103 5 1v3l3 1v3h-2l-2-3-3-1c-.687-2.062-.687-2.062-1-4"/><path fill="#28bf77" d="M318 288c7.483 6.15 7.483 6.15 10 10-4.677-1.477-4.677-1.477-6.312-4.125L321 292h-2z"/><path fill="#017640" d="m414 239-2 6h-4v-5c3-1 3-1 6-1"/><path fill="#0e6032" d="M394 287h2c-1.465 5.615-1.465 5.615-4 7.438-2 .562-2 .562-4-.438a418 418 0 0 1 2.875-3.5l1.617-1.969z"/><path fill="#2f9a67" d="M389 209h2c.369 5.53.369 5.53-1.375 7.75L388 218l-2 2c.551-3.95 1.39-7.35 3-11"/><path fill="#248a5c" d="m430 198 2 1c-.551 3.95-1.39 7.35-3 11h-1v-8h2z"/><path fill="#4d1431" d="m114 158-1 9-1-3h-2v-5c3-1 3-1 4-1"/><path fill="#024620" d="M318 284c2.648 2.578 4.944 4.916 7 8-3 0-3 0-5.687-2.5L317 287z"/><path fill="#2d674d" d="M370 256h1v6h-2l-1 3h-2c1.059-3.403 2.009-6.014 4-9"/><path fill="#1cc26e" d="m407 254 2 1v9l-3-4-2 1c1.875-4.75 1.875-4.75 3-7"/><path fill="#09a35a" d="M295 254c1.938.813 1.938.813 4 2l1 3-3 3c-1.257-2.906-2-4.796-2-8"/><path fill="#478f71" d="M249 154v2c-2.75 2.188-2.75 2.188-6 4-2.203-.387-2.203-.387-4-1q1.932-1.257 3.875-2.5l2.18-1.406C247 154 247 154 249 154"/><path fill="#f63eac" d="m228 151 2 1v2h5l-5 5c-1.765-3.088-2-4.233-2-8"/><path fill="#0fca75" d="M271 141h5l-1 5h-4z"/><path fill="#bc3a7c" d="M183 65c2.71.155 4.466.482 6.445 2.402 1.232 1.496 2.398 3.044 3.555 4.598-3.567 0-4.105-.637-6.687-2.937l-1.887-1.653L183 66z"/><path fill="#8f3462" d="m115 58 2 3-1 3c-2.562 1.188-2.562 1.188-5 2 1.125-2.972 2.223-5.334 4-8"/><path fill="#187346" d="M375 248h2c-.187 2.313-.187 2.313-1 5-2.562 1.813-2.562 1.813-5 3 .597-3.342 1.736-5.464 4-8"/><path fill="#242a28" d="m252 191 2 1c-1.062 2-1.062 2-3 4-3.687.25-3.687.25-7 0v2l-2-1 1-2q3.495-1.016 7-2z"/><path fill="#e169a6" d="M137 95h2l-3 9h-3z"/><path fill="#e84ea7" d="m145 77 2 2-1.023 1.426-1.352 1.886-1.336 1.864A215 215 0 0 0 140 89c-.583-3.848.3-5.763 2.5-8.812A167 167 0 0 1 145 77"/><path fill="#dc61ab" d="M234 71c2.748 3.402 6 7.485 6 12h-2a563 563 0 0 1-2-4.312l-1.125-2.426C234 74 234 74 234 71"/><path fill="#040906" d="M319 321c2.938 1.313 2.938 1.313 6 3l1 3h-5z"/><path fill="#09d975" d="m391 283 2 4h-3v4h-2c-.37-4.554-.37-4.554 1.5-6.812z"/><path fill="#045127" d="M289 248c2.96 3.364 3.923 6.692 5 11h-2c-2.153-3.858-3.393-6.551-3-11"/><path fill="#ee4fb3" d="m250 150-1.812.75c-2.32 1.13-2.32 1.13-3.75 3.375L243 156h-3l1-3h2v-2c2.463-1.231 4.28-1.072 7-1"/><path fill="#2a9964" d="M356 130h9c-3.285 2.19-6.207 2.998-10 4z"/><path fill="#04b665" d="m400 128 6 1 .438 1.875c.494 2.158.494 2.158 1.562 4.125l-4-2v-2l-5-1z"/><path fill="#0f301c" d="M387 299c-.312 2.375-.312 2.375-1 5l-3 2v-6c2-1 2-1 4-1"/><path fill="#161e1a" d="m275 286 4 1 1 7c-2.724-2.353-3.814-4.625-5-8"/><path fill="#28bb77" d="M269 141h2l-1 5-6 1a159 159 0 0 1 5-6"/><path fill="#01b05c" d="m349 108-3 1-1.437 1.625L343 112c-2.187-.312-2.187-.312-4-1 3.255-3.255 5.518-4.6 10-3"/><path fill="#da3b94" d="M198 77c2.097 2.36 2.97 3.546 3.188 6.75L201 86l-2-3-3-2z"/><path fill="#101010" d="M300 313h2l2 6-4-1z"/><path fill="#0d3524" d="m321 287 1.563.875c3.06 1.413 6.186 2.25 9.437 3.125l-2 2c-4.355-1.161-6.646-2.077-9-6"/><path fill="#1ad17b" d="m313 282 5 5-2 1-3-1-1 2c0-2.621.313-4.51 1-7"/><path fill="#22b56b" d="M303 276h2v3h2l2 5-2 1c-4-6.75-4-6.75-4-9"/><path fill="#36ab76" d="M397 187c1.138 4.55.428 6.63-1 11h-2z"/><path fill="#d34192" d="M224 142c1.765 3.088 2 4.233 2 8h-2l-2-7z"/><path fill="#5a9d83" d="m269 143-7 6-2-1c1.066-2.907 1.703-3.844 4.5-5.312C267 142 267 142 269 143"/><path fill="#02914a" d="m302 130 2 1c-1.125 1.938-1.125 1.938-3 4-3.187.75-3.187.75-6 1 2.257-2.335 4.28-4.187 7-6"/><path fill="#d44f93" d="M218 48c3.83 1.453 5.12 3.429 7 7h-4z"/><path fill="#131010" d="M306 319h4l2 4-6-1z"/><path fill="#114d2b" d="m309 271 3 1c1.188 2.563 1.188 2.563 2 5h-3z"/><path fill="#35be7c" d="M412 245h2c.625 2.375.625 2.375 1 5l-2 2-2-2c.375-2.625.375-2.625 1-5"/><path fill="#028243" d="M420 222c1 3 1 3 .063 5.188L419 229h-2l-1-4z"/><path fill="#77264c" d="m115 148 3 2-1 5-3-2z"/><path fill="#00733a" d="M284 144c-3.625 4.875-3.625 4.875-7 6 .25-2.375.25-2.375 1-5 3.307-2.347 3.307-2.347 6-1"/><path fill="#3cba81" d="M279 136v2h-3v3h-5c4.839-5 4.839-5 8-5"/><path fill="#c8307c" d="m129 111 1 3-3 3-2-4z"/><path fill="#b62a78" d="M147 55h3a101 101 0 0 1-2 6l-2 1z"/><path fill="#ce2e83" d="m168 42-8 5-1-2h2l1-3c3-1 3-1 6 0"/></svg>